SplineFontDB: 1.0
FontName: DejaVuSans-ExtraLight
FullName: DejaVu Sans Extra Light
FamilyName: DejaVu Sans
Weight: ExtraLight
Copyright: Copyright (c) 2003 by Bitstream, Inc. All Rights Reserved.\nDejaVu changes are in public domain\n
Version: 2.3
ItalicAngle: 0
UnderlinePosition: -213
UnderlineWidth: 143
Ascent: 1556
Descent: 492
Order2: 1
NeedsXUIDChange: 1
FSType: 0
PfmFamily: 17
TTFWeight: 200
TTFWidth: 5
LineGap: 0
VLineGap: 0
Panose: 2 11 3 3 3 8 4 2 2 4
OS2TypoAscent: 1556
OS2TypoAOffset: 0
OS2TypoDescent: -492
OS2TypoDOffset: 0
OS2TypoLinegap: 0
OS2WinAscent: 1901
OS2WinAOffset: 0
OS2WinDescent: 483
OS2WinDOffset: 0
HheadAscent: 1901
HheadAOffset: 0
HheadDescent: -483
HheadDOffset: 0
OS2SubXSize: -15064
OS2SubYSize: 9680
OS2SubXOff: 9672
OS2SubYOff: 295
OS2SupXSize: 79
OS2SupYSize: 40
OS2SupXOff: 9768
OS2SupYOff: 16363
OS2StrikeYSize: 11512
OS2StrikeYPos: 9600
OS2Vendor: 'PfEd'
ScriptLang: 6
 3 cyrl 1 dflt grek 1 dflt latn 1 dflt 
 1 DFLT 1 dflt 
 1 latn 1 dflt 
 1 armn 1 dflt 
 1 arab 1 dflt 
 1 hebr 1 dflt 
ChainSub: class 0 0 'ccmp' 4 4 4 2
  Class: 3 i j
  Class: 181 gravecomb acutecomb uni0302 tildecomb uni0304 uni0305 uni0306 uni0307 uni0308 uni030A uni030B uni030C uni030D uni030E uni030F uni0310 uni0311 uni0312 uni0313 uni0314 uni033D uni033E

StartChar: .notdef
Encoding: 0 -1 0
AltUni: 0
Width: 1229
Flags: W
Fore
102 -362 m 1,0,-1
 102 1444 l 1,1,-1
 1126 1444 l 1,2,-1
 1126 -362 l 1,3,-1
 102 -362 l 1,0,-1
197 -287 m 1,4,-1
 1032 -287 l 1,5,-1
 1032 1368 l 1,6,-1
 197 1368 l 1,7,-1
 197 -287 l 1,4,-1
EndSplineSet
EndChar
StartChar: exclam
Encoding: 33 33 33
Width: 821
Flags: W
Fore
362 128 m 1,0,-1
 459 128 l 1,1,-1
 459 0 l 1,2,-1
 362 0 l 1,3,-1
 362 128 l 1,0,-1
362 1493 m 1,4,-1
 459 1493 l 1,5,-1
 459 838 l 1,6,-1
 439 481 l 1,7,-1
 383 481 l 1,8,-1
 362 838 l 1,9,-1
 362 1493 l 1,4,-1
EndSplineSet
EndChar
StartChar: quotedbl
Encoding: 34 34 34
Width: 942
Flags: W
Fore
328 1493 m 1,0,-1
 328 938 l 1,1,-1
 232 938 l 1,2,-1
 232 1493 l 1,3,-1
 328 1493 l 1,0,-1
706 1493 m 1,4,-1
 706 938 l 1,5,-1
 610 938 l 1,6,-1
 610 1493 l 1,7,-1
 706 1493 l 1,4,-1
EndSplineSet
EndChar
StartChar: numbersign
Encoding: 35 35 35
Width: 1716
Flags: W
Fore
1087 939 m 1,0,-1
 735 939 l 1,1,-1
 631 529 l 1,2,-1
 985 529 l 1,3,-1
 1087 939 l 1,0,-1
866 1470 m 1,4,-1
 752 1017 l 1,5,-1
 1106 1017 l 1,6,-1
 1220 1470 l 1,7,-1
 1321 1470 l 1,8,-1
 1206 1017 l 1,9,-1
 1559 1017 l 1,10,-1
 1559 939 l 1,11,-1
 1187 939 l 1,12,-1
 1085 529 l 1,13,-1
 1444 529 l 1,14,-1
 1444 452 l 1,15,-1
 1066 452 l 1,16,-1
 954 0 l 1,17,-1
 853 0 l 1,18,-1
 966 452 l 1,19,-1
 612 452 l 1,20,-1
 499 0 l 1,21,-1
 400 0 l 1,22,-1
 512 452 l 1,23,-1
 158 452 l 1,24,-1
 158 529 l 1,25,-1
 532 529 l 1,26,-1
 634 939 l 1,27,-1
 272 939 l 1,28,-1
 272 1017 l 1,29,-1
 654 1017 l 1,30,-1
 766 1470 l 1,31,-1
 866 1470 l 1,4,-1
EndSplineSet
EndChar
StartChar: dollar
Encoding: 36 36 36
Width: 1303
Flags: W
Fore
683 -301 m 1,0,-1
 591 -301 l 1,1,-1
 591 0 l 1,2,3
 521 0 521 0 394 44 c 0,4,5
 268 87 268 87 170 129 c 1,6,-1
 170 216 l 1,7,8
 275 171 275 171 394 130 c 0,9,10
 531 82 531 82 592 83 c 1,11,-1
 592 652 l 1,12,13
 383 686 383 686 287 765 c 0,14,15
 192 845 192 845 192 983 c 0,16,17
 192 1134 192 1134 295 1221 c 0,18,19
 399 1308 399 1308 592 1321 c 1,20,-1
 592 1556 l 1,21,-1
 683 1556 l 1,22,-1
 683 1324 l 1,23,24
 760 1324 760 1324 880 1300 c 0,25,26
 964 1285 964 1285 1042 1259 c 1,27,-1
 1042 1174 l 1,28,29
 956 1205 956 1205 874 1222 c 0,30,31
 775 1243 775 1243 683 1243 c 1,32,-1
 683 711 l 1,33,34
 924 678 924 678 1031 593 c 0,35,36
 1139 508 1139 508 1139 360 c 0,37,38
 1139 201 1139 201 1024 108 c 0,39,40
 910 16 910 16 683 0 c 1,41,-1
 683 -301 l 1,0,-1
592 733 m 1,42,-1
 592 1239 l 1,43,44
 442 1223 442 1223 364 1158 c 0,45,46
 285 1092 285 1092 285 984 c 0,47,48
 285 878 285 878 358 818 c 0,49,50
 431 759 431 759 592 733 c 1,42,-1
683 633 m 1,51,-1
 683 83 l 1,52,53
 868 105 868 105 957 175 c 0,54,55
 1045 245 1045 245 1045 359 c 0,56,57
 1045 468 1045 468 961 537 c 0,58,59
 880 603 880 603 683 633 c 1,51,-1
EndSplineSet
EndChar
StartChar: percent
Encoding: 37 37 37
Width: 1946
Flags: W
Fore
459 1441 m 0,0,1
 360 1441 360 1441 304 1354 c 0,2,3
 248 1268 248 1268 248 1113 c 0,4,5
 248 961 248 961 304 874 c 0,6,7
 360 787 360 787 459 787 c 0,8,9
 555 787 555 787 612 874 c 0,10,11
 668 961 668 961 668 1113 c 0,12,13
 668 1266 668 1266 612 1354 c 0,14,15
 555 1441 555 1441 459 1441 c 0,0,1
457 1520 m 0,16,17
 597 1520 597 1520 679 1410 c 0,18,19
 761 1300 761 1300 761 1113 c 0,20,21
 761 926 761 926 679 816 c 0,22,23
 596 707 596 707 457 707 c 0,24,25
 315 707 315 707 233 816 c 0,26,27
 151 926 151 926 151 1113 c 0,28,29
 151 1301 151 1301 234 1410 c 0,30,31
 316 1520 316 1520 457 1520 c 0,16,17
1490 705 m 0,32,33
 1391 705 1391 705 1335 618 c 0,34,35
 1279 532 1279 532 1279 377 c 0,36,37
 1279 225 1279 225 1335 138 c 0,38,39
 1391 51 1391 51 1490 51 c 0,40,41
 1587 51 1587 51 1643 138 c 0,42,43
 1699 225 1699 225 1699 377 c 0,44,45
 1699 530 1699 530 1643 618 c 0,46,47
 1587 705 1587 705 1490 705 c 0,32,33
1488 784 m 0,48,49
 1628 784 1628 784 1710 674 c 0,50,51
 1793 564 1793 564 1793 377 c 0,52,53
 1793 190 1793 190 1710 80 c 0,54,55
 1627 -29 1627 -29 1488 -29 c 0,56,57
 1346 -29 1346 -29 1264 80 c 0,58,59
 1182 190 1182 190 1182 377 c 0,60,61
 1182 565 1182 565 1265 674 c 0,62,63
 1347 784 1347 784 1488 784 c 0,48,49
EndSplineSet
Refer: 8260 8260 N 1 0 0 1 800 0 2
EndChar
StartChar: ampersand
Encoding: 38 38 38
Width: 1597
Flags: W
Fore
517 856 m 1,0,1
 409 763 409 763 334 636 c 0,2,3
 278 542 278 542 278 414 c 0,4,5
 278 238 278 238 374 148 c 0,6,7
 481 48 481 48 684 53 c 0,8,9
 797 53 797 53 878 105 c 0,10,11
 1017 188 1017 188 1080 275 c 1,12,-1
 517 856 l 1,0,1
588 912 m 2,13,-1
 1139 348 l 1,14,15
 1174 390 1174 390 1258 534 c 0,16,17
 1318 637 1318 637 1323 801 c 1,18,-1
 1424 801 l 1,19,20
 1408 649 1408 649 1374 556 c 0,21,22
 1326 420 1326 420 1207 280 c 1,23,-1
 1470 0 l 1,24,-1
 1343 0 l 1,25,-1
 1145 208 l 1,26,27
 1030 85 1030 85 932 36 c 0,28,29
 802 -29 802 -29 676 -29 c 0,30,31
 408 -29 408 -29 291 111 c 0,32,33
 176 248 176 248 176 407 c 0,34,35
 176 564 176 564 252 692 c 0,36,37
 305 781 305 781 452 923 c 1,38,39
 415 964 415 964 377 1032 c 0,40,41
 341 1095 341 1095 341 1161 c 0,42,43
 341 1340 341 1340 433 1428 c 0,44,45
 529 1519 529 1519 705 1520 c 0,46,47
 787 1520 787 1520 866 1488 c 0,48,49
 1016 1426 1016 1426 1039 1408 c 1,50,-1
 1039 1309 l 1,51,52
 944 1367 944 1367 862 1402 c 0,53,54
 777 1438 777 1438 714 1438 c 0,55,56
 613 1438 613 1438 542 1397 c 0,57,58
 443 1342 443 1342 443 1163 c 0,59,60
 443 1112 443 1112 472 1060 c 0,61,62
 515 986 515 986 588 912 c 2,13,-1
EndSplineSet
EndChar
StartChar: quotesingle
Encoding: 39 39 39
Width: 563
Flags: W
Fore
327 1493 m 1,0,-1
 327 938 l 1,1,-1
 231 938 l 1,2,-1
 231 1493 l 1,3,-1
 327 1493 l 1,0,-1
EndSplineSet
EndChar
StartChar: parenleft
Encoding: 40 40 40
Width: 799
Flags: W
Fore
588 1556 m 1,0,1
 454 1326 454 1326 389 1099 c 0,2,3
 324 874 324 874 324 643 c 128,-1,4
 324 412 324 412 390 186 c 0,5,6
 455 -41 455 -41 588 -270 c 1,7,-1
 499 -270 l 1,8,9
 361 -35 361 -35 293 192 c 0,10,11
 224 419 224 419 224 643 c 0,12,13
 224 866 224 866 292 1092 c 128,-1,14
 360 1318 360 1318 499 1556 c 1,15,-1
 588 1556 l 1,0,1
EndSplineSet
EndChar
StartChar: parenright
Encoding: 41 41 41
Width: 799
Flags: W
Fore
224 1556 m 1,0,-1
 313 1556 l 1,1,2
 452 1320 452 1320 520 1092 c 0,3,4
 588 866 588 866 588 643 c 0,5,6
 588 419 588 419 519 192 c 0,7,8
 451 -35 451 -35 313 -270 c 1,9,-1
 224 -270 l 1,10,11
 357 -41 357 -41 423 186 c 0,12,13
 488 412 488 412 488 643 c 128,-1,14
 488 874 488 874 423 1099 c 0,15,16
 358 1326 358 1326 224 1556 c 1,0,-1
EndSplineSet
EndChar
StartChar: asterisk
Encoding: 42 42 42
Width: 1024
Flags: W
Fore
942 1278 m 1,0,-1
 556 1056 l 1,1,-1
 944 833 l 1,2,-1
 921 791 l 1,3,-1
 533 1016 l 1,4,-1
 533 586 l 1,5,-1
 485 586 l 1,6,-1
 485 1014 l 1,7,-1
 99 793 l 1,8,-1
 75 832 l 1,9,-1
 464 1056 l 1,10,-1
 77 1278 l 1,11,-1
 101 1318 l 1,12,-1
 485 1096 l 1,13,-1
 485 1520 l 1,14,-1
 533 1520 l 1,15,-1
 533 1096 l 1,16,-1
 919 1318 l 1,17,-1
 942 1278 l 1,0,-1
EndSplineSet
EndChar
StartChar: plus
Encoding: 43 43 43
Width: 1716
Flags: W
Fore
908 1284 m 1,0,-1
 908 683.5 l 1,1,-1
 1499 683.5 l 1,2,-1
 1499 601.5 l 1,3,-1
 908 601.5 l 1,4,-1
 908 0 l 1,5,-1
 807 0 l 1,6,-1
 807 601.5 l 1,7,-1
 217 601.5 l 1,8,-1
 217 683.5 l 1,9,-1
 807 683.5 l 1,10,-1
 807 1284 l 1,11,-1
 908 1284 l 1,0,-1
EndSplineSet
EndChar
StartChar: comma
Encoding: 44 44 44
Width: 651
Flags: W
Fore
274 126 m 1,0,-1
 375 126 l 1,1,-1
 375 82 l 1,2,-1
 296 -238 l 1,3,-1
 234 -238 l 1,4,-1
 274 82 l 1,5,-1
 274 126 l 1,0,-1
EndSplineSet
EndChar
StartChar: hyphen
Encoding: 45 45 45
Width: 739
Flags: W
Fore
100 602 m 1,0,-1
 639 602 l 1,1,-1
 639 520 l 1,2,-1
 100 520 l 1,3,-1
 100 602 l 1,0,-1
EndSplineSet
KernsSLIFO: 256 -45 0 0 258 -45 0 0 260 -45 0 0 356 -188 0 0 286 75 0 0 253 -36 0 0 221 -243 0 0 210 57 0 0 212 57 0 0 211 57 0 0 193 -45 0 0 194 -45 0 0 376 -243 0 0 255 -36 0 0 213 57 0 0 195 -45 0 0 192 -45 0 0 245 38 0 0 246 38 0 0 244 38 0 0 242 38 0 0 243 38 0 0 214 57 0 0 196 -45 0 0 121 -36 0 0 118 -55 0 0 111 38 0 0 89 -243 0 0 88 -102 0 0 87 -83 0 0 86 -120 0 0 84 -188 0 0 81 75 0 0 79 57 0 0 74 114 0 0 71 75 0 0 66 -73 0 0 65 -45 0 0
EndChar
StartChar: period
Encoding: 46 46 46
Width: 651
Flags: W
Fore
274 126 m 1,0,-1
 376 126 l 1,1,-1
 376 0 l 1,2,-1
 274 0 l 1,3,-1
 274 126 l 1,0,-1
EndSplineSet
EndChar
StartChar: slash
Encoding: 47 47 47
Width: 690
Flags: W
Fore
552 1493 m 1,0,-1
 658 1493 l 1,1,-1
 138 -190 l 1,2,-1
 32 -190 l 1,3,-1
 552 1493 l 1,0,-1
EndSplineSet
EndChar
StartChar: zero
Encoding: 48 48 48
Width: 1303
Flags: W
Fore
645 1438 m 24,0,1
 462 1438 462 1438 373 1260 c 0,2,3
 284 1081 284 1081 284 745 c 152,-1,4
 284 409 284 409 373 230 c 0,5,6
 462 52 462 52 645 52 c 24,7,8
 834 52 834 52 923 230 c 0,9,10
 1012 409 1012 409 1012 745 c 152,-1,11
 1012 1081 1012 1081 923 1260 c 0,12,13
 834 1438 834 1438 645 1438 c 24,0,1
645 1520 m 24,14,15
 861 1520 861 1520 987 1344 c 0,16,17
 1113 1167 1113 1167 1113 745 c 152,-1,18
 1113 323 1113 323 987 146 c 0,19,20
 861 -30 861 -30 645 -30 c 24,21,22
 435 -30 435 -30 309 146 c 0,23,24
 183 323 183 323 183 745 c 152,-1,25
 183 1167 183 1167 309 1344 c 0,26,27
 435 1520 435 1520 645 1520 c 24,14,15
EndSplineSet
EndChar
StartChar: one
Encoding: 49 49 49
Width: 1303
Flags: W
Fore
304 82 m 1,0,-1
 634 82 l 1,1,-1
 634 1410 l 1,2,-1
 584 1410 l 1,3,-1
 225 1338 l 1,4,-1
 225 1421 l 1,5,-1
 582 1493 l 1,6,-1
 734 1493 l 1,7,-1
 734 82 l 1,8,-1
 1064 82 l 1,9,-1
 1064 0 l 1,10,-1
 304 0 l 1,11,-1
 304 82 l 1,0,-1
EndSplineSet
EndChar
StartChar: two
Encoding: 50 50 50
Width: 1303
Flags: W
Fore
246 81 m 1,0,-1
 1098 81 l 1,1,-1
 1098 0 l 1,2,-1
 142 0 l 1,3,-1
 142 105 l 1,4,-1
 514 492 l 0,5,6
 652 632 652 632 764 751 c 0,7,8
 868 862 868 862 903 923 c 128,-1,9
 938 984 938 984 938 1084 c 0,10,11
 938 1257 938 1257 832 1362 c 0,12,13
 755 1438 755 1438 584 1438 c 0,14,15
 484 1438 484 1438 354 1380 c 0,16,17
 297 1354 297 1354 160 1265 c 1,18,-1
 160 1371 l 1,19,20
 218 1412 218 1412 330 1462 c 0,21,22
 457 1519 457 1519 582 1520 c 0,23,24
 775 1520 775 1520 905 1421 c 0,25,26
 1032 1322 1032 1322 1032 1094 c 0,27,28
 1032 1002 1032 1002 998 920 c 0,29,30
 958 824 958 824 872 725 c 0,31,32
 847 696 847 696 713 558 c 0,33,-1
 246 81 l 1,0,-1
EndSplineSet
EndChar
StartChar: three
Encoding: 51 51 51
Width: 1303
Flags: W
Fore
831 805 m 1,0,1
 951 776 951 776 1020 676 c 0,2,3
 1088 578 1088 578 1088 434 c 0,4,5
 1088 213 1088 213 961 92 c 128,-1,6
 834 -29 834 -29 555 -29 c 0,7,8
 461 -29 461 -29 362 0 c 0,9,10
 262 30 262 30 156 92 c 1,11,-1
 156 201 l 1,12,13
 240 128 240 128 340 90 c 0,14,15
 440 53 440 53 544 53 c 0,16,17
 760 53 760 53 874 151 c 0,18,19
 987 248 987 248 987 434 c 0,20,21
 987 586 987 586 882 671 c 0,22,23
 776 757 776 757 588 757 c 2,24,-1
 414 757 l 1,25,-1
 414 841 l 1,26,-1
 596 841 l 2,27,28
 769 841 769 841 860 910 c 0,29,30
 952 980 952 980 952 1112 c 0,31,32
 952 1268 952 1268 858 1352 c 0,33,34
 763 1436 763 1436 587 1436 c 0,35,36
 505 1436 505 1436 410 1407 c 128,-1,37
 315 1378 315 1378 201 1317 c 1,38,-1
 201 1421 l 1,39,40
 316 1470 316 1470 416 1493 c 0,41,42
 517 1518 517 1518 606 1520 c 0,43,44
 835 1520 835 1520 944 1416 c 0,45,46
 1054 1311 1054 1311 1054 1133 c 0,47,48
 1054 1014 1054 1014 996 924 c 0,49,50
 940 837 940 837 831 805 c 1,0,1
EndSplineSet
EndChar
StartChar: four
Encoding: 52 52 52
Width: 1303
Flags: W
Fore
824 1438 m 1,0,-1
 204 476 l 1,1,-1
 824 476 l 1,2,-1
 824 1438 l 1,0,-1
746 1493 m 1,3,-1
 926 1493 l 1,4,-1
 926 476 l 1,5,-1
 1139 476 l 1,6,-1
 1139 396 l 1,7,-1
 926 396 l 1,8,-1
 926 0 l 1,9,-1
 824 0 l 1,10,-1
 824 396 l 1,11,-1
 100 396 l 1,12,-1
 100 500 l 1,13,-1
 746 1493 l 1,3,-1
EndSplineSet
EndChar
StartChar: five
Encoding: 53 53 53
Width: 1303
Flags: W
Fore
261 1493 m 1,0,-1
 970 1493 l 1,1,-1
 970 1412 l 1,2,-1
 362 1412 l 1,3,-1
 362 911 l 1,4,5
 406 927 406 927 450 936 c 0,6,7
 494 944 494 944 579 944 c 0,8,9
 808 944 808 944 942 818 c 0,10,11
 1075 693 1075 693 1075 479 c 0,12,13
 1075 238 1075 238 938 104 c 0,14,15
 801 -29 801 -29 551 -29 c 0,16,17
 468 -29 468 -29 381 -15 c 0,18,19
 295 -1 295 -1 202 27 c 1,20,-1
 202 129 l 1,21,22
 280 92 280 92 364 73 c 0,23,24
 447 55 447 55 540 55 c 0,25,26
 740 55 740 55 858 169 c 128,-1,27
 976 283 976 283 976 479 c 0,28,29
 976 656 976 656 861 759 c 0,30,31
 745 863 745 863 547 863 c 0,32,33
 506 863 506 863 426 841 c 0,34,35
 345 820 345 820 261 775 c 1,36,-1
 261 1493 l 1,0,-1
EndSplineSet
EndChar
StartChar: six
Encoding: 54 54 54
Width: 1303
Flags: W
Fore
676 866 m 128,-1,1
 517 866 517 866 424 757 c 128,-1,2
 331 648 331 648 331 459 c 128,-1,3
 331 270 331 270 424 161 c 128,-1,4
 517 52 517 52 676 52 c 128,-1,5
 835 52 835 52 928 161 c 128,-1,6
 1021 270 1021 270 1021 459 c 128,-1,7
 1021 648 1021 648 928 757 c 128,-1,0
 835 866 835 866 676 866 c 128,-1,1
1049 1460 m 1,8,-1
 1049 1354 l 1,9,10
 979 1396 979 1396 909 1418 c 0,11,12
 838 1440 838 1440 769 1440 c 0,13,14
 471 1440 471 1440 352 1147 c 0,15,16
 298 1014 298 1014 302 696 c 1,17,18
 353 806 353 806 431 868 c 0,19,20
 532 949 532 949 688 949 c 0,21,22
 876 949 876 949 1001 816 c 0,23,24
 1125 684 1125 684 1125 479 c 0,25,26
 1125 249 1125 249 1003 110 c 128,-1,27
 881 -29 881 -29 685 -29 c 0,28,29
 448 -29 448 -29 323 170 c 0,30,31
 199 368 199 368 199 745 c 0,32,33
 199 1147 199 1147 352 1334 c 0,34,35
 504 1520 504 1520 762 1520 c 0,36,37
 831 1520 831 1520 902 1505 c 0,38,39
 972 1490 972 1490 1049 1460 c 1,8,-1
EndSplineSet
EndChar
StartChar: seven
Encoding: 55 55 55
Width: 1303
Flags: W
Fore
168 1493 m 1,0,-1
 1076 1493 l 1,1,-1
 1076 1407 l 1,2,-1
 534 0 l 1,3,-1
 428 0 l 1,4,-1
 971 1411 l 1,5,-1
 168 1411 l 1,6,-1
 168 1493 l 1,0,-1
EndSplineSet
EndChar
StartChar: eight
Encoding: 56 56 56
Width: 1303
Flags: W
Fore
651 744 m 0,0,1
 484 744 484 744 388 652 c 0,2,3
 293 559 293 559 293 397 c 128,-1,4
 293 235 293 235 388 143 c 0,5,6
 484 50 484 50 651 50 c 128,-1,7
 818 50 818 50 914 143 c 0,8,9
 1011 236 1011 236 1011 397 c 0,10,11
 1011 559 1011 559 915 652 c 0,12,13
 819 744 819 744 651 744 c 0,0,1
449 795 m 1,14,15
 352 831 352 831 290 916 c 0,16,17
 225 1005 225 1005 225 1133 c 0,18,19
 225 1312 225 1312 339 1416 c 128,-1,20
 453 1520 453 1520 651 1520 c 0,21,22
 850 1520 850 1520 963 1416 c 0,23,24
 1077 1312 1077 1312 1077 1133 c 0,25,26
 1077 1000 1077 1000 1012 916 c 0,27,28
 945 829 945 829 854 795 c 1,29,30
 966 758 966 758 1036 662 c 0,31,32
 1109 563 1109 563 1109 420 c 0,33,34
 1109 203 1109 203 991 87 c 0,35,36
 872 -29 872 -29 651 -29 c 128,-1,37
 430 -29 430 -29 311 87 c 0,38,39
 193 203 193 203 193 420 c 0,40,41
 193 563 193 563 266 662 c 0,42,43
 347 761 347 761 449 795 c 1,14,15
327 1131 m 128,-1,45
 327 986 327 986 412 905 c 128,-1,46
 497 824 497 824 651 824 c 0,47,48
 803 824 803 824 890 905 c 0,49,50
 976 986 976 986 976 1131 c 128,-1,51
 976 1276 976 1276 890 1357 c 0,52,53
 803 1438 803 1438 651 1438 c 0,54,55
 497 1438 497 1438 412 1357 c 128,-1,44
 327 1276 327 1276 327 1131 c 128,-1,45
EndSplineSet
EndChar
StartChar: nine
Encoding: 57 57 57
Width: 1303
Flags: W
Fore
648 625 m 128,-1,1
 807 625 807 625 900 734 c 128,-1,2
 993 843 993 843 993 1032 c 128,-1,3
 993 1221 993 1221 900 1330 c 128,-1,4
 807 1439 807 1439 648 1439 c 128,-1,5
 489 1439 489 1439 396 1330 c 128,-1,6
 303 1221 303 1221 303 1032 c 128,-1,7
 303 843 303 843 396 734 c 128,-1,0
 489 625 489 625 648 625 c 128,-1,1
275 31 m 1,8,-1
 275 137 l 1,9,10
 345 95 345 95 415 73 c 0,11,12
 486 51 486 51 555 51 c 0,13,14
 853 51 853 51 972 344 c 0,15,16
 1026 477 1026 477 1022 795 c 1,17,18
 971 685 971 685 893 623 c 0,19,20
 792 542 792 542 636 542 c 0,21,22
 448 542 448 542 323 675 c 0,23,24
 199 807 199 807 199 1012 c 0,25,26
 199 1242 199 1242 321 1381 c 0,27,28
 444 1520 444 1520 639 1520 c 0,29,30
 876 1520 876 1520 1001 1322 c 0,31,32
 1125 1123 1125 1123 1125 746 c 0,33,34
 1125 344 1125 344 973 158 c 0,35,36
 820 -29 820 -29 562 -29 c 0,37,38
 493 -29 493 -29 422 -14 c 0,39,40
 352 1 352 1 275 31 c 1,8,-1
EndSplineSet
EndChar
StartChar: colon
Encoding: 58 58 58
Width: 690
Flags: W
Fore
294 128 m 1,0,-1
 396 128 l 1,1,-1
 396 0 l 1,2,-1
 294 0 l 1,3,-1
 294 128 l 1,0,-1
294 984 m 1,4,-1
 396 984 l 1,5,-1
 396 857 l 1,6,-1
 294 857 l 1,7,-1
 294 984 l 1,4,-1
EndSplineSet
EndChar
StartChar: semicolon
Encoding: 59 59 59
Width: 690
Flags: W
Fore
295 984 m 1,0,-1
 396 984 l 1,1,-1
 396 857 l 1,2,-1
 295 857 l 1,3,-1
 295 984 l 1,0,-1
294 129 m 1,4,-1
 395 129 l 1,5,-1
 395 82 l 1,6,-1
 317 -238 l 1,7,-1
 255 -238 l 1,8,-1
 294 82 l 1,9,-1
 294 129 l 1,4,-1
EndSplineSet
EndChar
StartChar: less
Encoding: 60 60 60
Width: 1716
Flags: W
Fore
1499 1052 m 1,0,-1
 345 640 l 1,1,-1
 1499 233 l 1,2,-1
 1499 132 l 1,3,-1
 217 597 l 1,4,-1
 217 681 l 1,5,-1
 1499 1146 l 1,6,-1
 1499 1052 l 1,0,-1
EndSplineSet
EndChar
StartChar: equal
Encoding: 61 61 61
Width: 1716
Flags: W
Fore
217 844 m 1,0,-1
 1499 844 l 1,1,-1
 1499 762 l 1,2,-1
 217 762 l 1,3,-1
 217 844 l 1,0,-1
217 522 m 1,4,-1
 1499 522 l 1,5,-1
 1499 440 l 1,6,-1
 217 440 l 1,7,-1
 217 522 l 1,4,-1
EndSplineSet
EndChar
StartChar: greater
Encoding: 62 62 62
Width: 1716
Flags: W
Fore
217 1052 m 1,0,-1
 217 1146 l 1,1,-1
 1499 681 l 1,2,-1
 1499 597 l 1,3,-1
 217 132 l 1,4,-1
 217 233 l 1,5,-1
 1371 640 l 1,6,-1
 217 1052 l 1,0,-1
EndSplineSet
EndChar
StartChar: question
Encoding: 63 63 63
Width: 1087
Flags: W
Fore
441 126 m 1,0,-1
 543 126 l 1,1,-1
 543 0 l 1,2,-1
 441 0 l 1,3,-1
 441 126 l 1,0,-1
543 401 m 1,4,-1
 442 401 l 1,5,-1
 442 555 l 2,6,7
 442 643 442 643 476 721 c 0,8,9
 501 781 501 781 594 872 c 2,10,-1
 684 961 l 2,11,12
 744 1021 744 1021 766 1061 c 0,13,14
 792 1108 792 1108 792 1157 c 0,15,16
 792 1283 792 1283 726 1361 c 128,-1,17
 660 1439 660 1439 547 1439 c 0,18,19
 422 1439 422 1439 357 1410 c 0,20,21
 252 1364 252 1364 176 1277 c 1,22,-1
 155 1386 l 1,23,24
 255 1470 255 1470 333 1493 c 0,25,26
 423 1520 423 1520 537 1520 c 0,27,28
 676 1520 676 1520 788 1423 c 0,29,30
 899 1326 899 1326 899 1167 c 0,31,32
 899 1091 899 1091 863 1022 c 0,33,34
 829 958 829 958 737 868 c 2,35,-1
 649 782 l 2,36,37
 605 739 605 739 582 708 c 0,38,39
 563 682 563 682 555 657 c 0,40,41
 549 636 549 636 546 606 c 0,42,43
 546 576 546 576 543 524 c 2,44,-1
 543 401 l 1,4,-1
EndSplineSet
EndChar
StartChar: at
Encoding: 64 64 64
Width: 2048
Flags: W
Fore
772 537 m 0,0,1
 772 363 772 363 847 264 c 128,-1,2
 922 165 922 165 1053 165 c 0,3,4
 1182 165 1182 165 1257 265 c 0,5,6
 1331 364 1331 364 1331 537 c 0,7,8
 1331 707 1331 707 1255 807 c 0,9,10
 1179 908 1179 908 1051 908 c 128,-1,11
 923 908 923 908 847 808 c 0,12,13
 772 708 772 708 772 537 c 0,0,1
1332 238 m 1,14,15
 1277 161 1277 161 1205 124 c 0,16,17
 1134 88 1134 88 1039 88 c 0,18,19
 880 88 880 88 781 212 c 0,20,21
 681 337 681 337 681 537 c 128,-1,22
 681 737 681 737 781 862 c 128,-1,23
 881 987 881 987 1039 987 c 0,24,25
 1134 987 1134 987 1206 950 c 0,26,27
 1278 912 1278 912 1332 836 c 1,28,-1
 1332 967 l 1,29,-1
 1424 967 l 1,30,-1
 1424 191 l 1,31,32
 1613 215 1613 215 1696 330 c 0,33,34
 1782 448 1782 448 1782 653 c 0,35,36
 1782 772 1782 772 1745 877 c 0,37,38
 1712 973 1712 973 1636 1071 c 0,39,40
 1486 1260 1486 1260 1329 1316 c 128,-1,41
 1172 1372 1172 1372 1055 1372 c 0,42,43
 942 1372 942 1372 838 1336 c 0,44,45
 739 1301 739 1301 647 1228 c 0,46,47
 503 1115 503 1115 421 930 c 0,48,49
 340 746 340 746 340 530 c 0,50,51
 340 371 340 371 393 219 c 0,52,53
 445 71 445 71 546 -48 c 0,54,55
 642 -162 642 -162 769 -221 c 0,56,57
 895 -280 895 -280 1039 -280 c 0,58,59
 1167 -280 1167 -280 1292 -233 c 0,60,61
 1416 -186 1416 -186 1520 -97 c 1,62,-1
 1557 -177 l 1,63,64
 1444 -276 1444 -276 1310 -328 c 0,65,66
 1177 -380 1177 -380 1039 -380 c 0,67,68
 872 -380 872 -380 724 -314 c 0,69,70
 575 -247 575 -247 459 -121 c 0,71,72
 343 6 343 6 283 173 c 0,73,74
 222 339 222 339 222 531 c 0,75,76
 222 715 222 715 284 883 c 0,77,78
 352 1068 352 1068 459 1176 c 0,79,80
 611 1329 611 1329 729 1381 c 0,81,82
 882 1449 882 1449 1053 1449 c 0,83,84
 1245 1449 1245 1449 1402 1387 c 0,85,86
 1556 1325 1556 1325 1725 1115 c 0,87,88
 1799 1023 1799 1023 1840 906 c 0,89,90
 1879 793 1879 793 1879 673 c 0,91,92
 1879 391 1879 391 1738 246 c 0,93,94
 1595 99 1595 99 1332 111 c 1,95,-1
 1332 238 l 1,14,15
EndSplineSet
EndChar
StartChar: A
Encoding: 65 65 65
Width: 1401
Flags: W
AnchorPoint: "above" 700 1520 basechar 0
AnchorPoint: "below" 700 0 basechar 0
Fore
695 1392 m 1,0,-1
 375 552 l 1,1,-1
 1010 552 l 1,2,-1
 695 1392 l 1,0,-1
631 1493 m 1,3,-1
 762 1493 l 1,4,-1
 1333 0 l 1,5,-1
 1219 0 l 1,6,-1
 1041 469 l 1,7,-1
 344 469 l 1,8,-1
 167 0 l 1,9,-1
 61 0 l 1,10,-1
 631 1493 l 1,3,-1
EndSplineSet
KernsSLIFO: 288 -36 0 0 284 -36 0 0 7923 -139 0 0 561 -36 0 0 562 -159 0 0 563 -139 0 0 375 -139 0 0 7813 -83 0 0 7811 -83 0 0 7809 -83 0 0 373 -83 0 0 539 -36 0 0 355 -36 0 0 493 -36 0 0 491 -36 0 0 337 -36 0 0 335 -36 0 0 333 -36 0 0 281 -36 0 0 279 -36 0 0 277 -36 0 0 275 -36 0 0 454 -36 0 0 273 -36 0 0 267 -36 0 0 265 -36 0 0 7922 -159 0 0 374 -159 0 0 7812 -112 0 0 7810 -112 0 0 7808 -112 0 0 372 -112 0 0 538 -159 0 0 354 -159 0 0 558 -36 0 0 492 -36 0 0 490 -36 0 0 336 -36 0 0 334 -36 0 0 332 -36 0 0 266 -36 0 0 264 -36 0 0 260 57 0 0 258 57 0 0 256 57 0 0 357 -36 0 0 356 -159 0 0 283 -36 0 0 271 -36 0 0 269 -36 0 0 268 -36 0 0 263 -36 0 0 262 -36 0 0 286 -36 0 0 253 -139 0 0 221 -159 0 0 210 -36 0 0 212 -36 0 0 211 -36 0 0 193 57 0 0 194 57 0 0 8222 47 0 0 376 -159 0 0 255 -139 0 0 8221 -253 0 0 8220 -264 0 0 213 -36 0 0 195 57 0 0 192 57 0 0 171 -73 0 0 245 -36 0 0 246 -36 0 0 244 -36 0 0 242 -36 0 0 243 -36 0 0 235 -36 0 0 234 -36 0 0 232 -36 0 0 233 -36 0 0 231 -36 0 0 214 -36 0 0 199 -36 0 0 196 57 0 0 121 -139 0 0 119 -83 0 0 118 -120 0 0 116 -36 0 0 113 -36 0 0 111 -36 0 0 102 -73 0 0 101 -36 0 0 100 -36 0 0 99 -36 0 0 89 -159 0 0 87 -112 0 0 86 -131 0 0 84 -159 0 0 81 -36 0 0 79 -36 0 0 71 -36 0 0 67 -36 0 0 65 57 0 0 58 -36 0 0 46 -36 0 0 45 -45 0 0
EndChar
StartChar: B
Encoding: 66 66 66
Width: 1341
Flags: W
AnchorPoint: "above" 700 1520 basechar 0
AnchorPoint: "below" 700 0 basechar 0
Fore
352 744 m 1,0,-1
 352 81 l 1,1,-1
 727 81 l 2,2,3
 917 81 917 81 1009 163 c 0,4,5
 1101 244 1101 244 1101 413 c 0,6,7
 1101 583 1101 583 1009 663 c 0,8,9
 917 744 917 744 727 744 c 2,10,-1
 352 744 l 1,0,-1
352 1411 m 1,11,-1
 352 826 l 1,12,-1
 702 826 l 2,13,14
 874 826 874 826 958 898 c 128,-1,15
 1042 970 1042 970 1042 1120 c 0,16,17
 1042 1267 1042 1267 958 1338 c 0,18,19
 874 1411 874 1411 702 1411 c 2,20,-1
 352 1411 l 1,11,-1
252 1493 m 1,21,-1
 717 1493 l 2,22,23
 922 1493 922 1493 1033 1397 c 128,-1,24
 1144 1301 1144 1301 1144 1124 c 0,25,26
 1144 978 1144 978 1087 906 c 0,27,28
 1024 826 1024 826 935 797 c 1,29,30
 1064 763 1064 763 1129 672 c 0,31,32
 1202 570 1202 570 1202 418 c 0,33,34
 1202 218 1202 218 1081 109 c 128,-1,35
 960 0 960 0 737 0 c 2,36,-1
 252 0 l 1,37,-1
 252 1493 l 1,21,-1
EndSplineSet
KernsSLIFO: 558 -36 0 0 492 -36 0 0 490 -36 0 0 7922 -112 0 0 374 -112 0 0 7812 -73 0 0 7810 -73 0 0 7808 -73 0 0 372 -73 0 0 536 -36 0 0 348 -36 0 0 346 -36 0 0 336 -36 0 0 334 -36 0 0 332 -36 0 0 290 -36 0 0 288 -36 0 0 284 -36 0 0 266 -36 0 0 264 -36 0 0 268 -36 0 0 262 -36 0 0 350 -36 0 0 286 -36 0 0 221 -112 0 0 352 -36 0 0 210 -36 0 0 212 -36 0 0 211 -36 0 0 8222 -83 0 0 376 -112 0 0 8221 -112 0 0 8220 -112 0 0 213 -36 0 0 187 -36 0 0 171 -63 0 0 214 -36 0 0 199 -36 0 0 89 -112 0 0 87 -73 0 0 86 -63 0 0 83 -36 0 0 79 -36 0 0 71 -36 0 0 67 -36 0 0
EndChar
StartChar: C
Encoding: 67 67 67
Width: 1430
Flags: W
AnchorPoint: "above" 844 1520 basechar 0
AnchorPoint: "below" 844 0 basechar 0
Fore
1319 1369 m 1,0,-1
 1319 1254 l 1,1,2
 1217 1347 1217 1347 1102 1392 c 0,3,4
 986 1438 986 1438 856 1438 c 0,5,6
 574 1438 574 1438 425 1260 c 0,7,8
 275 1082 275 1082 275 745 c 128,-1,9
 275 408 275 408 425 229 c 0,10,11
 574 50 574 50 856 50 c 0,12,13
 986 50 986 50 1102 96 c 0,14,15
 1217 143 1217 143 1319 236 c 1,16,-1
 1319 115 l 1,17,18
 1213 43 1213 43 1094 7 c 0,19,20
 976 -29 976 -29 844 -29 c 0,21,22
 530 -29 530 -29 350 178 c 0,23,24
 170 386 170 386 170 745 c 0,25,26
 170 1105 170 1105 350 1312 c 0,27,28
 530 1520 530 1520 844 1520 c 0,29,30
 978 1520 978 1520 1096 1482 c 0,31,32
 1215 1445 1215 1445 1319 1369 c 1,0,-1
EndSplineSet
KernsSLIFO: 562 -36 0 0 7922 -36 0 0 374 -36 0 0 221 -36 0 0 376 -36 0 0 8221 38 0 0 187 -36 0 0 171 -36 0 0 89 -36 0 0
EndChar
StartChar: D
Encoding: 68 68 68
Width: 1577
Flags: W
AnchorPoint: "above" 748 1540 basechar 0
AnchorPoint: "below" 748 0 basechar 0
Fore
351 1408 m 1,0,-1
 351 81 l 1,1,-1
 647 81 l 2,2,3
 985 81 985 81 1142 241 c 0,4,5
 1300 401 1300 401 1300 746 c 0,6,7
 1300 1089 1300 1089 1142 1249 c 0,8,9
 985 1408 985 1408 647 1408 c 2,10,-1
 351 1408 l 1,0,-1
249 1493 m 1,11,-1
 616 1493 l 2,12,13
 1024 1493 1024 1493 1215 1312 c 0,14,15
 1406 1132 1406 1132 1406 748 c 0,16,17
 1406 362 1406 362 1214 181 c 128,-1,18
 1022 0 1022 0 616 0 c 2,19,-1
 249 0 l 1,20,-1
 249 1493 l 1,11,-1
EndSplineSet
KernsSLIFO: 7922 -112 0 0 562 -112 0 0 374 -112 0 0 260 -36 0 0 258 -36 0 0 256 -36 0 0 221 -112 0 0 193 -36 0 0 194 -36 0 0 8222 -188 0 0 376 -112 0 0 8221 -55 0 0 8220 -45 0 0 195 -36 0 0 192 -36 0 0 187 -36 0 0 171 -36 0 0 196 -36 0 0 89 -112 0 0 86 -36 0 0 65 -36 0 0
EndChar
StartChar: E
Encoding: 69 69 69
Width: 1294
Flags: W
AnchorPoint: "above" 670 1520 basechar 0
AnchorPoint: "below" 670 0 basechar 0
Fore
249 1493 m 1,0,-1
 1093 1493 l 1,1,-1
 1093 1410 l 1,2,-1
 351 1410 l 1,3,-1
 351 837 l 1,4,-1
 1062 837 l 1,5,-1
 1062 756 l 1,6,-1
 351 756 l 1,7,-1
 351 81 l 1,8,-1
 1111 81 l 1,9,-1
 1111 0 l 1,10,-1
 249 0 l 1,11,-1
 249 1493 l 1,0,-1
EndSplineSet
EndChar
StartChar: F
Encoding: 70 70 70
Width: 1178
Flags: W
AnchorPoint: "above" 670 1520 basechar 0
AnchorPoint: "below" 670 0 basechar 0
Fore
250 1493 m 1,0,-1
 1007 1493 l 1,1,-1
 1007 1410 l 1,2,-1
 351 1410 l 1,3,-1
 351 837 l 1,4,-1
 943 837 l 1,5,-1
 943 756 l 1,6,-1
 351 756 l 1,7,-1
 351 0 l 1,8,-1
 250 0 l 1,9,-1
 250 1493 l 1,0,-1
EndSplineSet
KernsSLIFO: 7923 -188 0 0 563 -188 0 0 375 -188 0 0 371 -112 0 0 369 -112 0 0 365 -112 0 0 363 -112 0 0 361 -112 0 0 343 -149 0 0 559 -73 0 0 493 -73 0 0 491 -73 0 0 337 -73 0 0 335 -73 0 0 333 -73 0 0 538 -36 0 0 307 -149 0 0 303 -149 0 0 281 -112 0 0 279 -112 0 0 277 -112 0 0 275 -112 0 0 261 -188 0 0 259 -188 0 0 257 -188 0 0 358 -36 0 0 354 -36 0 0 536 -36 0 0 348 -36 0 0 346 -36 0 0 260 -188 0 0 258 -188 0 0 256 -188 0 0 252 -112 0 0 229 -188 0 0 242 -73 0 0 244 -73 0 0 8222 -376 0 0 367 -112 0 0 245 -73 0 0 235 -112 0 0 249 -112 0 0 58 -159 0 0 224 -188 0 0 195 -188 0 0 234 -112 0 0 352 -36 0 0 341 -149 0 0 232 -112 0 0 196 -188 0 0 350 -36 0 0 193 -188 0 0 345 -149 0 0 251 -112 0 0 253 -188 0 0 227 -188 0 0 194 -188 0 0 65 -188 0 0 97 -188 0 0 228 -188 0 0 8220 -45 0 0 246 -73 0 0 250 -112 0 0 225 -188 0 0 46 -329 0 0 83 -36 0 0 84 -36 0 0 226 -188 0 0 233 -112 0 0 356 -36 0 0 283 -112 0 0 101 -112 0 0 105 -149 0 0 255 -188 0 0 111 -73 0 0 114 -149 0 0 117 -112 0 0 192 -188 0 0 121 -188 0 0 243 -73 0 0
EndChar
StartChar: G
Encoding: 71 71 71
Width: 1587
Flags: W
AnchorPoint: "above" 860 1520 basechar 0
AnchorPoint: "below" 860 0 basechar 0
Fore
1270 127 m 1,0,-1
 1270 650 l 1,1,-1
 889 650 l 1,2,-1
 889 732 l 1,3,-1
 1369 732 l 1,4,-1
 1369 79 l 1,5,6
 1262 26 1262 26 1134 0 c 0,7,8
 1006 -27 1006 -27 860 -29 c 0,9,10
 536 -29 536 -29 354 176 c 0,11,12
 171 380 171 380 171 745 c 0,13,14
 171 1111 171 1111 354 1316 c 0,15,16
 536 1520 536 1520 860 1520 c 0,17,18
 994 1520 994 1520 1113 1493 c 0,19,20
 1233 1464 1233 1464 1333 1408 c 1,21,-1
 1333 1311 l 1,22,23
 1232 1367 1232 1367 1117 1396 c 0,24,25
 1003 1424 1003 1424 877 1424 c 0,26,27
 576 1424 576 1424 425 1253 c 0,28,29
 274 1083 274 1083 274 745 c 0,30,31
 274 402 274 402 425 229 c 0,32,33
 576 55 576 55 877 55 c 0,34,35
 1000 55 1000 55 1097 72 c 0,36,37
 1193 90 1193 90 1270 127 c 1,0,-1
EndSplineSet
KernsSLIFO: 356 -73 0 0 221 -102 0 0 8222 -55 0 0 376 -102 0 0 8221 -45 0 0 8220 -45 0 0 187 -36 0 0 171 -36 0 0 89 -102 0 0 84 -73 0 0
EndChar
StartChar: H
Encoding: 72 72 72
Width: 1540
Flags: W
AnchorPoint: "above" 770 1520 basechar 0
AnchorPoint: "below" 770 0 basechar 0
Fore
249 1493 m 1,0,-1
 350 1493 l 1,1,-1
 350 837 l 1,2,-1
 1185 837 l 1,3,-1
 1185 1493 l 1,4,-1
 1286 1493 l 1,5,-1
 1286 0 l 1,6,-1
 1185 0 l 1,7,-1
 1185 756 l 1,8,-1
 350 756 l 1,9,-1
 350 0 l 1,10,-1
 249 0 l 1,11,-1
 249 1493 l 1,0,-1
EndSplineSet
KernsSLIFO: 8222 -73 0 0 8221 -63 0 0 8220 -73 0 0 46 -36 0 0
EndChar
StartChar: I
Encoding: 73 73 73
Width: 604
Flags: W
AnchorPoint: "above" 303 1520 basechar 0
AnchorPoint: "below" 303 0 basechar 0
Fore
248 1493 m 1,0,-1
 352 1493 l 1,1,-1
 352 0 l 1,2,-1
 248 0 l 1,3,-1
 248 1493 l 1,0,-1
EndSplineSet
EndChar
StartChar: J
Encoding: 74 74 74
Width: 604
Flags: W
AnchorPoint: "above" 351 1520 basechar 0
AnchorPoint: "below" 351 -430 basechar 0
Fore
250 1493 m 1,0,-1
 350 1493 l 1,1,-1
 350 104 l 2,2,3
 350 -142 350 -142 284 -253 c 128,-1,4
 218 -364 218 -364 72 -364 c 2,5,-1
 11 -364 l 1,6,-1
 11 -281 l 1,7,-1
 60 -281 l 2,8,9
 164 -281 164 -281 207 -197 c 128,-1,10
 250 -113 250 -113 250 104 c 2,11,-1
 250 1493 l 1,0,-1
EndSplineSet
KernsSLIFO: 193 -36 0 0 194 -36 0 0 8222 -112 0 0 8221 -63 0 0 8220 -73 0 0 195 -36 0 0 192 -36 0 0 187 -36 0 0 171 -36 0 0 196 -36 0 0 65 -36 0 0 45 -73 0 0
EndChar
StartChar: K
Encoding: 75 75 75
Width: 1343
Flags: W
AnchorPoint: "above" 670 1520 basechar 0
AnchorPoint: "below" 670 0 basechar 0
Fore
354 1493 m 1,0,-1
 453 1493 l 1,1,-1
 453 850 l 1,2,-1
 1137 1493 l 1,3,-1
 1270 1493 l 1,4,-1
 528 794 l 1,5,-1
 1319 0 l 1,6,-1
 1188 0 l 1,7,-1
 453 737 l 1,8,-1
 453 0 l 1,9,-1
 354 0 l 1,10,-1
 354 1493 l 1,0,-1
EndSplineSet
KernsSLIFO: 367 -102 0 0 366 -55 0 0 356 -159 0 0 283 -102 0 0 268 -112 0 0 262 -112 0 0 253 -149 0 0 221 -73 0 0 217 -55 0 0 219 -55 0 0 218 -55 0 0 210 -112 0 0 212 -112 0 0 211 -112 0 0 193 -36 0 0 194 -36 0 0 376 -73 0 0 255 -149 0 0 8221 -63 0 0 8220 -63 0 0 213 -112 0 0 195 -36 0 0 192 -36 0 0 171 -131 0 0 252 -102 0 0 251 -102 0 0 249 -102 0 0 250 -102 0 0 245 -102 0 0 246 -102 0 0 244 -102 0 0 242 -102 0 0 243 -102 0 0 235 -102 0 0 234 -102 0 0 232 -102 0 0 233 -102 0 0 229 -36 0 0 227 -36 0 0 228 -36 0 0 226 -36 0 0 224 -36 0 0 225 -36 0 0 220 -55 0 0 214 -112 0 0 199 -112 0 0 196 -36 0 0 121 -149 0 0 117 -102 0 0 111 -102 0 0 101 -102 0 0 97 -36 0 0 89 -73 0 0 87 -73 0 0 85 -55 0 0 84 -159 0 0 79 -112 0 0 67 -112 0 0 65 -36 0 0 45 -215 0 0
EndChar
StartChar: L
Encoding: 76 76 76
Width: 1141
Flags: W
AnchorPoint: "above" 298 1520 basechar 0
AnchorPoint: "below" 665 0 basechar 0
Fore
250 1493 m 1,0,-1
 350 1493 l 1,1,-1
 350 82 l 1,2,-1
 1077 82 l 1,3,-1
 1077 0 l 1,4,-1
 250 0 l 1,5,-1
 250 1493 l 1,0,-1
EndSplineSet
KernsSLIFO: 367 -36 0 0 366 -102 0 0 356 -282 0 0 283 -36 0 0 253 -188 0 0 221 -272 0 0 217 -102 0 0 219 -102 0 0 218 -102 0 0 210 -73 0 0 212 -73 0 0 211 -73 0 0 193 47 0 0 194 47 0 0 376 -272 0 0 255 -188 0 0 8221 -538 0 0 8220 -415 0 0 213 -73 0 0 195 47 0 0 192 47 0 0 252 -36 0 0 251 -36 0 0 249 -36 0 0 250 -36 0 0 245 -36 0 0 246 -36 0 0 244 -36 0 0 242 -36 0 0 243 -36 0 0 235 -36 0 0 234 -36 0 0 232 -36 0 0 233 -36 0 0 220 -102 0 0 214 -73 0 0 196 47 0 0 121 -188 0 0 117 -36 0 0 111 -36 0 0 101 -36 0 0 89 -272 0 0 87 -188 0 0 86 -225 0 0 85 -102 0 0 84 -282 0 0 79 -73 0 0 65 47 0 0 45 -36 0 0
EndChar
StartChar: M
Encoding: 77 77 77
Width: 1767
Flags: W
AnchorPoint: "above" 883 1520 basechar 0
AnchorPoint: "below" 883 0 basechar 0
Fore
329 1493 m 1,0,-1
 468 1493 l 1,1,-1
 883 386 l 1,2,-1
 1300 1493 l 1,3,-1
 1438 1493 l 1,4,-1
 1438 0 l 1,5,-1
 1336 0 l 1,6,-1
 1336 1311 l 1,7,-1
 952 287 l 1,8,-1
 814 287 l 1,9,-1
 431 1311 l 1,10,-1
 431 0 l 1,11,-1
 329 0 l 1,12,-1
 329 1493 l 1,0,-1
EndSplineSet
EndChar
StartChar: N
Encoding: 78 78 78
Width: 1532
Flags: W
AnchorPoint: "above" 757 1506 basechar 0
AnchorPoint: "below" 757 0 basechar 0
Fore
248 1493 m 1,0,-1
 396 1493 l 1,1,-1
 1120 128 l 1,2,-1
 1120 1493 l 1,3,-1
 1220 1493 l 1,4,-1
 1220 0 l 1,5,-1
 1078 0 l 1,6,-1
 350 1374 l 1,7,-1
 350 0 l 1,8,-1
 248 0 l 1,9,-1
 248 1493 l 1,0,-1
EndSplineSet
EndChar
StartChar: O
Encoding: 79 79 79
Width: 1612
Flags: W
AnchorPoint: "above" 807 1520 basechar 0
AnchorPoint: "below" 807 0 basechar 0
Fore
807 1442 m 128,-1,1
 562 1442 562 1442 417 1255 c 0,2,3
 273 1068 273 1068 273 745 c 0,4,5
 273 424 273 424 417 237 c 0,6,7
 562 50 562 50 807 50 c 128,-1,8
 1052 50 1052 50 1196 237 c 0,9,10
 1339 424 1339 424 1339 745 c 0,11,12
 1339 1068 1339 1068 1196 1255 c 0,13,0
 1052 1442 1052 1442 807 1442 c 128,-1,1
807 1520 m 0,14,15
 1097 1520 1097 1520 1271 1310 c 0,16,17
 1445 1099 1445 1099 1445 745 c 0,18,19
 1445 392 1445 392 1271 182 c 0,20,21
 1097 -29 1097 -29 807 -29 c 0,22,23
 516 -29 516 -29 341 181 c 0,24,25
 167 391 167 391 167 745 c 128,-1,26
 167 1099 167 1099 341 1310 c 0,27,28
 516 1520 516 1520 807 1520 c 0,14,15
EndSplineSet
KernsSLIFO: 221 -112 0 0 193 -36 0 0 194 -36 0 0 8222 -188 0 0 376 -112 0 0 8221 -36 0 0 8220 -45 0 0 195 -36 0 0 192 -36 0 0 171 -36 0 0 196 -36 0 0 89 -112 0 0 88 -131 0 0 86 -36 0 0 65 -36 0 0 58 -36 0 0 46 -83 0 0 45 57 0 0
EndChar
StartChar: P
Encoding: 80 80 80
Width: 1235
Flags: W
AnchorPoint: "above" 670 1520 basechar 0
AnchorPoint: "below" 670 0 basechar 0
Fore
350 1410 m 1,0,-1
 350 724 l 1,1,-1
 657 724 l 2,2,3
 824 724 824 724 915 813 c 0,4,5
 1007 902 1007 902 1007 1068 c 0,6,7
 1007 1231 1007 1231 915 1321 c 0,8,9
 824 1410 824 1410 657 1410 c 2,10,-1
 350 1410 l 1,0,-1
250 1493 m 1,11,-1
 657 1493 l 2,12,13
 880 1493 880 1493 995 1385 c 0,14,15
 1109 1277 1109 1277 1109 1068 c 0,16,17
 1109 858 1109 858 995 750 c 0,18,19
 880 642 880 642 657 642 c 2,20,-1
 350 642 l 1,21,-1
 350 0 l 1,22,-1
 250 0 l 1,23,-1
 250 1493 l 1,11,-1
EndSplineSet
KernsSLIFO: 252 -36 0 0 229 -92 0 0 242 -73 0 0 45 -45 0 0 8222 -329 0 0 367 -36 0 0 245 -73 0 0 235 -73 0 0 226 -92 0 0 249 -36 0 0 221 -45 0 0 224 -92 0 0 195 -131 0 0 234 -73 0 0 341 -36 0 0 8221 38 0 0 232 -73 0 0 196 -131 0 0 241 -36 0 0 193 -131 0 0 345 -36 0 0 233 -73 0 0 251 -36 0 0 227 -92 0 0 194 -131 0 0 244 -73 0 0 353 -36 0 0 65 -131 0 0 97 -92 0 0 228 -92 0 0 8220 38 0 0 246 -73 0 0 250 -36 0 0 351 -36 0 0 376 -45 0 0 225 -92 0 0 46 -319 0 0 89 -45 0 0 101 -73 0 0 283 -73 0 0 171 -36 0 0 105 -45 0 0 111 -73 0 0 110 -36 0 0 115 -36 0 0 114 -36 0 0 117 -36 0 0 192 -131 0 0 328 -36 0 0 243 -73 0 0
EndChar
StartChar: Q
Encoding: 81 81 81
Width: 1612
Flags: W
AnchorPoint: "above" 807 1520 basechar 0
AnchorPoint: "below" 807 0 basechar 0
Fore
807 1439 m 128,-1,1
 562 1439 562 1439 417 1252 c 0,2,3
 273 1066 273 1066 273 744 c 0,4,5
 273 423 273 423 417 237 c 0,6,7
 562 50 562 50 807 50 c 128,-1,8
 1052 50 1052 50 1196 237 c 0,9,10
 1339 423 1339 423 1339 744 c 0,11,12
 1339 1066 1339 1066 1196 1252 c 0,13,0
 1052 1439 1052 1439 807 1439 c 128,-1,1
1043 11 m 1,14,-1
 1297 -264 l 1,15,-1
 1171 -264 l 1,16,-1
 944 -18 l 1,17,18
 902 -26 902 -26 875 -28 c 0,19,20
 841 -28 841 -28 807 -29 c 0,21,22
 516 -29 516 -29 341 182 c 0,23,24
 167 392 167 392 167 745 c 0,25,26
 167 1099 167 1099 341 1310 c 0,27,28
 516 1520 516 1520 807 1520 c 0,29,30
 1097 1520 1097 1520 1271 1310 c 0,31,32
 1445 1099 1445 1099 1445 745 c 0,33,34
 1445 491 1445 491 1349 300 c 0,35,36
 1244 92 1244 92 1043 11 c 1,14,-1
EndSplineSet
KernsSLIFO: 8222 -131 0 0 8221 -36 0 0 8220 -45 0 0 45 57 0 0
EndChar
StartChar: R
Encoding: 82 82 82
Width: 1423
Flags: W
AnchorPoint: "above" 637 1506 basechar 0
AnchorPoint: "below" 637 0 basechar 0
Fore
867 700 m 1,0,1
 929 678 929 678 987 606 c 0,2,3
 1028 554 1028 554 1104 408 c 2,4,-1
 1313 0 l 1,5,-1
 1206 0 l 1,6,-1
 993 410 l 2,7,8
 910 571 910 571 834 623 c 0,9,10
 756 675 756 675 623 675 c 2,11,-1
 352 675 l 1,12,-1
 352 0 l 1,13,-1
 252 0 l 1,14,-1
 252 1493 l 1,15,-1
 657 1493 l 2,16,17
 886 1493 886 1493 999 1386 c 128,-1,18
 1112 1279 1112 1279 1112 1063 c 0,19,20
 1112 924 1112 924 1053 829 c 0,21,22
 997 736 997 736 867 700 c 1,0,1
352 1411 m 1,23,-1
 352 758 l 1,24,-1
 682 758 l 2,25,26
 842 758 842 758 924 841 c 128,-1,27
 1006 924 1006 924 1006 1086 c 0,28,29
 1006 1247 1006 1247 924 1329 c 128,-1,30
 842 1411 842 1411 682 1411 c 2,31,-1
 352 1411 l 1,23,-1
EndSplineSet
KernsSLIFO: 367 -92 0 0 356 -149 0 0 283 -92 0 0 268 -102 0 0 262 -102 0 0 253 -112 0 0 221 -131 0 0 193 -83 0 0 194 -83 0 0 8222 -36 0 0 376 -131 0 0 255 -112 0 0 8221 -131 0 0 8220 -149 0 0 195 -83 0 0 192 -83 0 0 187 -36 0 0 171 -112 0 0 252 -92 0 0 251 -92 0 0 249 -92 0 0 250 -92 0 0 245 -92 0 0 246 -92 0 0 244 -92 0 0 242 -92 0 0 243 -92 0 0 235 -92 0 0 234 -92 0 0 232 -92 0 0 233 -92 0 0 229 -45 0 0 227 -45 0 0 228 -45 0 0 226 -45 0 0 224 -45 0 0 225 -45 0 0 199 -102 0 0 196 -83 0 0 121 -112 0 0 117 -92 0 0 111 -92 0 0 101 -92 0 0 97 -45 0 0 89 -131 0 0 87 -83 0 0 86 -112 0 0 84 -149 0 0 67 -102 0 0 65 -83 0 0 58 -63 0 0 46 -73 0 0 45 -83 0 0
EndChar
StartChar: S
Encoding: 83 83 83
Width: 1300
Flags: W
AnchorPoint: "above" 659 1520 basechar 0
AnchorPoint: "below" 659 0 basechar 0
Fore
670 -29 m 0,0,1
 387 -29 387 -29 186 112 c 1,2,-1
 186 210 l 1,3,4
 444 53 444 53 614 53 c 0,5,6
 797 53 797 53 918 134 c 0,7,8
 1032 210 1032 210 1032 401 c 0,9,10
 1032 513 1032 513 962 577 c 0,11,12
 862 669 862 669 700 709 c 2,13,-1
 580 738 l 2,14,15
 434 774 434 774 335 836 c 0,16,17
 182 932 182 932 182 1098 c 0,18,19
 182 1305 182 1305 307 1416 c 0,20,21
 423 1519 423 1519 659 1520 c 0,22,23
 795 1520 795 1520 872 1496 c 0,24,25
 1062 1434 1062 1434 1084 1418 c 1,26,-1
 1084 1324 l 1,27,28
 986 1373 986 1373 867 1411 c 0,29,30
 801 1432 801 1432 670 1438 c 0,31,32
 494 1438 494 1438 384 1360 c 0,33,34
 284 1283 284 1283 284 1106 c 0,35,36
 284 995 284 995 360 930 c 0,37,38
 443 860 443 860 604 819 c 2,39,-1
 723 788 l 2,40,41
 879 749 879 749 970 688 c 0,42,43
 1133 577 1133 577 1133 409 c 0,44,45
 1133 166 1133 166 990 72 c 0,46,47
 834 -29 834 -29 670 -29 c 0,0,1
EndSplineSet
KernsSLIFO: 193 38 0 0 194 38 0 0 195 38 0 0 192 38 0 0 196 38 0 0 65 38 0 0
EndChar
StartChar: T
Encoding: 84 84 84
Width: 1251
Flags: W
AnchorPoint: "above" 627 1506 basechar 0
AnchorPoint: "below" 627 0 basechar 0
Fore
45 1493 m 1,0,-1
 1206 1493 l 1,1,-1
 1206 1411 l 1,2,-1
 676 1411 l 1,3,-1
 676 0 l 1,4,-1
 575 0 l 1,5,-1
 575 1411 l 1,6,-1
 45 1411 l 1,7,-1
 45 1493 l 1,0,-1
EndSplineSet
KernsSLIFO: 252 -311 0 0 229 -339 0 0 242 -348 0 0 45 -188 0 0 8222 -264 0 0 268 -120 0 0 245 -348 0 0 235 -348 0 0 249 -311 0 0 58 -225 0 0 224 -339 0 0 195 -159 0 0 234 -348 0 0 231 -348 0 0 341 -301 0 0 8221 -45 0 0 232 -348 0 0 196 -159 0 0 262 -120 0 0 193 -159 0 0 269 -348 0 0 345 -301 0 0 233 -348 0 0 251 -311 0 0 253 -319 0 0 227 -339 0 0 194 -159 0 0 367 -311 0 0 244 -348 0 0 353 -339 0 0 65 -159 0 0 283 -348 0 0 67 -120 0 0 351 -339 0 0 228 -339 0 0 119 -339 0 0 246 -348 0 0 250 -311 0 0 263 -348 0 0 225 -339 0 0 46 -243 0 0 187 -112 0 0 84 -36 0 0 226 -339 0 0 101 -348 0 0 356 -36 0 0 97 -339 0 0 99 -348 0 0 171 -188 0 0 105 -63 0 0 255 -319 0 0 111 -348 0 0 115 -339 0 0 114 -301 0 0 117 -311 0 0 192 -159 0 0 121 -319 0 0 199 -120 0 0 243 -348 0 0
EndChar
StartChar: U
Encoding: 85 85 85
Width: 1499
Flags: W
AnchorPoint: "above" 750 1520 basechar 0
AnchorPoint: "below" 750 0 basechar 0
Fore
229 1493 m 1,0,-1
 329 1493 l 1,1,-1
 329 586 l 2,2,3
 329 302 329 302 429 177 c 0,4,5
 528 53 528 53 750 53 c 0,6,7
 971 53 971 53 1070 177 c 0,8,9
 1170 302 1170 302 1170 586 c 2,10,-1
 1170 1493 l 1,11,-1
 1270 1493 l 1,12,-1
 1270 561 l 2,13,14
 1270 269 1270 269 1138 120 c 0,15,16
 1007 -29 1007 -29 750 -29 c 0,17,18
 492 -29 492 -29 361 120 c 0,19,20
 229 269 229 269 229 561 c 2,21,-1
 229 1493 l 1,0,-1
EndSplineSet
KernsSLIFO: 381 -36 0 0 90 -36 0 0
EndChar
StartChar: V
Encoding: 86 86 86
Width: 1401
Flags: W
AnchorPoint: "above" 700 1520 basechar 0
AnchorPoint: "below" 700 0 basechar 0
Fore
632 0 m 1,0,-1
 62 1493 l 1,1,-1
 176 1493 l 1,2,-1
 700 100 l 1,3,-1
 1228 1493 l 1,4,-1
 1333 1493 l 1,5,-1
 764 0 l 1,6,-1
 632 0 l 1,0,-1
EndSplineSet
KernsSLIFO: 367 -139 0 0 283 -159 0 0 253 -55 0 0 210 -36 0 0 212 -36 0 0 211 -36 0 0 193 -131 0 0 194 -131 0 0 8222 -282 0 0 255 -55 0 0 213 -36 0 0 195 -131 0 0 192 -131 0 0 187 -112 0 0 171 -178 0 0 252 -139 0 0 251 -139 0 0 249 -139 0 0 250 -139 0 0 245 -159 0 0 246 -159 0 0 244 -159 0 0 242 -159 0 0 243 -159 0 0 235 -159 0 0 234 -159 0 0 232 -159 0 0 233 -159 0 0 229 -159 0 0 227 -159 0 0 228 -159 0 0 226 -159 0 0 224 -159 0 0 225 -159 0 0 214 -36 0 0 196 -131 0 0 121 -55 0 0 117 -139 0 0 111 -159 0 0 105 -45 0 0 101 -159 0 0 97 -159 0 0 79 -36 0 0 65 -131 0 0 58 -167 0 0 46 -264 0 0 45 -120 0 0
EndChar
StartChar: W
Encoding: 87 87 87
Width: 2025
Flags: W
AnchorPoint: "above" 1013 1527 basechar 0
AnchorPoint: "below" 1013 0 basechar 0
Fore
142 1493 m 1,0,-1
 245 1493 l 1,1,-1
 586 118 l 1,2,-1
 926 1493 l 1,3,-1
 1052 1493 l 1,4,-1
 1390 126 l 1,5,-1
 1730 1493 l 1,6,-1
 1833 1493 l 1,7,-1
 1462 0 l 1,8,-1
 1319 0 l 1,9,-1
 989 1330 l 1,10,-1
 660 0 l 1,11,-1
 512 0 l 1,12,-1
 142 1493 l 1,0,-1
EndSplineSet
KernsSLIFO: 252 -73 0 0 229 -131 0 0 242 -120 0 0 45 -83 0 0 8222 -264 0 0 367 -73 0 0 245 -120 0 0 235 -120 0 0 249 -73 0 0 58 -120 0 0 224 -131 0 0 195 -112 0 0 234 -120 0 0 341 -92 0 0 232 -120 0 0 196 -112 0 0 193 -112 0 0 345 -92 0 0 233 -120 0 0 251 -73 0 0 253 -36 0 0 227 -131 0 0 194 -112 0 0 244 -120 0 0 65 -112 0 0 97 -131 0 0 187 -36 0 0 228 -131 0 0 8220 -36 0 0 246 -120 0 0 250 -73 0 0 225 -131 0 0 46 -235 0 0 226 -131 0 0 101 -120 0 0 283 -120 0 0 171 -112 0 0 105 -45 0 0 255 -36 0 0 111 -120 0 0 114 -92 0 0 117 -73 0 0 192 -112 0 0 121 -36 0 0 243 -120 0 0
EndChar
StartChar: X
Encoding: 88 88 88
Width: 1403
Flags: W
AnchorPoint: "above" 717 1520 basechar 0
AnchorPoint: "below" 717 0 basechar 0
Fore
180 1493 m 1,0,-1
 294 1493 l 1,1,-1
 712 866 l 1,2,-1
 1132 1493 l 1,3,-1
 1248 1493 l 1,4,-1
 769 781 l 1,5,-1
 1288 0 l 1,6,-1
 1173 0 l 1,7,-1
 705 702 l 1,8,-1
 235 0 l 1,9,-1
 120 0 l 1,10,-1
 648 789 l 1,11,-1
 180 1493 l 1,0,-1
EndSplineSet
KernsSLIFO: 356 -36 0 0 283 -92 0 0 268 -149 0 0 262 -149 0 0 210 -131 0 0 212 -131 0 0 211 -131 0 0 8222 -45 0 0 8221 -83 0 0 8220 -159 0 0 213 -131 0 0 171 -112 0 0 235 -92 0 0 234 -92 0 0 232 -92 0 0 233 -92 0 0 214 -131 0 0 199 -149 0 0 101 -92 0 0 84 -36 0 0 79 -131 0 0 67 -149 0 0 45 -102 0 0
EndChar
StartChar: Y
Encoding: 89 89 89
Width: 1251
Flags: W
AnchorPoint: "above" 626 1527 basechar 0
AnchorPoint: "below" 626 0 basechar 0
Fore
46 1493 m 1,0,-1
 162 1493 l 1,1,-1
 627 805 l 1,2,-1
 1089 1493 l 1,3,-1
 1203 1493 l 1,4,-1
 675 711 l 1,5,-1
 675 0 l 1,6,-1
 574 0 l 1,7,-1
 574 711 l 1,8,-1
 46 1493 l 1,0,-1
EndSplineSet
KernsSLIFO: 367 -235 0 0 283 -272 0 0 268 -112 0 0 262 -112 0 0 210 -112 0 0 212 -112 0 0 211 -112 0 0 193 -159 0 0 194 -159 0 0 8222 -264 0 0 8221 -36 0 0 8220 -112 0 0 213 -112 0 0 195 -159 0 0 192 -159 0 0 187 -149 0 0 171 -225 0 0 252 -235 0 0 251 -235 0 0 249 -235 0 0 250 -235 0 0 245 -272 0 0 246 -272 0 0 244 -272 0 0 242 -272 0 0 243 -272 0 0 235 -272 0 0 234 -272 0 0 232 -272 0 0 233 -272 0 0 229 -282 0 0 227 -282 0 0 228 -282 0 0 226 -282 0 0 224 -282 0 0 225 -282 0 0 214 -112 0 0 199 -112 0 0 196 -159 0 0 117 -235 0 0 111 -272 0 0 105 -73 0 0 101 -272 0 0 97 -282 0 0 79 -112 0 0 67 -112 0 0 65 -159 0 0 58 -272 0 0 46 -415 0 0 45 -243 0 0
EndChar
StartChar: Z
Encoding: 90 90 90
Width: 1403
Flags: W
AnchorPoint: "above" 702 1520 basechar 0
AnchorPoint: "below" 702 0 basechar 0
Fore
115 1493 m 1,0,-1
 1288 1493 l 1,1,-1
 1288 1412 l 1,2,-1
 212 82 l 1,3,-1
 1311 82 l 1,4,-1
 1311 0 l 1,5,-1
 92 0 l 1,6,-1
 92 81 l 1,7,-1
 1166 1410 l 1,8,-1
 115 1410 l 1,9,-1
 115 1493 l 1,0,-1
EndSplineSet
KernsSLIFO: 8222 -36 0 0 8221 -36 0 0 8220 -36 0 0 45 -36 0 0
EndChar
StartChar: bracketleft
Encoding: 91 91 91
Width: 799
Flags: W
Fore
232 1556 m 1,0,-1
 573 1556 l 1,1,-1
 573 1452 l 1,2,-1
 332 1452 l 1,3,-1
 332 -186 l 1,4,-1
 573 -186 l 1,5,-1
 573 -270 l 1,6,-1
 232 -270 l 1,7,-1
 232 1556 l 1,0,-1
EndSplineSet
EndChar
StartChar: backslash
Encoding: 92 92 92
Width: 690
Flags: W
Fore
138 1493 m 1,0,-1
 658 -190 l 1,1,-1
 552 -190 l 1,2,-1
 32 1493 l 1,3,-1
 138 1493 l 1,0,-1
EndSplineSet
EndChar
StartChar: bracketright
Encoding: 93 93 93
Width: 799
Flags: W
Fore
573 1556 m 1,0,-1
 573 -270 l 1,1,-1
 232 -270 l 1,2,-1
 232 -186 l 1,3,-1
 473 -186 l 1,4,-1
 473 1452 l 1,5,-1
 232 1452 l 1,6,-1
 232 1556 l 1,7,-1
 573 1556 l 1,0,-1
EndSplineSet
EndChar
StartChar: asciicircum
Encoding: 94 94 94
Width: 1716
Flags: W
Fore
917 1493 m 1,0,-1
 1460 936 l 1,1,-1
 1327 936 l 1,2,-1
 858 1367 l 1,3,-1
 391 936 l 1,4,-1
 257 936 l 1,5,-1
 800 1493 l 1,6,-1
 917 1493 l 1,0,-1
EndSplineSet
EndChar
StartChar: underscore
Encoding: 95 95 95
Width: 1024
Flags: W
Fore
1044 -405 m 1,0,-1
 1044 -483 l 1,1,-1
 -20 -483 l 1,2,-1
 -20 -405 l 1,3,-1
 1044 -405 l 1,0,-1
EndSplineSet
EndChar
StartChar: grave
Encoding: 96 96 96
Width: 1024
Flags: W
Fore
330 1638 m 1,0,-1
 612 1264 l 1,1,-1
 530 1264 l 1,2,-1
 204 1638 l 1,3,-1
 330 1638 l 1,0,-1
EndSplineSet
EndChar
StartChar: a
Encoding: 97 97 97
Width: 1255
Flags: W
AnchorPoint: "above" 596 1147 basechar 0
AnchorPoint: "below" 596 0 basechar 0
Fore
680 632 m 2,0,1
 458 632 458 632 360 553 c 128,-1,2
 262 474 262 474 262 322 c 0,3,4
 262 174 262 174 343 112 c 128,-1,5
 424 50 424 50 535 50 c 0,6,7
 745 50 745 50 837 228 c 0,8,9
 930 406 930 406 930 563 c 2,10,-1
 930 632 l 1,11,-1
 680 632 l 2,0,1
1023 639 m 2,12,-1
 1023 0 l 1,13,-1
 932 0 l 1,14,-1
 932 304 l 1,15,16
 855 81 855 81 728 20 c 0,17,18
 627 -29 627 -29 527 -29 c 0,19,20
 360 -29 360 -29 264 60 c 0,21,22
 168 150 168 150 168 324 c 128,-1,23
 168 498 168 498 293 602 c 0,24,25
 418 707 418 707 702 707 c 2,26,-1
 930 707 l 1,27,-1
 930 725 l 2,28,29
 930 874 930 874 845 970 c 0,30,31
 761 1066 761 1066 567 1066 c 0,32,33
 471 1066 471 1066 371 1030 c 0,34,35
 307 1007 307 1007 205 937 c 1,36,-1
 205 1036 l 1,37,38
 294 1091 294 1091 371 1114 c 0,39,40
 483 1147 483 1147 586 1147 c 0,41,42
 784 1147 784 1147 912 1027 c 0,43,44
 1023 924 1023 924 1023 639 c 2,12,-1
EndSplineSet
EndChar
StartChar: b
Encoding: 98 98 98
Width: 1300
Flags: W
AnchorPoint: "above" 278 1520 basechar 0
AnchorPoint: "below" 695 0 basechar 0
Fore
324 864 m 1,0,1
 387 1010 387 1010 461 1064 c 0,2,3
 574 1147 574 1147 674 1147 c 0,4,5
 873 1147 873 1147 1005 985 c 128,-1,6
 1137 823 1137 823 1137 559 c 152,-1,7
 1137 295 1137 295 1005 133 c 128,-1,8
 873 -29 873 -29 674 -29 c 0,9,10
 574 -29 574 -29 461 54 c 0,11,12
 387 108 387 108 324 254 c 1,13,-1
 324 0 l 1,14,-1
 234 0 l 1,15,-1
 234 1556 l 1,16,-1
 324 1556 l 1,17,-1
 324 864 l 1,0,1
325 559 m 152,-1,19
 325 286 325 286 440 169 c 0,20,21
 556 52 556 52 681 52 c 24,22,23
 809 52 809 52 924 169 c 0,24,25
 1040 286 1040 286 1040 559 c 152,-1,26
 1040 832 1040 832 924 949 c 0,27,28
 809 1066 809 1066 681 1066 c 24,29,30
 556 1066 556 1066 440 949 c 0,31,18
 325 832 325 832 325 559 c 152,-1,19
EndSplineSet
EndChar
StartChar: c
Encoding: 99 99 99
Width: 1126
Flags: W
AnchorPoint: "above" 678 1147 basechar 0
AnchorPoint: "below" 678 0 basechar 0
Fore
140 559 m 152,-1,1
 140 880 140 880 285 1014 c 0,2,3
 430 1147 430 1147 676 1147 c 0,4,5
 756 1147 756 1147 846 1124 c 0,6,7
 936 1102 936 1102 999 1066 c 1,8,-1
 999 968 l 1,9,10
 916 1019 916 1019 862 1037 c 0,11,12
 769 1066 769 1066 684 1066 c 0,13,14
 442 1066 442 1066 337 942 c 128,-1,15
 232 818 232 818 232 559 c 24,16,17
 232 298 232 298 337 174 c 128,-1,18
 442 50 442 50 684 50 c 24,19,20
 764 50 764 50 842 72 c 0,21,22
 921 93 921 93 999 136 c 1,23,-1
 999 43 l 1,24,25
 922 7 922 7 840 -11 c 0,26,27
 757 -29 757 -29 676 -29 c 24,28,29
 430 -29 430 -29 285 104 c 0,30,0
 140 238 140 238 140 559 c 152,-1,1
EndSplineSet
EndChar
StartChar: d
Encoding: 100 100 100
Width: 1300
Flags: W
AnchorPoint: "above" 1093 1520 basechar 0
AnchorPoint: "below" 676 0 basechar 0
Fore
1047 864 m 1,0,-1
 1047 1556 l 1,1,-1
 1137 1556 l 1,2,-1
 1137 0 l 1,3,-1
 1047 0 l 1,4,-1
 1047 254 l 1,5,6
 984 108 984 108 910 54 c 0,7,8
 797 -29 797 -29 697 -29 c 0,9,10
 498 -29 498 -29 366 133 c 128,-1,11
 234 295 234 295 234 559 c 152,-1,12
 234 823 234 823 366 985 c 128,-1,13
 498 1147 498 1147 697 1147 c 0,14,15
 797 1147 797 1147 910 1064 c 0,16,17
 984 1010 984 1010 1047 864 c 1,0,-1
1046 559 m 152,-1,19
 1046 832 1046 832 931 949 c 0,20,21
 815 1066 815 1066 690 1066 c 24,22,23
 562 1066 562 1066 447 949 c 0,24,25
 331 832 331 832 331 559 c 152,-1,26
 331 286 331 286 447 169 c 0,27,28
 562 52 562 52 690 52 c 24,29,30
 815 52 815 52 931 169 c 0,31,18
 1046 286 1046 286 1046 559 c 152,-1,19
EndSplineSet
EndChar
StartChar: e
Encoding: 101 101 101
Width: 1260
Flags: W
AnchorPoint: "above" 653 1147 basechar 0
AnchorPoint: "below" 660 0 basechar 0
Fore
1105 606 m 1,0,-1
 1105 548 l 1,1,-1
 255 548 l 1,2,3
 255 278 255 278 360 170 c 0,4,5
 476 50 476 50 705 50 c 0,6,7
 765 50 765 50 864 76 c 0,8,9
 964 102 964 102 1062 154 c 1,10,-1
 1062 57 l 1,11,12
 963 15 963 15 859 -7 c 128,-1,13
 755 -29 755 -29 694 -29 c 0,14,15
 435 -29 435 -29 304 111 c 0,16,17
 162 260 162 260 162 548 c 0,18,19
 162 847 162 847 292 994 c 0,20,21
 425 1147 425 1147 662 1147 c 0,22,23
 882 1147 882 1147 994 1002 c 0,24,25
 1105 850 1105 850 1105 606 c 1,0,-1
1012 626 m 1,26,27
 1012 862 1012 862 906 970 c 0,28,29
 817 1066 817 1066 664 1066 c 0,30,31
 497 1066 497 1066 384 966 c 0,32,33
 280 873 280 873 259 626 c 1,34,-1
 1012 626 l 1,26,27
EndSplineSet
KernsSLIFO: 120 -36 0 0
EndChar
StartChar: f
Encoding: 102 102 102
Width: 721
Flags: W
AnchorPoint: "above" 315 1520 basechar 0
AnchorPoint: "below" 315 0 basechar 0
Fore
714 1556 m 1,0,-1
 714 1478 l 1,1,-1
 584 1478 l 2,2,3
 482 1478 482 1478 428 1425 c 0,4,5
 362 1360 362 1360 362 1219 c 2,6,-1
 362 1120 l 1,7,-1
 664 1120 l 1,8,-1
 664 1042 l 1,9,-1
 362 1042 l 1,10,-1
 362 0 l 1,11,-1
 269 0 l 1,12,-1
 269 1042 l 1,13,-1
 93 1042 l 1,14,-1
 93 1120 l 1,15,-1
 269 1120 l 1,16,-1
 269 1198 l 2,17,18
 269 1385 269 1385 354 1470 c 0,19,20
 438 1556 438 1556 586 1556 c 2,21,-1
 714 1556 l 1,0,-1
EndSplineSet
KernsSLIFO: 357 -36 0 0 253 -36 0 0 8222 -235 0 0 255 -36 0 0 8220 65 0 0 187 -36 0 0 171 -73 0 0 121 -36 0 0 119 -36 0 0 116 -36 0 0 58 -73 0 0 46 -149 0 0 45 -112 0 0
EndChar
StartChar: g
Encoding: 103 103 103
Width: 1229
Flags: W
AnchorPoint: "above" 618 1147 basechar 0
AnchorPoint: "below" 678 -430 basechar 0
Fore
976 1120 m 1,0,-1
 1068 1120 l 1,1,-1
 1068 139 l 2,2,3
 1068 -210 1068 -210 935 -318 c 128,-1,4
 802 -426 802 -426 598 -426 c 0,5,6
 501 -426 501 -426 415 -412 c 0,7,8
 329 -397 329 -397 248 -367 c 1,9,-1
 248 -262 l 1,10,11
 329 -306 329 -306 408 -327 c 128,-1,12
 487 -348 487 -348 569 -348 c 0,13,14
 736 -348 736 -348 856 -277 c 128,-1,15
 976 -206 976 -206 976 106 c 2,16,-1
 976 181 l 1,17,-1
 976 199 l 1,18,19
 951 161 951 161 919 132 c 0,20,21
 773 0 773 0 616 0 c 0,22,23
 456 0 456 0 310 132 c 0,24,25
 165 264 165 264 165 574 c 0,26,27
 165 883 165 883 310 1015 c 0,28,29
 456 1147 456 1147 616 1147 c 0,30,31
 773 1147 773 1147 919 1015 c 0,32,33
 951 986 951 986 976 948 c 1,34,-1
 976 1120 l 1,0,-1
974 576 m 128,-1,36
 974 842 974 842 859 956 c 0,37,38
 743 1070 743 1070 618 1070 c 0,39,40
 490 1070 490 1070 375 956 c 0,41,42
 259 842 259 842 259 576 c 128,-1,43
 259 310 259 310 375 196 c 0,44,45
 490 82 490 82 618 82 c 0,46,47
 743 82 743 82 859 196 c 0,48,35
 974 310 974 310 974 576 c 128,-1,36
EndSplineSet
EndChar
StartChar: h
Encoding: 104 104 104
Width: 1298
Flags: W
AnchorPoint: "above" 278 1520 basechar 0
AnchorPoint: "below" 678 0 basechar 0
Fore
1078 676 m 2,0,-1
 1078 0 l 1,1,-1
 986 0 l 1,2,-1
 986 670 l 2,3,4
 986 886 986 886 913 976 c 128,-1,5
 840 1066 840 1066 692 1066 c 0,6,7
 522 1066 522 1066 423 966 c 128,-1,8
 324 866 324 866 324 633 c 2,9,-1
 324 0 l 1,10,-1
 232 0 l 1,11,-1
 232 1556 l 1,12,-1
 324 1556 l 1,13,-1
 324 913 l 1,14,15
 356 999 356 999 438 1066 c 0,16,17
 536 1147 536 1147 714 1147 c 0,18,19
 880 1147 880 1147 979 1028 c 0,20,21
 1078 908 1078 908 1078 676 c 2,0,-1
EndSplineSet
EndChar
StartChar: i
Encoding: 105 105 105
Width: 569
Flags: W
AnchorPoint: "above" 287 1583 basechar 0
AnchorPoint: "below" 287 0 basechar 0
Fore
230 1120 m 1,0,-1
 322 1120 l 1,1,-1
 322 0 l 1,2,-1
 230 0 l 1,3,-1
 230 1120 l 1,0,-1
230 1556 m 1,4,-1
 322 1556 l 1,5,-1
 322 1430 l 1,6,-1
 230 1430 l 1,7,-1
 230 1556 l 1,4,-1
EndSplineSet
Substitution: 0 65534 's001' dotlessi
EndChar
StartChar: j
Encoding: 106 106 106
Width: 569
Flags: W
AnchorPoint: "above" 287 1583 basechar 0
AnchorPoint: "below" 287 -430 basechar 0
Fore
239 1120 m 1,0,-1
 331 1120 l 1,1,-1
 331 -20 l 2,2,3
 331 -248 331 -248 262 -337 c 0,4,5
 192 -426 192 -426 33 -426 c 2,6,-1
 -37 -426 l 1,7,-1
 -37 -348 l 1,8,-1
 12 -348 l 2,9,10
 124 -348 124 -348 182 -298 c 0,11,12
 239 -248 239 -248 239 -20 c 2,13,-1
 239 1120 l 1,0,-1
239 1556 m 1,14,-1
 331 1556 l 1,15,-1
 331 1430 l 1,16,-1
 239 1430 l 1,17,-1
 239 1556 l 1,14,-1
EndSplineSet
Substitution: 0 65534 's001' dotlessj
EndChar
StartChar: k
Encoding: 107 107 107
Width: 1186
Flags: W
AnchorPoint: "above" 371.5 1520 basechar 0
AnchorPoint: "below" 678 0 basechar 0
Fore
325 1556 m 1,0,-1
 418 1556 l 1,1,-1
 418 611 l 1,2,-1
 975 1120 l 1,3,-1
 1101 1120 l 1,4,-1
 522 591 l 1,5,-1
 1120 0 l 1,6,-1
 1001 0 l 1,7,-1
 418 574 l 1,8,-1
 418 0 l 1,9,-1
 325 0 l 1,10,-1
 325 1556 l 1,0,-1
EndSplineSet
KernsSLIFO: 367 -63 0 0 283 -73 0 0 253 -73 0 0 255 -73 0 0 252 -63 0 0 251 -63 0 0 249 -63 0 0 250 -63 0 0 245 -73 0 0 246 -73 0 0 244 -73 0 0 242 -73 0 0 243 -73 0 0 235 -73 0 0 234 -73 0 0 232 -73 0 0 233 -73 0 0 229 -36 0 0 227 -36 0 0 228 -36 0 0 226 -36 0 0 224 -36 0 0 225 -36 0 0 121 -73 0 0 117 -63 0 0 111 -73 0 0 101 -73 0 0 97 -36 0 0
EndChar
StartChar: l
Encoding: 108 108 108
Width: 569
Flags: W
AnchorPoint: "above" 278 1520 basechar 0
AnchorPoint: "below" 278 0 basechar 0
Fore
232 1556 m 1,0,-1
 324 1556 l 1,1,-1
 324 0 l 1,2,-1
 232 0 l 1,3,-1
 232 1556 l 1,0,-1
EndSplineSet
EndChar
StartChar: m
Encoding: 109 109 109
Width: 1995
Flags: W
AnchorPoint: "above" 1001 1147 basechar 0
AnchorPoint: "below" 1001 0 basechar 0
Fore
1038 876 m 1,0,1
 1090 1011 1090 1011 1202 1080 c 0,2,3
 1308 1147 1308 1147 1454 1147 c 128,-1,4
 1600 1147 1600 1147 1688 1044 c 0,5,6
 1777 942 1777 942 1777 676 c 2,7,-1
 1777 0 l 1,8,-1
 1686 0 l 1,9,-1
 1686 670 l 2,10,11
 1686 902 1686 902 1622 984 c 128,-1,12
 1558 1066 1558 1066 1452 1066 c 0,13,14
 1298 1066 1298 1066 1180 971 c 0,15,16
 1051 868 1051 868 1051 633 c 2,17,-1
 1051 0 l 1,18,-1
 959 0 l 1,19,-1
 959 670 l 2,20,21
 959 894 959 894 897 980 c 128,-1,22
 835 1066 835 1066 725 1066 c 0,23,24
 571 1066 571 1066 453 970 c 0,25,26
 324 867 324 867 324 633 c 2,27,-1
 324 0 l 1,28,-1
 232 0 l 1,29,-1
 232 1120 l 1,30,-1
 324 1120 l 1,31,-1
 324 910 l 1,32,33
 373 1020 373 1020 476 1084 c 0,34,35
 580 1147 580 1147 731 1147 c 0,36,37
 829 1147 829 1147 920 1081 c 0,38,39
 990 1030 990 1030 1038 876 c 1,0,1
EndSplineSet
EndChar
StartChar: n
Encoding: 110 110 110
Width: 1298
Flags: W
AnchorPoint: "above" 649 1147 basechar 0
AnchorPoint: "below" 678 0 basechar 0
Fore
1078 676 m 2,0,-1
 1078 0 l 1,1,-1
 986 0 l 1,2,-1
 986 670 l 2,3,4
 986 888 986 888 916 977 c 128,-1,5
 846 1066 846 1066 710 1066 c 0,6,7
 551 1066 551 1066 438 970 c 0,8,9
 324 873 324 873 324 633 c 2,10,-1
 324 0 l 1,11,-1
 232 0 l 1,12,-1
 232 1120 l 1,13,-1
 324 1120 l 1,14,-1
 324 910 l 1,15,16
 373 1012 373 1012 453 1066 c 0,17,18
 571 1147 571 1147 714 1147 c 0,19,20
 880 1147 880 1147 979 1034 c 0,21,22
 1078 922 1078 922 1078 676 c 2,0,-1
EndSplineSet
KernsSLIFO: 8222 -92 0 0 8221 -112 0 0 8220 -149 0 0
EndChar
StartChar: o
Encoding: 111 111 111
Width: 1253
Flags: W
AnchorPoint: "above" 637 1147 basechar 0
AnchorPoint: "below" 637 0 basechar 0
Fore
627 1147 m 0,0,1
 841 1147 841 1147 965 987 c 0,2,3
 1090 826 1090 826 1090 560 c 0,4,5
 1090 285 1090 285 965 126 c 0,6,7
 841 -34 841 -34 627 -34 c 0,8,9
 411 -34 411 -34 286 125 c 0,10,11
 162 284 162 284 162 560 c 0,12,13
 162 829 162 829 287 988 c 128,-1,14
 412 1147 412 1147 627 1147 c 0,0,1
628 1066 m 128,-1,16
 457 1066 457 1066 358 929 c 0,17,18
 258 793 258 793 258 561 c 0,19,20
 258 323 258 323 357 187 c 0,21,22
 456 50 456 50 628 50 c 0,23,24
 799 50 799 50 898 187 c 0,25,26
 998 325 998 325 998 561 c 0,27,28
 998 790 998 790 898 928 c 0,29,15
 799 1066 799 1066 628 1066 c 128,-1,16
EndSplineSet
KernsSLIFO: 8222 -131 0 0 8221 -73 0 0 8220 -149 0 0 120 -63 0 0 46 -36 0 0 45 38 0 0
EndChar
StartChar: p
Encoding: 112 112 112
Width: 1300
Flags: W
AnchorPoint: "below" 723 -430 basechar 0
AnchorPoint: "above" 748 1147 basechar 0
Fore
324 254 m 1,0,-1
 324 -426 l 1,1,-1
 234 -426 l 1,2,-1
 234 1120 l 1,3,-1
 324 1120 l 1,4,-1
 324 864 l 1,5,6
 387 1010 387 1010 461 1064 c 0,7,8
 574 1147 574 1147 674 1147 c 0,9,10
 873 1147 873 1147 1005 985 c 128,-1,11
 1137 823 1137 823 1137 559 c 152,-1,12
 1137 295 1137 295 1005 133 c 128,-1,13
 873 -29 873 -29 674 -29 c 0,14,15
 574 -29 574 -29 461 54 c 0,16,17
 387 108 387 108 324 254 c 1,0,-1
325 559 m 152,-1,19
 325 286 325 286 440 169 c 0,20,21
 556 52 556 52 681 52 c 24,22,23
 809 52 809 52 924 169 c 0,24,25
 1040 286 1040 286 1040 559 c 152,-1,26
 1040 832 1040 832 924 949 c 0,27,28
 809 1066 809 1066 681 1066 c 24,29,30
 556 1066 556 1066 440 949 c 0,31,18
 325 832 325 832 325 559 c 152,-1,19
EndSplineSet
EndChar
StartChar: q
Encoding: 113 113 113
Width: 1300
Flags: W
AnchorPoint: "above" 623 1147 basechar 0
AnchorPoint: "below" 648 -430 basechar 0
Fore
1047 254 m 1,0,1
 984 108 984 108 910 54 c 0,2,3
 797 -29 797 -29 697 -29 c 0,4,5
 498 -29 498 -29 366 133 c 128,-1,6
 234 295 234 295 234 559 c 152,-1,7
 234 823 234 823 366 985 c 128,-1,8
 498 1147 498 1147 697 1147 c 0,9,10
 797 1147 797 1147 910 1064 c 0,11,12
 984 1010 984 1010 1047 864 c 1,13,-1
 1047 1120 l 1,14,-1
 1137 1120 l 1,15,-1
 1137 -426 l 1,16,-1
 1047 -426 l 1,17,-1
 1047 254 l 1,0,1
1046 559 m 152,-1,19
 1046 832 1046 832 931 949 c 0,20,21
 815 1066 815 1066 690 1066 c 24,22,23
 562 1066 562 1066 447 949 c 0,24,25
 331 832 331 832 331 559 c 152,-1,26
 331 286 331 286 447 169 c 0,27,28
 562 52 562 52 690 52 c 24,29,30
 815 52 815 52 931 169 c 0,31,18
 1046 286 1046 286 1046 559 c 152,-1,19
EndSplineSet
EndChar
StartChar: r
Encoding: 114 114 114
Width: 842
Flags: W
AnchorPoint: "above" 535 1147 basechar 0
AnchorPoint: "below" 535 0 basechar 0
Fore
840 1041 m 1,0,1
 818 1052 818 1052 780 1060 c 0,2,3
 746 1066 746 1066 694 1066 c 0,4,5
 524 1066 524 1066 412 940 c 0,6,7
 324 838 324 838 324 590 c 2,8,-1
 324 0 l 1,9,-1
 234 0 l 1,10,-1
 234 1120 l 1,11,-1
 324 1120 l 1,12,-1
 324 910 l 1,13,14
 369 1000 369 1000 450 1062 c 0,15,16
 562 1147 562 1147 714 1147 c 0,17,18
 753 1147 753 1147 782 1144 c 0,19,20
 812 1144 812 1144 840 1137 c 1,21,-1
 840 1041 l 1,0,1
EndSplineSet
KernsSLIFO: 242 -45 0 0 45 -131 0 0 8222 -311 0 0 235 -45 0 0 58 -36 0 0 233 -45 0 0 231 -45 0 0 341 -36 0 0 8221 86 0 0 232 -45 0 0 245 -45 0 0 269 -45 0 0 271 72 0 0 345 -36 0 0 241 -36 0 0 244 -45 0 0 287 -36 0 0 234 -45 0 0 246 -45 0 0 263 -45 0 0 46 -188 0 0 120 -55 0 0 101 -45 0 0 283 -45 0 0 99 -45 0 0 171 -73 0 0 100 -36 0 0 103 -36 0 0 104 -36 0 0 109 -36 0 0 111 -45 0 0 110 -36 0 0 113 -36 0 0 114 -36 0 0 328 -36 0 0 243 -45 0 0
EndChar
StartChar: s
Encoding: 115 115 115
Width: 1067
Flags: W
Fore
866 1087 m 1,0,-1
 866 986 l 1,1,2
 769 1040 769 1040 745 1046 c 0,3,4
 675 1063 675 1063 571 1066 c 0,5,6
 413 1066 413 1066 323 1003 c 0,7,8
 254 951 254 951 254 825 c 0,9,10
 254 740 254 740 319 692 c 0,11,12
 388 640 388 640 516 612 c 2,13,-1
 579 598 l 2,14,15
 738 563 738 563 820 499 c 0,16,17
 915 426 915 426 920 309 c 0,18,19
 920 150 920 150 826 60 c 0,20,21
 726 -29 726 -29 504 -29 c 0,22,23
 380 -29 380 -29 316 -12 c 0,24,25
 239 10 239 10 154 41 c 1,26,-1
 154 156 l 1,27,28
 276 86 276 86 312 76 c 0,29,30
 411 50 411 50 508 50 c 0,31,32
 670 50 670 50 747 117 c 0,33,34
 825 185 825 185 825 295 c 0,35,36
 825 387 825 387 773 429 c 0,37,38
 698 489 698 489 534 527 c 2,39,-1
 470 542 l 2,40,41
 329 575 329 575 255 635 c 0,42,43
 162 710 162 710 162 817 c 0,44,45
 162 993 162 993 274 1070 c 128,-1,46
 386 1147 386 1147 549 1147 c 0,47,48
 688 1147 688 1147 741 1132 c 0,49,50
 805 1114 805 1114 866 1087 c 1,0,-1
EndSplineSet
EndChar
StartChar: t
Encoding: 116 116 116
Width: 803
Flags: W
AnchorPoint: "above" 282 1520 basechar 0
AnchorPoint: "below" 500 0 basechar 0
Fore
708 1120 m 1,0,-1
 708 1042 l 1,1,-1
329 1438 m 1,2,-1
 329 1120 l 1,3,-1
 708 1120 l 1,4,-1
 708 1042 l 1,5,-1
 329 1042 l 1,6,-1
 329 369 l 2,7,8
 329 241 329 241 362 190 c 0,9,10
 430 78 430 78 560 78 c 2,11,-1
 708 78 l 1,12,-1
 708 0 l 1,13,-1
 565 0 l 2,14,15
 428 0 428 0 332 80 c 128,-1,16
 236 160 236 160 236 369 c 2,17,-1
 236 1042 l 1,18,-1
 102 1042 l 1,19,-1
 102 1120 l 1,20,-1
 236 1120 l 1,21,-1
 236 1438 l 1,22,-1
 329 1438 l 1,2,-1
EndSplineSet
EndChar
StartChar: u
Encoding: 117 117 117
Width: 1298
Flags: W
AnchorPoint: "above" 637 1147 basechar 0
AnchorPoint: "below" 678 0 basechar 0
Fore
232 444 m 2,0,-1
 232 1120 l 1,1,-1
 324 1120 l 1,2,-1
 324 450 l 2,3,4
 324 232 324 232 394 143 c 128,-1,5
 464 54 464 54 600 54 c 0,6,7
 759 54 759 54 872 150 c 0,8,9
 986 247 986 247 986 487 c 2,10,-1
 986 1120 l 1,11,-1
 1078 1120 l 1,12,-1
 1078 0 l 1,13,-1
 986 0 l 1,14,-1
 986 210 l 1,15,16
 937 108 937 108 857 54 c 0,17,18
 739 -27 739 -27 596 -27 c 0,19,20
 430 -27 430 -27 331 86 c 0,21,22
 232 198 232 198 232 444 c 2,0,-1
EndSplineSet
EndChar
StartChar: v
Encoding: 118 118 118
Width: 1212
Flags: W
AnchorPoint: "above" 606 1147 basechar 0
AnchorPoint: "below" 606 0 basechar 0
Fore
130 1120 m 1,0,-1
 226 1120 l 1,1,-1
 606 101 l 1,2,-1
 985 1120 l 1,3,-1
 1082 1120 l 1,4,-1
 665 0 l 1,5,-1
 547 0 l 1,6,-1
 130 1120 l 1,0,-1
EndSplineSet
KernsSLIFO: 8222 -272 0 0 8221 -36 0 0 187 -36 0 0 171 -36 0 0 58 -112 0 0 46 -159 0 0 45 -55 0 0
EndChar
StartChar: w
Encoding: 119 119 119
Width: 1675
Flags: W
AnchorPoint: "above" 807 1154 basechar 0
AnchorPoint: "below" 807 0 basechar 0
Fore
130 1120 m 1,0,-1
 225 1120 l 1,1,-1
 488 122 l 1,2,-1
 749 1120 l 1,3,-1
 866 1120 l 1,4,-1
 1129 117 l 1,5,-1
 1391 1120 l 1,6,-1
 1486 1120 l 1,7,-1
 1193 0 l 1,8,-1
 1065 0 l 1,9,-1
 807 982 l 1,10,-1
 550 0 l 1,11,-1
 424 0 l 1,12,-1
 130 1120 l 1,0,-1
EndSplineSet
KernsSLIFO: 8222 -215 0 0 187 -36 0 0 171 -36 0 0 58 -112 0 0 46 -188 0 0
EndChar
StartChar: x
Encoding: 120 120 120
Width: 1212
Flags: W
AnchorPoint: "above" 610 1147 basechar 0
AnchorPoint: "below" 610 0 basechar 0
Fore
1068 1120 m 1,0,-1
 663 582 l 1,1,-1
 1098 0 l 1,2,-1
 988 0 l 1,3,-1
 608 510 l 1,4,-1
 224 0 l 1,5,-1
 114 0 l 1,6,-1
 552 586 l 1,7,-1
 154 1120 l 1,8,-1
 263 1120 l 1,9,-1
 608 655 l 1,10,-1
 958 1120 l 1,11,-1
 1068 1120 l 1,0,-1
EndSplineSet
KernsSLIFO: 283 -63 0 0 269 -36 0 0 263 -36 0 0 245 -63 0 0 246 -63 0 0 244 -63 0 0 242 -63 0 0 243 -63 0 0 235 -63 0 0 234 -63 0 0 232 -63 0 0 233 -63 0 0 231 -36 0 0 111 -63 0 0 101 -63 0 0 99 -36 0 0
EndChar
StartChar: y
Encoding: 121 121 121
Width: 1212
Flags: W
AnchorPoint: "above" 608 1154 basechar 0
AnchorPoint: "below" 608 -430 basechar 0
Fore
610 -104 m 2,0,1
 550 -253 550 -253 481 -310 c 0,2,3
 388 -387 388 -387 299 -387 c 2,4,-1
 162 -387 l 1,5,-1
 162 -309 l 1,6,-1
 279 -309 l 2,7,8
 352 -309 352 -309 407 -262 c 0,9,10
 478 -201 478 -201 524 -83 c 2,11,-1
 557 0 l 1,12,-1
 110 1120 l 1,13,-1
 208 1120 l 1,14,-1
 606 122 l 1,15,-1
 1005 1120 l 1,16,-1
 1102 1120 l 1,17,-1
 610 -104 l 2,0,1
EndSplineSet
KernsSLIFO: 8222 -301 0 0 187 -36 0 0 171 -36 0 0 58 -149 0 0 46 -292 0 0 45 -36 0 0
EndChar
StartChar: z
Encoding: 122 122 122
Width: 1075
Flags: W
AnchorPoint: "above" 535 1147 basechar 0
AnchorPoint: "below" 535 0 basechar 0
Fore
113 1120 m 1,0,-1
 987 1120 l 1,1,-1
 987 1014 l 1,2,-1
 177 78 l 1,3,-1
 987 78 l 1,4,-1
 987 0 l 1,5,-1
 88 0 l 1,6,-1
 88 102 l 1,7,-1
 897 1041 l 1,8,-1
 113 1041 l 1,9,-1
 113 1120 l 1,0,-1
EndSplineSet
EndChar
StartChar: braceleft
Encoding: 123 123 123
Width: 1303
Flags: W
Fore
883 -248 m 1,0,-1
 883 -334 l 1,1,-1
 842 -334 l 2,2,3
 697 -334 697 -334 641 -260 c 0,4,5
 584 -186 584 -186 584 35 c 2,6,-1
 584 288 l 2,7,8
 584 459 584 459 515 532 c 0,9,10
 481 568 481 568 421 568 c 2,11,-1
 347 568 l 1,12,-1
 347 656 l 1,13,-1
 421 656 l 2,14,15
 463 656 463 656 515 692 c 0,16,17
 584 739 584 739 584 934 c 2,18,-1
 584 1188 l 2,19,20
 584 1409 584 1409 641 1482 c 0,21,22
 697 1556 697 1556 842 1556 c 2,23,-1
 883 1556 l 1,24,-1
 883 1471 l 1,25,-1
 838 1471 l 2,26,27
 743 1471 743 1471 714 1424 c 0,28,29
 686 1377 686 1377 686 1225 c 2,30,-1
 686 936 l 2,31,32
 686 779 686 779 655 708 c 0,33,34
 625 637 625 637 551 612 c 1,35,36
 625 585 625 585 656 514 c 0,37,38
 686 443 686 443 686 287 c 2,39,-1
 686 -3 l 2,40,41
 686 -154 686 -154 714 -201 c 0,42,43
 743 -248 743 -248 838 -248 c 2,44,-1
 883 -248 l 1,0,-1
EndSplineSet
EndChar
StartChar: bar
Encoding: 124 124 124
Width: 690
Flags: W
Fore
396 1565 m 1,0,-1
 396 -483 l 1,1,-1
 300 -483 l 1,2,-1
 300 1565 l 1,3,-1
 396 1565 l 1,0,-1
EndSplineSet
EndChar
StartChar: braceright
Encoding: 125 125 125
Width: 1303
Flags: W
Fore
347 -248 m 1,0,-1
 393 -248 l 2,1,2
 487 -248 487 -248 516 -201 c 128,-1,3
 545 -154 545 -154 545 -3 c 2,4,-1
 545 287 l 2,5,6
 545 443 545 443 575 514 c 128,-1,7
 605 585 605 585 680 612 c 1,8,9
 606 637 606 637 576 708 c 0,10,11
 545 779 545 779 545 936 c 2,12,-1
 545 1225 l 2,13,14
 545 1377 545 1377 516 1424 c 128,-1,15
 487 1471 487 1471 393 1471 c 2,16,-1
 347 1471 l 1,17,-1
 347 1556 l 1,18,-1
 389 1556 l 2,19,20
 534 1556 534 1556 590 1482 c 0,21,22
 647 1409 647 1409 647 1188 c 2,23,-1
 647 934 l 2,24,25
 647 739 647 739 716 692 c 0,26,27
 768 656 768 656 810 656 c 2,28,-1
 883 656 l 1,29,-1
 883 568 l 1,30,-1
 810 568 l 2,31,32
 750 568 750 568 716 532 c 0,33,34
 647 459 647 459 647 288 c 2,35,-1
 647 35 l 2,36,37
 647 -186 647 -186 590 -260 c 0,38,39
 534 -334 534 -334 389 -334 c 2,40,-1
 347 -334 l 1,41,-1
 347 -248 l 1,0,-1
EndSplineSet
EndChar
StartChar: asciitilde
Encoding: 126 126 126
Width: 1716
Flags: W
Fore
1499 782 m 1,0,-1
 1499 685 l 1,1,2
 1394 606 1394 606 1304 572 c 0,3,4
 1215 538 1215 538 1118 538 c 0,5,6
 1024 538 1024 538 862 597 c 0,7,8
 851 601 851 601 846 603 c 0,9,10
 839 606 839 606 824 611 c 0,11,12
 669 673 669 673 575 673 c 0,13,14
 487 673 487 673 401 634 c 0,15,16
 315 596 315 596 217 513 c 1,17,-1
 217 610 l 1,18,19
 322 689 322 689 412 724 c 0,20,21
 501 758 501 758 598 758 c 0,22,23
 705 758 705 758 855 698 c 0,24,25
 865 694 865 694 870 692 c 0,26,27
 878 689 878 689 892 684 c 0,28,29
 1047 622 1047 622 1141 622 c 0,30,31
 1227 622 1227 622 1312 660 c 0,32,33
 1396 698 1396 698 1499 782 c 1,0,-1
EndSplineSet
EndChar
StartChar: exclamdown
Encoding: 161 161 161
Width: 821
Flags: W
Fore
459 1365 m 1,0,-1
 362 1365 l 1,1,-1
 362 1493 l 1,2,-1
 459 1493 l 1,3,-1
 459 1365 l 1,0,-1
459 0 m 1,4,-1
 362 0 l 1,5,-1
 362 655 l 1,6,-1
 382 1012 l 1,7,-1
 438 1012 l 1,8,-1
 459 655 l 1,9,-1
 459 0 l 1,4,-1
EndSplineSet
EndChar
StartChar: cent
Encoding: 162 162 162
Width: 1303
Flags: W
Fore
678 52 m 1,0,-1
 678 1066 l 1,1,2
 506 1045 506 1045 410 911 c 128,-1,3
 314 777 314 777 314 559 c 0,4,5
 314 340 314 340 410 206 c 128,-1,6
 506 72 506 72 678 52 c 1,0,-1
1080 1076 m 1,7,-1
 1080 969 l 1,8,9
 1000 1018 1000 1018 927 1042 c 0,10,11
 854 1067 854 1067 781 1071 c 1,12,-1
 781 47 l 1,13,14
 856 47 856 47 929 74 c 0,15,16
 1002 97 1002 97 1080 138 c 1,17,-1
 1080 32 l 1,18,19
 1010 2 1010 2 936 -16 c 0,20,21
 863 -34 863 -34 780 -41 c 1,22,-1
 780 -313 l 1,23,-1
 678 -313 l 1,24,-1
 678 -25 l 1,25,26
 461 -25 461 -25 342 148 c 0,27,28
 223 302 223 302 223 559 c 0,29,30
 223 817 223 817 342 970 c 128,-1,31
 461 1123 461 1123 678 1145 c 1,32,-1
 678 1432 l 1,33,-1
 780 1432 l 1,34,-1
 780 1145 l 1,35,36
 858 1145 858 1145 933 1124 c 0,37,38
 1007 1108 1007 1108 1080 1076 c 1,7,-1
EndSplineSet
EndChar
StartChar: sterling
Encoding: 163 163 163
Width: 1303
Flags: W
Fore
1102 1468 m 1,0,-1
 1102 1378 l 1,1,2
 1026 1408 1026 1408 958 1423 c 0,3,4
 899 1436 899 1436 829 1438 c 0,5,6
 648 1438 648 1438 560 1284 c 0,7,8
 511 1196 511 1196 511 993 c 2,9,-1
 511 746 l 1,10,-1
 956 746 l 1,11,-1
 956 668 l 1,12,-1
 511 668 l 1,13,-1
 511 76 l 1,14,-1
 1122 76 l 1,15,-1
 1122 0 l 1,16,-1
 129 0 l 1,17,-1
 129 76 l 1,18,-1
 419 76 l 1,19,-1
 419 668 l 1,20,-1
 166 668 l 1,21,-1
 166 746 l 1,22,-1
 419 746 l 1,23,-1
 419 1016 l 2,24,25
 419 1288 419 1288 536 1404 c 0,26,27
 652 1520 652 1520 811 1520 c 0,28,29
 872 1520 872 1520 948 1506 c 0,30,31
 1023 1493 1023 1493 1102 1468 c 1,0,-1
EndSplineSet
EndChar
StartChar: currency
Encoding: 164 164 164
Width: 1303
Flags: W
Fore
886 336 m 1,0,1
 846 306 846 306 803 289 c 0,2,3
 729 258 729 258 650 259 c 0,4,5
 565 260 565 260 497 289 c 0,6,7
 454 307 454 307 417 335 c 1,8,-1
 193 111 l 1,9,-1
 123 184 l 1,10,-1
 343 405 l 1,11,12
 305 451 305 451 286 499 c 0,13,14
 257 570 257 570 258 644 c 0,15,16
 259 711 259 711 286 790 c 0,17,18
 305 846 305 846 340 881 c 1,19,-1
 123 1100 l 1,20,-1
 193 1173 l 1,21,-1
 414 952 l 1,22,23
 454 984 454 984 497 1001 c 0,24,25
 572 1032 572 1032 650 1031 c 0,26,27
 741 1030 741 1030 803 1001 c 0,28,29
 860 975 860 975 889 951 c 1,30,-1
 1111 1173 l 1,31,-1
 1181 1100 l 1,32,-1
 962 880 l 1,33,34
 997 836 997 836 1015 790 c 0,35,36
 1043 719 1043 719 1043 644 c 0,37,38
 1042 563 1042 563 1015 499 c 0,39,40
 993 448 993 448 959 406 c 1,41,-1
 1181 184 l 1,42,-1
 1111 111 l 1,43,-1
 886 336 l 1,0,1
650 953 m 0,44,45
 594 953 594 953 538 931 c 0,46,47
 489 912 489 912 441 864 c 0,48,49
 397 822 397 822 373 764 c 0,50,51
 351 712 351 712 350 644 c 0,52,53
 349 583 349 583 373 525 c 0,54,55
 393 474 393 474 441 425 c 0,56,57
 483 382 483 382 538 358 c 0,58,59
 587 337 587 337 650 337 c 0,60,61
 707 336 707 336 763 358 c 0,62,63
 812 378 812 378 860 425 c 0,64,65
 904 468 904 468 928 525 c 0,66,67
 950 577 950 577 951 644 c 0,68,69
 951 706 951 706 928 764 c 0,70,71
 907 816 907 816 860 864 c 0,72,73
 818 908 818 908 763 931 c 0,74,75
 714 952 714 952 650 953 c 0,44,45
EndSplineSet
EndChar
StartChar: yen
Encoding: 165 165 165
Width: 1303
Flags: W
Fore
1115 455 m 1,0,-1
 702 455 l 1,1,-1
 702 0 l 1,2,-1
 601 0 l 1,3,-1
 601 455 l 1,4,-1
 185 455 l 1,5,-1
 185 537 l 1,6,-1
 601 537 l 1,7,-1
 600 618 l 1,8,-1
 511 784 l 1,9,-1
 179 784 l 1,10,-1
 179 866 l 1,11,-1
 465 866 l 1,12,-1
 126 1493 l 1,13,-1
 237 1493 l 1,14,-1
 651 729 l 1,15,-1
 1063 1493 l 1,16,-1
 1176 1493 l 1,17,-1
 835 866 l 1,18,-1
 1122 866 l 1,19,-1
 1122 784 l 1,20,-1
 791 784 l 1,21,-1
 700 618 l 1,22,-1
 700 537 l 1,23,-1
 1115 537 l 1,24,-1
 1115 455 l 1,0,-1
EndSplineSet
EndChar
StartChar: brokenbar
Encoding: 166 166 166
Width: 690
Flags: W
Fore
390 408 m 1,0,-1
 390 -350 l 1,1,-1
 290 -350 l 1,2,-1
 290 408 l 1,3,-1
 390 408 l 1,0,-1
390 1432 m 1,4,-1
 390 674 l 1,5,-1
 290 674 l 1,6,-1
 290 1432 l 1,7,-1
 390 1432 l 1,4,-1
EndSplineSet
EndChar
StartChar: section
Encoding: 167 167 167
Width: 1024
Flags: W
Fore
470 368 m 2,0,-1
 445 382 l 2,1,2
 226 502 226 502 161 579 c 0,3,4
 95 656 95 656 95 758 c 0,5,6
 95 824 95 824 142 902 c 0,7,8
 182 968 182 968 328 1018 c 1,9,10
 222 1093 222 1093 188 1176 c 0,11,12
 158 1251 158 1251 158 1280 c 0,13,14
 158 1388 158 1388 258 1454 c 128,-1,15
 358 1520 358 1520 524 1520 c 0,16,17
 603 1520 603 1520 674 1506 c 0,18,19
 750 1491 750 1491 829 1462 c 1,20,-1
 829 1360 l 1,21,22
 753 1396 753 1396 674 1418 c 0,23,24
 603 1438 603 1438 547 1438 c 0,25,26
 408 1438 408 1438 330 1398 c 0,27,28
 253 1358 253 1358 253 1287 c 0,29,30
 253 1134 253 1134 538 978 c 2,31,-1
 563 964 l 2,32,33
 782 844 782 844 847 767 c 0,34,35
 913 690 913 690 913 588 c 0,36,37
 913 522 913 522 866 444 c 0,38,39
 826 378 826 378 680 328 c 1,40,41
 786 253 786 253 820 170 c 0,42,43
 850 95 850 95 850 66 c 0,44,45
 850 -42 850 -42 750 -108 c 128,-1,46
 650 -174 650 -174 484 -174 c 0,47,48
 405 -174 405 -174 334 -160 c 0,49,50
 258 -145 258 -145 179 -116 c 1,51,-1
 179 -14 l 1,52,53
 255 -50 255 -50 334 -72 c 0,54,55
 405 -92 405 -92 461 -92 c 0,56,57
 600 -92 600 -92 678 -52 c 0,58,59
 755 -12 755 -12 755 59 c 0,60,61
 755 212 755 212 470 368 c 2,0,-1
600 394 m 1,62,63
 692 409 692 409 728 434 c 0,64,65
 815 494 815 494 815 586 c 0,66,67
 815 715 815 715 634 822 c 0,68,69
 414 950 414 950 412 954 c 1,70,71
 319 938 319 938 284 914 c 0,72,73
 196 853 196 853 196 762 c 0,74,75
 196 631 196 631 378 526 c 0,76,77
 597 398 597 398 600 394 c 1,62,63
EndSplineSet
EndChar
StartChar: dieresis
Encoding: 168 168 168
Width: 1024
Flags: W
Fore
606 1552 m 1,0,-1
 700 1552 l 1,1,-1
 700 1432 l 1,2,-1
 606 1432 l 1,3,-1
 606 1552 l 1,0,-1
326 1552 m 1,4,-1
 418 1552 l 1,5,-1
 418 1432 l 1,6,-1
 326 1432 l 1,7,-1
 326 1552 l 1,4,-1
EndSplineSet
LCarets: 0 65535 '    ' 1 0 
Ligature: 0 1 'liga' space uni0308
EndChar
StartChar: copyright
Encoding: 169 169 169
Width: 2048
Flags: W
Fore
1024 1434 m 0,0,1
 883 1434 883 1434 761 1384 c 0,2,3
 639 1333 639 1333 537 1231 c 0,4,5
 436 1130 436 1130 384 1007 c 0,6,7
 332 882 332 882 332 742 c 0,8,9
 332 603 332 603 384 480 c 0,10,11
 436 358 436 358 537 256 c 0,12,13
 639 155 639 155 761 104 c 0,14,15
 883 52 883 52 1024 52 c 0,16,17
 1167 52 1167 52 1290 104 c 0,18,19
 1412 155 1412 155 1514 256 c 0,20,21
 1614 356 1614 356 1664 479 c 0,22,23
 1714 601 1714 601 1714 742 c 0,24,25
 1714 886 1714 886 1664 1009 c 0,26,27
 1613 1131 1613 1131 1514 1231 c 0,28,29
 1412 1333 1412 1333 1290 1384 c 0,30,31
 1167 1434 1167 1434 1024 1434 c 0,0,1
1024 1485 m 128,-1,33
 1176 1485 1176 1485 1308 1430 c 0,34,35
 1439 1375 1439 1375 1548 1266 c 128,-1,36
 1657 1157 1657 1157 1711 1026 c 128,-1,37
 1765 895 1765 895 1765 741 c 0,38,39
 1765 589 1765 589 1711 458 c 0,40,41
 1657 328 1657 328 1548 219 c 128,-1,42
 1439 110 1439 110 1308 55 c 0,43,44
 1176 0 1176 0 1024 0 c 128,-1,45
 872 0 872 0 740 55 c 0,46,47
 609 110 609 110 500 219 c 128,-1,48
 391 328 391 328 337 458 c 0,49,50
 283 589 283 589 283 741 c 0,51,52
 283 895 283 895 337 1026 c 128,-1,53
 391 1157 391 1157 500 1266 c 128,-1,54
 609 1375 609 1375 740 1430 c 0,55,32
 872 1485 872 1485 1024 1485 c 128,-1,33
1323 1137 m 1,56,-1
 1323 1053 l 1,57,58
 1257 1092 1257 1092 1192 1110 c 0,59,60
 1127 1129 1127 1129 1058 1129 c 0,61,62
 870 1129 870 1129 767 1028 c 0,63,64
 664 926 664 926 664 744 c 0,65,66
 664 559 664 559 770 458 c 0,67,68
 877 357 877 357 1071 357 c 0,69,70
 1131 357 1131 357 1196 376 c 0,71,72
 1257 393 1257 393 1323 433 c 1,73,-1
 1323 346 l 1,74,75
 1256 317 1256 317 1188 303 c 0,76,77
 1119 289 1119 289 1049 289 c 0,78,79
 833 289 833 289 708 411 c 0,80,81
 582 533 582 533 582 741 c 0,82,83
 582 950 582 950 708 1071 c 0,84,85
 833 1192 833 1192 1049 1192 c 0,86,87
 1122 1192 1122 1192 1190 1178 c 128,-1,88
 1258 1164 1258 1164 1323 1137 c 1,56,-1
EndSplineSet
EndChar
StartChar: ordfeminine
Encoding: 170 170 170
Width: 965
Flags: W
Fore
139 592 m 1,0,-1
 827 592 l 1,1,-1
 827 510 l 1,2,-1
 139 510 l 1,3,-1
 139 592 l 1,0,-1
799.66 1165 m 2,4,-1
 799.66 717 l 1,5,-1
 707.612 717 l 1,6,-1
 707.612 922.815 l 1,7,8
 658.662 819.171 658.662 819.171 578.562 763.236 c 0,9,10
 489.321 700.917 489.321 700.917 395 707.3 c 0,11,12
 304.249 713.84 304.249 713.84 231 764 c 0,13,14
 141.53 825.325 141.53 825.325 141.53 946 c 0,15,16
 141.53 1092 141.53 1092 229.88 1161 c 0,17,18
 319.16 1230 319.16 1230 494 1230 c 2,19,-1
 702.472 1230 l 1,20,-1
 702.472 1234 l 2,21,22
 702.472 1331.91 702.472 1331.91 637.91 1384.88 c 0,23,24
 572.235 1438.77 572.235 1438.77 442 1438.77 c 0,25,26
 380 1438.77 380 1438.77 312 1418.42 c 128,-1,27
 244 1398.06 244 1398.06 176 1357.34 c 1,28,-1
 176 1451.26 l 1,29,30
 249 1485.63 249 1485.63 322 1502.82 c 0,31,32
 394 1520 394 1520 463 1520 c 0,33,34
 633.19 1520 633.19 1520 716.89 1432 c 0,35,36
 799.66 1344 799.66 1344 799.66 1165 c 2,4,-1
562.188 1152 m 2,37,38
 382.919 1152 382.919 1152 307.947 1110.03 c 0,39,40
 231.714 1067.36 231.714 1067.36 231.714 971.786 c 0,41,42
 231.714 879.414 231.714 879.414 265 847 c 0,43,44
 319 792 319 792 439.02 792 c 128,-1,45
 559.04 792 559.04 792 632.814 880.87 c 0,46,47
 706.332 969.742 706.332 969.742 706.332 1116.2 c 2,48,-1
 706.332 1152 l 1,49,-1
 562.188 1152 l 2,37,38
EndSplineSet
EndChar
StartChar: guillemotleft
Encoding: 171 171 171
Width: 1253
Flags: W
Fore
1096 1024 m 1,0,-1
 1096 901 l 1,1,-1
 757 600 l 1,2,-1
 1096 299 l 1,3,-1
 1096 177 l 1,4,-1
 627 595 l 1,5,-1
 627 606 l 1,6,-1
 1096 1024 l 1,0,-1
662 1024 m 1,7,-1
 662 901 l 1,8,-1
 323 600 l 1,9,-1
 662 299 l 1,10,-1
 662 177 l 1,11,-1
 193 595 l 1,12,-1
 193 606 l 1,13,-1
 662 1024 l 1,7,-1
EndSplineSet
KernsSLIFO: 356 -112 0 0 270 -36 0 0 268 -36 0 0 262 -36 0 0 286 -36 0 0 253 -36 0 0 221 -149 0 0 376 -149 0 0 255 -36 0 0 198 151 0 0 199 -36 0 0 121 -36 0 0 119 -36 0 0 118 -36 0 0 89 -149 0 0 87 -36 0 0 86 -112 0 0 84 -112 0 0 74 -36 0 0 71 -36 0 0 68 -36 0 0 67 -36 0 0 66 -36 0 0
EndChar
StartChar: logicalnot
Encoding: 172 172 172
Width: 1716
Flags: W
Fore
1367 736 m 1,0,-1
 215 736 l 1,1,-1
 215 818 l 1,2,-1
 1466 818 l 1,3,-1
 1468 288 l 1,4,-1
 1367 288 l 1,5,-1
 1367 736 l 1,0,-1
EndSplineSet
EndChar
StartChar: sfthyphen
Encoding: 173 173 173
Width: 739
Flags: W
Fore
100 602 m 1,0,-1
 639 602 l 1,1,-1
 639 520 l 1,2,-1
 100 520 l 1,3,-1
 100 602 l 1,0,-1
EndSplineSet
EndChar
StartChar: registered
Encoding: 174 174 174
Width: 2048
Flags: W
Fore
1024 1434 m 0,0,1
 883 1434 883 1434 761 1384 c 0,2,3
 639 1333 639 1333 537 1231 c 0,4,5
 436 1130 436 1130 384 1007 c 0,6,7
 332 882 332 882 332 742 c 0,8,9
 332 603 332 603 384 480 c 0,10,11
 436 358 436 358 537 256 c 0,12,13
 639 155 639 155 761 104 c 0,14,15
 883 52 883 52 1024 52 c 0,16,17
 1167 52 1167 52 1290 104 c 0,18,19
 1412 155 1412 155 1514 256 c 0,20,21
 1614 356 1614 356 1664 479 c 0,22,23
 1714 601 1714 601 1714 742 c 0,24,25
 1714 886 1714 886 1664 1009 c 0,26,27
 1613 1131 1613 1131 1514 1231 c 0,28,29
 1412 1333 1412 1333 1290 1384 c 0,30,31
 1167 1434 1167 1434 1024 1434 c 0,0,1
1024 1485 m 128,-1,33
 1176 1485 1176 1485 1308 1430 c 0,34,35
 1439 1375 1439 1375 1548 1266 c 128,-1,36
 1657 1157 1657 1157 1711 1026 c 128,-1,37
 1765 895 1765 895 1765 741 c 0,38,39
 1765 589 1765 589 1711 458 c 0,40,41
 1657 328 1657 328 1548 219 c 128,-1,42
 1439 110 1439 110 1308 55 c 0,43,44
 1176 0 1176 0 1024 0 c 128,-1,45
 872 0 872 0 740 55 c 0,46,47
 609 110 609 110 500 219 c 128,-1,48
 391 328 391 328 337 458 c 0,49,50
 283 589 283 589 283 741 c 0,51,52
 283 895 283 895 337 1026 c 128,-1,53
 391 1157 391 1157 500 1266 c 128,-1,54
 609 1375 609 1375 740 1430 c 0,55,32
 872 1485 872 1485 1024 1485 c 128,-1,33
997 1108 m 2,56,-1
 848 1108 l 1,57,-1
 848 773 l 1,58,-1
 997 773 l 2,59,60
 1113 773 1113 773 1158 811 c 0,61,62
 1205 848 1205 848 1205 939 c 0,63,64
 1205 1031 1205 1031 1158 1070 c 0,65,66
 1112 1108 1112 1108 997 1108 c 2,56,-1
1004 1190 m 2,67,68
 1173 1190 1173 1190 1239 1128 c 0,69,70
 1305 1067 1305 1067 1305 942 c 0,71,72
 1305 853 1305 853 1266 795 c 0,73,74
 1225 737 1225 737 1153 719 c 1,75,76
 1173 713 1173 713 1210 672 c 0,77,78
 1248 630 1248 630 1290 561 c 2,79,-1
 1427 338 l 1,80,-1
 1327 338 l 1,81,-1
 1198 547 l 2,82,83
 1140 640 1140 640 1102 668 c 0,84,85
 1066 694 1066 694 1012 694 c 2,86,-1
 846 694 l 1,87,-1
 846 338 l 1,88,-1
 756 338 l 1,89,-1
 756 1190 l 1,90,-1
 1004 1190 l 2,67,68
EndSplineSet
EndChar
StartChar: macron
Encoding: 175 175 175
Width: 1024
Flags: W
Fore
213 1526 m 1,0,-1
 811 1526 l 1,1,-1
 811 1438 l 1,2,-1
 213 1438 l 1,3,-1
 213 1526 l 1,0,-1
EndSplineSet
LCarets: 0 65535 '    ' 1 0 
Ligature: 0 1 'liga' space uni0304
EndChar
StartChar: degree
Encoding: 176 176 176
Width: 1024
Flags: W
Fore
710 1199 m 0,0,1
 710 1281 710 1281 652 1338 c 0,2,3
 595 1395 595 1395 512 1395 c 0,4,5
 428 1395 428 1395 372 1340 c 0,6,7
 314 1282 314 1282 314 1199 c 0,8,9
 314 1115 314 1115 372 1059 c 0,10,11
 428 1002 428 1002 512 1002 c 0,12,13
 595 1002 595 1002 652 1059 c 0,14,15
 710 1116 710 1116 710 1199 c 0,0,1
786 1199 m 128,-1,17
 786 1084 786 1084 706 1004 c 0,18,19
 627 924 627 924 512 924 c 128,-1,20
 397 924 397 924 318 1004 c 0,21,22
 238 1084 238 1084 238 1199 c 128,-1,23
 238 1314 238 1314 318 1393 c 0,24,25
 397 1473 397 1473 512 1473 c 128,-1,26
 627 1473 627 1473 706 1393 c 0,27,16
 786 1314 786 1314 786 1199 c 128,-1,17
EndSplineSet
EndChar
StartChar: plusminus
Encoding: 177 177 177
Width: 1716
Flags: W
Fore
215 82 m 1,0,-1
 1500 82 l 1,1,-1
 1500 0 l 1,2,-1
 215 0 l 1,3,-1
 215 82 l 1,0,-1
908 1284 m 1,4,-1
 908 849.5 l 1,5,-1
 1499 849.5 l 1,6,-1
 1499 767 l 1,7,-1
 908 767 l 1,8,-1
 908 340 l 1,9,-1
 807 340 l 1,10,-1
 807 767 l 1,11,-1
 217 767 l 1,12,-1
 217 849.5 l 1,13,-1
 807 849.5 l 1,14,-1
 807 1284 l 1,15,-1
 908 1284 l 1,4,-1
EndSplineSet
EndChar
StartChar: twosuperior
Encoding: 178 178 178
Width: 821
Flags: W
Fore
209 816 m 1,0,-1
 692 816 l 1,1,-1
 692 733 l 1,2,-1
 94 733 l 1,3,-1
 94 831 l 1,4,5
 175 897 175 897 191 908 c 0,6,7
 567 1184 567 1184 567 1264 c 0,8,9
 567 1359 567 1359 511 1398 c 0,10,11
 455 1438 455 1438 346 1438 c 0,12,13
 294 1438 294 1438 233 1413 c 0,14,15
 172 1387 172 1387 100 1337 c 1,16,-1
 100 1429 l 1,17,18
 177 1475 177 1475 244 1497 c 0,19,20
 310 1520 310 1520 368 1520 c 0,21,22
 500 1520 500 1520 579 1454 c 128,-1,23
 658 1388 658 1388 658 1278 c 0,24,25
 658 1129 658 1129 309 886 c 0,26,27
 245 841 245 841 209 816 c 1,0,-1
EndSplineSet
EndChar
StartChar: threesuperior
Encoding: 179 179 179
Width: 821
Flags: W
Fore
548.269 1145.19 m 1,0,1
 614.499 1129.36 614.499 1129.36 654.567 1077.42 c 0,2,3
 696.253 1023.39 696.253 1023.39 696.253 948.473 c 0,4,5
 696.253 833.799 696.253 833.799 611.465 768.69 c 0,6,7
 531.912 707.602 531.912 707.602 350 707.602 c 0,8,9
 293 707.602 293 707.602 230 717.911 c 0,10,11
 168 727.281 168 727.281 98 746.021 c 1,12,-1
 98 843.064 l 1,13,14
 150 813.173 150 813.173 210 798.775 c 0,15,16
 269 784.385 269 784.385 336 784.385 c 0,17,18
 464.075 784.385 464.075 784.385 534.575 828.67 c 0,19,20
 605.075 871.853 605.075 871.853 605.075 949.357 c 0,21,22
 605.075 1023.49 605.075 1023.49 540.45 1061.55 c 0,23,24
 474.65 1099.62 474.65 1099.62 347.75 1099.62 c 2,25,-1
 260 1099.62 l 1,26,-1
 260 1177.48 l 1,27,-1
 354 1177.48 l 2,28,29
 465.86 1177.48 465.86 1177.48 522.98 1209.96 c 0,30,31
 581.29 1243.49 581.29 1243.49 581.29 1306.36 c 0,32,33
 581.29 1370.39 581.29 1370.39 521.79 1403.51 c 0,34,35
 462.29 1437.74 462.29 1437.74 349.24 1437.74 c 0,36,37
 310 1437.74 310 1437.74 259 1423.86 c 128,-1,38
 208 1410 208 1410 127 1374.56 c 1,39,-1
 127 1468.6 l 1,40,41
 200 1493.56 200 1493.56 264 1506.78 c 128,-1,42
 328 1520 328 1520 383 1520 c 0,43,44
 528.893 1520 528.893 1520 601 1466.16 c 0,45,46
 674.5 1410.62 674.5 1410.62 674.5 1317.44 c 0,47,48
 674.5 1255.44 674.5 1255.44 641.475 1207.32 c 0,49,50
 610.472 1162.14 610.472 1162.14 548.269 1145.19 c 1,0,1
EndSplineSet
EndChar
StartChar: acute
Encoding: 180 180 180
Width: 989
Flags: W
Fore
651 1638 m 1,0,-1
 779 1638 l 1,1,-1
 453 1262 l 1,2,-1
 371 1262 l 1,3,-1
 651 1638 l 1,0,-1
EndSplineSet
LCarets: 0 65535 '    ' 1 0 
Ligature: 0 1 'liga' space acutecomb
EndChar
StartChar: mu
Encoding: 181 181 181
Width: 1303
Flags: W
Fore
220 -426 m 1,0,-1
 220 1120 l 1,1,-1
 312 1120 l 1,2,-1
 312 424 l 2,3,4
 312 258 312 258 444 136 c 0,5,6
 528 58 528 58 682 58 c 0,7,8
 834 58 834 58 904 142 c 128,-1,9
 974 226 974 226 974 467 c 2,10,-1
 974 1120 l 1,11,-1
 1064 1120 l 1,12,-1
 1064 258 l 2,13,14
 1064 148 1064 148 1075 128 c 0,15,16
 1111 56 1111 56 1153 56 c 0,17,18
 1176 56 1176 56 1200 65 c 0,19,20
 1237 80 1237 80 1255 89 c 1,21,-1
 1265 16 l 1,22,23
 1234 -7 1234 -7 1208 -18 c 128,-1,24
 1182 -29 1182 -29 1143 -29 c 0,25,26
 1102 -29 1102 -29 1055 11 c 0,27,28
 1007 50 1007 50 986 110 c 1,29,30
 945 50 945 50 864 6 c 0,31,32
 801 -29 801 -29 696 -29 c 0,33,34
 581 -29 581 -29 484 22 c 0,35,36
 378 78 378 78 312 200 c 1,37,-1
 312 -426 l 1,38,-1
 220 -426 l 1,0,-1
EndSplineSet
EndChar
StartChar: paragraph
Encoding: 182 182 182
Width: 1303
Flags: W
Fore
633 1493 m 2,0,-1
 1056 1493 l 1,1,-1
 1056 -197 l 1,2,-1
 965 -197 l 1,3,-1
 965 1413 l 1,4,-1
 725 1413 l 1,5,-1
 725 -197 l 1,6,-1
 633 -197 l 1,7,-1
 633 687 l 1,8,9
 401 703 401 703 287 808 c 0,10,11
 173 914 173 914 173 1090 c 0,12,13
 173 1271 173 1271 299 1382 c 128,-1,14
 425 1493 425 1493 633 1493 c 2,0,-1
EndSplineSet
EndChar
StartChar: periodcentered
Encoding: 183 183 183
Width: 651
Flags: W
Fore
272 752 m 1,0,-1
 376 752 l 1,1,-1
 376 626 l 1,2,-1
 272 626 l 1,3,-1
 272 752 l 1,0,-1
EndSplineSet
EndChar
StartChar: cedilla
Encoding: 184 184 184
Width: 1024
Flags: W
Fore
578 0 m 1,0,1
 630 -61 630 -61 656 -112 c 0,2,3
 681 -163 681 -163 681 -210 c 0,4,5
 681 -297 681 -297 625 -342 c 0,6,7
 568 -386 568 -386 457 -386 c 0,8,9
 413 -386 413 -386 372 -380 c 128,-1,10
 331 -374 331 -374 290 -363 c 1,11,-1
 292 -270 l 1,12,13
 328 -289 328 -289 368 -298 c 0,14,15
 408 -306 408 -306 459 -306 c 0,16,17
 523 -306 523 -306 555 -279 c 0,18,19
 588 -252 588 -252 588 -200 c 0,20,21
 588 -166 588 -166 564 -118 c 0,22,23
 541 -69 541 -69 493 0 c 1,24,-1
 578 0 l 1,0,1
EndSplineSet
LCarets: 0 65535 '    ' 1 0 
Ligature: 0 1 'liga' space uni0327
EndChar
StartChar: onesuperior
Encoding: 185 185 185
Width: 821
Flags: W
Fore
156 814 m 1,0,-1
 378 814 l 1,1,-1
 378 1413 l 1,2,-1
 360 1413 l 1,3,-1
 137 1372 l 1,4,-1
 137 1454 l 1,5,-1
 367 1493 l 1,6,-1
 470 1493 l 1,7,-1
 470 814 l 1,8,-1
 709 814 l 1,9,-1
 709 736 l 1,10,-1
 156 736 l 1,11,-1
 156 814 l 1,0,-1
EndSplineSet
EndChar
StartChar: ordmasculine
Encoding: 186 186 186
Width: 965
Flags: W
Fore
139 592 m 1,0,-1
 827 592 l 1,1,-1
 827 510 l 1,2,-1
 139 510 l 1,3,-1
 139 592 l 1,0,-1
483 1520 m 128,-1,5
 646.785 1520 646.785 1520 741.03 1411.33 c 0,6,7
 835.275 1301.67 835.275 1301.67 835.275 1112.98 c 128,-1,8
 835.275 924.293 835.275 924.293 741.03 816.61 c 0,9,10
 646.785 707.94 646.785 707.94 483 707.94 c 128,-1,11
 319.215 707.94 319.215 707.94 224.055 816.61 c 128,-1,12
 128.895 925.28 128.895 925.28 128.895 1112.98 c 0,13,14
 128.895 1301.67 128.895 1301.67 224.055 1411.33 c 0,15,4
 319.215 1520 319.215 1520 483 1520 c 128,-1,5
483 1440 m 0,16,17
 365.138 1440 365.138 1440 294.42 1350.09 c 0,18,19
 223.702 1261.29 223.702 1261.29 223.702 1110.33 c 0,20,21
 223.702 962.7 223.702 962.7 295.543 873.9 c 0,22,23
 366.26 785.1 366.26 785.1 483 785.1 c 0,24,25
 600.862 785.1 600.862 785.1 670.457 873.9 c 0,26,27
 741.175 962.7 741.175 962.7 741.175 1110.33 c 0,28,29
 741.175 1262.4 741.175 1262.4 671.58 1351.2 c 128,-1,30
 601.985 1440 601.985 1440 483 1440 c 0,16,17
EndSplineSet
EndChar
StartChar: guillemotright
Encoding: 187 187 187
Width: 1253
Flags: W
Fore
193 1024 m 1,0,-1
 662 606 l 1,1,-1
 662 595 l 1,2,-1
 193 177 l 1,3,-1
 193 299 l 1,4,-1
 532 600 l 1,5,-1
 193 901 l 1,6,-1
 193 1024 l 1,0,-1
627 1024 m 1,7,-1
 1096 606 l 1,8,-1
 1096 595 l 1,9,-1
 627 177 l 1,10,-1
 627 299 l 1,11,-1
 966 600 l 1,12,-1
 627 901 l 1,13,-1
 627 1024 l 1,7,-1
EndSplineSet
KernsSLIFO: 356 -188 0 0 270 -36 0 0 268 -36 0 0 262 -36 0 0 253 -36 0 0 221 -225 0 0 210 -36 0 0 212 -36 0 0 211 -36 0 0 193 -73 0 0 194 -73 0 0 376 -225 0 0 255 -36 0 0 213 -36 0 0 195 -73 0 0 192 -73 0 0 214 -36 0 0 199 -36 0 0 196 -73 0 0 121 -36 0 0 119 -36 0 0 118 -36 0 0 89 -225 0 0 88 -112 0 0 87 -112 0 0 86 -178 0 0 84 -188 0 0 79 -36 0 0 74 -36 0 0 68 -36 0 0 67 -36 0 0 66 -73 0 0 65 -73 0 0
EndChar
StartChar: questiondown
Encoding: 191 191 191
Width: 1098
Flags: W
Fore
613 1365 m 1,0,-1
 511 1365 l 1,1,-1
 511 1491 l 1,2,-1
 613 1491 l 1,3,-1
 613 1365 l 1,0,-1
511 1090 m 1,4,-1
 612 1090 l 1,5,-1
 612 936 l 2,6,7
 612 848 612 848 578 770 c 0,8,9
 553 710 553 710 460 619 c 2,10,-1
 370 530 l 2,11,12
 310 470 310 470 288 430 c 0,13,14
 262 383 262 383 262 334 c 0,15,16
 262 208 262 208 328 130 c 128,-1,17
 394 52 394 52 507 52 c 0,18,19
 632 52 632 52 697 81 c 0,20,21
 802 127 802 127 878 214 c 1,22,-1
 899 105 l 1,23,24
 799 21 799 21 721 -2 c 0,25,26
 631 -29 631 -29 517 -29 c 0,27,28
 378 -29 378 -29 266 68 c 0,29,30
 155 165 155 165 155 324 c 0,31,32
 155 400 155 400 191 468 c 0,33,34
 225 533 225 533 317 623 c 2,35,-1
 405 709 l 2,36,37
 449 752 449 752 472 782 c 0,38,39
 491 809 491 809 499 834 c 0,40,41
 505 855 505 855 508 885 c 128,-1,42
 511 915 511 915 511 967 c 2,43,-1
 511 1090 l 1,4,-1
EndSplineSet
EndChar
StartChar: Aring
Encoding: 197 197 197
Width: 1401
Flags: W
Fore
695 1392 m 1,0,-1
 375 552 l 1,1,-1
 1010 552 l 1,2,-1
 695 1392 l 1,0,-1
941 1639 m 0,3,4
 941 1536 941 1536 869 1464 c 0,5,6
 835 1429 835 1429 793 1411 c 1,7,-1
 1333 0 l 1,8,-1
 1219 0 l 1,9,-1
 1041 469 l 1,10,-1
 344 469 l 1,11,-1
 167 0 l 1,12,-1
 61 0 l 1,13,-1
 599 1410 l 1,14,15
 556 1428 556 1428 521 1464 c 0,16,17
 449 1536 449 1536 449 1639 c 0,18,19
 449 1742 449 1742 521 1813 c 0,20,21
 592 1885 592 1885 695 1885 c 128,-1,22
 798 1885 798 1885 869 1813 c 0,23,24
 941 1742 941 1742 941 1639 c 0,3,4
847 1639 m 0,25,26
 847 1702 847 1702 803 1746 c 128,-1,27
 759 1790 759 1790 695 1790 c 0,28,29
 630 1790 630 1790 587 1747 c 0,30,31
 543 1703 543 1703 543 1639 c 0,32,33
 543 1574 543 1574 587 1531 c 0,34,35
 630 1487 630 1487 695 1487 c 0,36,37
 759 1487 759 1487 803 1531 c 128,-1,38
 847 1575 847 1575 847 1639 c 0,25,26
EndSplineSet
LCarets: 0 65535 '    ' 1 0 
Ligature: 0 0 'liga' A uni030A
EndChar
StartChar: AE
Encoding: 198 198 198
Width: 1995
Flags: W
Fore
1845 1493 m 1,0,-1
 1845 1411 l 1,1,-1
 1110 1411 l 1,2,-1
 1110 837 l 1,3,-1
 1815 837 l 1,4,-1
 1815 756 l 1,5,-1
 1110 756 l 1,6,-1
 1110 81 l 1,7,-1
 1864 81 l 1,8,-1
 1864 0 l 1,9,-1
 1009 0 l 1,10,-1
 1009 469 l 1,11,-1
 360 469 l 1,12,-1
 164 0 l 1,13,-1
 56 0 l 1,14,-1
 681 1493 l 1,15,-1
 1845 1493 l 1,0,-1
755 1411 m 1,16,-1
 394 551 l 1,17,-1
 1008 551 l 1,18,-1
 1008 1411 l 1,19,-1
 755 1411 l 1,16,-1
EndSplineSet
KernsSLIFO: 8222 -112 0 0 8221 -92 0 0 8220 -83 0 0
EndChar
StartChar: Eth
Encoding: 208 208 208
Width: 1587
Flags: W
Fore
10 708 m 1,0,-1
 10 788 l 1,1,-1
 249 788 l 1,2,-1
 249 1493 l 1,3,-1
 616 1493 l 2,4,5
 1023.47 1493 1023.47 1493 1215 1312 c 0,6,7
 1406 1131.5 1406 1131.5 1406 748 c 0,8,9
 1406 362 1406 362 1214 181 c 128,-1,10
 1022 0 1022 0 616 0 c 2,11,-1
 249 0 l 1,12,-1
 249 708 l 1,13,-1
 10 708 l 1,0,-1
351 708 m 1,14,-1
 351 81 l 1,15,-1
 647 81 l 2,16,17
 984.501 81 984.501 81 1142 241 c 0,18,19
 1300 401.509 1300 401.509 1300 746 c 0,20,21
 1300 1088.99 1300 1088.99 1142 1249 c 0,22,23
 984.994 1408 984.994 1408 647 1408 c 2,24,-1
 351 1408 l 1,25,-1
 351 788 l 1,26,-1
 750 788 l 1,27,-1
 750 708 l 1,28,-1
 351 708 l 1,14,-1
EndSplineSet
KernsSLIFO: 7922 -112 0 0 562 -112 0 0 374 -112 0 0 260 -36 0 0 258 -36 0 0 256 -36 0 0 221 -112 0 0 193 -36 0 0 194 -36 0 0 8222 -188 0 0 376 -112 0 0 8221 -55 0 0 8220 -45 0 0 195 -36 0 0 192 -36 0 0 187 -36 0 0 171 -36 0 0 196 -36 0 0 89 -112 0 0 86 -36 0 0 65 -36 0 0
EndChar
StartChar: multiply
Encoding: 215 215 215
Width: 1716
Flags: W
Fore
1387 1100 m 1,0,-1
 930 641 l 1,1,-1
 1387 184 l 1,2,-1
 1317 111 l 1,3,-1
 858 570 l 1,4,-1
 399 111 l 1,5,-1
 329 184 l 1,6,-1
 785 641 l 1,7,-1
 329 1100 l 1,8,-1
 399 1173 l 1,9,-1
 858 714 l 1,10,-1
 1317 1173 l 1,11,-1
 1387 1100 l 1,0,-1
EndSplineSet
EndChar
StartChar: Oslash
Encoding: 216 216 216
Width: 1612
Flags: W
AnchorPoint: "above" 807 1520 basechar 0
Fore
807 1442 m 0,0,1
 562 1442 562 1442 417 1255 c 0,2,3
 273 1068 273 1068 273 745 c 0,4,5
 273 475.247 273 475.247 374.691 300.124 c 1,6,-1
 1188.39 1264.66 l 1,7,8
 1045.59 1442 1045.59 1442 807 1442 c 0,0,1
369.187 149.328 m 1,9,-1
 192.5 -60 l 1,10,-1
 121.5 0 l 1,11,-1
 309.257 222.56 l 1,12,13
 167 424.915 167 424.915 167 745 c 0,14,15
 167 1099 167 1099 341 1310 c 0,16,17
 516 1520 516 1520 807 1520 c 0,18,19
 1078.58 1520 1078.58 1520 1248.43 1335.83 c 1,20,-1
 1424.33 1544.33 l 1,21,-1
 1494.33 1482.33 l 1,22,-1
 1307.65 1261.16 l 1,23,24
 1445 1059.52 1445 1059.52 1445 745 c 0,25,26
 1445 392.499 1445 392.499 1271 182 c 0,27,28
 1096.59 -29 1096.59 -29 807 -29 c 0,29,30
 538.841 -29 538.841 -29 369.187 149.328 c 1,9,-1
1242.47 1183.95 m 1,31,-1
 429.78 221.114 l 1,32,33
 572.637 50 572.637 50 807 50 c 0,34,35
 1052 50 1052 50 1196 237 c 0,36,37
 1339 424 1339 424 1339 745 c 0,38,39
 1339 1010.37 1339 1010.37 1242.47 1183.95 c 1,31,-1
EndSplineSet
EndChar
StartChar: Thorn
Encoding: 222 222 222
Width: 1239
Flags: W
Fore
249 1493 m 1,0,-1
 352.5 1493 l 1,1,-1
 352.5 1201.95 l 1,2,-1
 657 1201.95 l 2,3,4
 879.72 1201.95 879.72 1201.95 996.205 1094.6 c 0,5,6
 1111.66 988.2 1111.66 988.2 1111.66 779.2 c 128,-1,7
 1111.66 570.2 1111.66 570.2 996.205 462.851 c 0,8,9
 881.645 355.5 881.645 355.5 657 355.5 c 2,10,-1
 352.5 355.5 l 1,11,-1
 352.5 0 l 1,12,-1
 249 0 l 1,13,-1
 249 1493 l 1,0,-1
352.5 1121.78 m 1,14,-1
 352.5 437 l 1,15,-1
 657 437 l 2,16,17
 824.085 437 824.085 437 915.33 526.425 c 128,-1,18
 1006.58 615.85 1006.58 615.85 1006.58 780 c 128,-1,19
 1006.58 944.15 1006.58 944.15 916.515 1032.35 c 0,20,21
 825.27 1121.78 825.27 1121.78 657 1121.78 c 2,22,-1
 352.5 1121.78 l 1,14,-1
EndSplineSet
KernsSLIFO: 8222 -188 0 0 8220 -36 0 0 58 -73 0 0 46 -149 0 0
EndChar
StartChar: germandbls
Encoding: 223 223 223
Width: 1385
Flags: W
Fore
920.529 634.269 m 18,0,-1
 849.607 676.978 l 2,1,2
 768.415 725.871 768.415 725.871 732.647 772.784 c 0,3,4
 696.564 818.957 696.564 818.957 696.564 873.209 c 0,5,6
 696.564 993.154 696.564 993.154 801.081 1049.82 c 0,7,8
 903.569 1105.38 903.569 1105.38 989.149 1126 c 1,9,10
 986.85 1324 986.85 1324 898.185 1440 c 0,11,12
 810.439 1556 810.439 1556 643 1556 c 0,13,14
 466.42 1556 466.42 1556 370.03 1446 c 0,15,16
 272.83 1337 272.83 1337 272.83 1137 c 2,17,-1
 272.83 0 l 1,18,-1
 366 0 l 1,19,-1
 366 1133 l 2,20,21
 366 1300.14 366 1300.14 441 1396.31 c 0,22,23
 511.49 1486.7 511.49 1486.7 639 1486.7 c 0,24,25
 752 1486.7 752 1486.7 818 1413.34 c 0,26,27
 871.261 1355.45 871.261 1355.45 895 1179 c 1,28,29
 774 1150 774 1150 693 1085 c 0,30,31
 600.03 1010.39 600.03 1010.39 600.03 889.52 c 0,32,33
 600.03 806.71 600.03 806.71 639.375 745.74 c 0,34,35
 681.189 681.471 681.189 681.471 767.475 630.17 c 2,36,-1
 851.655 580.12 l 2,37,38
 1011.33 485.186 1011.33 485.186 1039 444 c 0,39,40
 1081.04 381.947 1081.04 381.947 1084 295 c 0,41,42
 1087.64 188.174 1087.64 188.174 1006 117 c 0,43,44
 929 50 929 50 765.9 50 c 0,45,46
 695.575 50 695.575 50 623.8 70.8652 c 0,47,48
 597.7 78.8896 597.7 78.8896 509.25 135.065 c 1,49,-1
 509.25 41 l 1,50,51
 570.875 10 570.875 10 626.7 -12 c 0,52,53
 669.838 -29 669.838 -29 763 -29 c 0,54,55
 988.593 -29 988.593 -29 1085 60 c 0,56,57
 1185.06 152.374 1185.06 152.374 1179 309 c 0,58,59
 1173 461 1173 461 1079 535.1 c 0,60,61
 985.762 605.689 985.762 605.689 920.529 634.269 c 18,0,-1
EndSplineSet
KernsSLIFO: 8222 -83 0 0 8221 -112 0 0 8220 -112 0 0 45 38 0 0
EndChar
StartChar: ae
Encoding: 230 230 230
Width: 2011
Flags: W
Fore
679 632 m 2,0,1
 457 632 457 632 359 553 c 128,-1,2
 261 474 261 474 261 322 c 0,3,4
 261 174 261 174 342 112 c 128,-1,5
 423 50 423 50 534 50 c 0,6,7
 744 50 744 50 836 228 c 0,8,9
 929 407 929 407 929 563 c 2,10,-1
 929 632 l 1,11,-1
 679 632 l 2,0,1
1779 626 m 1,12,13
 1779 862 1779 862 1673 970 c 0,14,15
 1584 1066 1584 1066 1431 1066 c 0,16,17
 1264 1066 1264 1066 1151 966 c 0,18,19
 1047 874 1047 874 1026 626 c 1,20,-1
 1779 626 l 1,12,13
1872 606 m 2,21,-1
 1872 548 l 1,22,-1
 1022 548 l 1,23,24
 1022 279 1022 279 1127 170 c 0,25,26
 1243 50 1243 50 1472 50 c 0,27,28
 1532 50 1532 50 1631 76 c 0,29,30
 1731 103 1731 103 1829 154 c 1,31,-1
 1829 58 l 1,32,33
 1730 16 1730 16 1626 -6 c 128,-1,34
 1522 -28 1522 -28 1461 -28 c 0,35,36
 1203 -28 1203 -28 1071 112 c 0,37,38
 996 191 996 191 960 309 c 1,39,-1
 959 304 l 2,40,41
 877 81 877 81 741 20 c 0,42,43
 632 -29 632 -29 526 -29 c 0,44,45
 359 -29 359 -29 263 60 c 0,46,47
 167 150 167 150 167 324 c 128,-1,48
 167 498 167 498 292 602 c 0,49,50
 418 707 418 707 701 707 c 2,51,-1
 929 707 l 1,52,-1
 929 725 l 2,53,54
 929 873 929 873 844 970 c 0,55,56
 760 1066 760 1066 566 1066 c 0,57,58
 470 1066 470 1066 370 1030 c 0,59,60
 306 1007 306 1007 204 937 c 1,61,-1
 204 1036 l 1,62,63
 293 1091 293 1091 370 1114 c 0,64,65
 482 1147 482 1147 585 1147 c 0,66,67
 782 1147 782 1147 911 1027 c 0,68,69
 963 978 963 978 991 889 c 1,70,71
 1019 949 1019 949 1059 994 c 0,72,73
 1193 1148 1193 1148 1429 1148 c 0,74,75
 1649 1148 1649 1148 1761 1002 c 0,76,77
 1872 850 1872 850 1872 606 c 2,21,-1
EndSplineSet
EndChar
StartChar: eth
Encoding: 240 240 240
Width: 1253
Flags: W
AnchorPoint: "above" 637 1520 basechar 0
AnchorPoint: "below" 637 0 basechar 0
Fore
821 984.93 m 1,0,1
 758.371 1005.08 758.371 1005.08 703.257 1014.55 c 128,-1,2
 648.144 1024.04 648.144 1024.04 636.04 1024.04 c 0,3,4
 455.68 1024.04 455.68 1024.04 356.32 896.055 c 0,5,6
 255.88 768.075 255.88 768.075 255.88 537 c 0,7,8
 255.88 314.22 255.88 314.22 349.84 182.685 c 128,-1,9
 443.8 51.1504 443.8 51.1504 595.958 51.1504 c 0,10,11
 777.582 51.1504 777.582 51.1504 886.557 182.685 c 128,-1,12
 995.531 314.22 995.531 314.22 995.531 537 c 0,13,14
 995.531 723.571 995.531 723.571 960 796 c 0,15,16
 908 902 908 902 821 984.93 c 1,0,1
821.509 1124 m 2,17,18
 981.117 948.864 981.117 948.864 1024 856 c 0,19,20
 1087.03 719.506 1087.03 719.506 1087.03 537 c 0,21,22
 1087.03 282 1087.03 282 959.94 126 c 0,23,24
 832.85 -29 832.85 -29 627 -29 c 0,25,26
 415.146 -29 415.146 -29 288.71 126 c 0,27,28
 161.457 282 161.457 282 161.457 537 c 0,29,30
 161.457 787 161.457 787 286.003 942 c 0,31,32
 410.548 1098 410.548 1098 610 1098 c 0,33,34
 628 1098 628 1098 654 1096 c 0,35,36
 680 1093 680 1093 722 1088 c 1,37,-1
 564 1281 l 1,38,-1
 241 1172 l 1,39,-1
 214 1247 l 1,40,-1
 504 1345 l 1,41,-1
 319 1556 l 1,42,-1
 436 1556 l 1,43,-1
 593.5 1376 l 1,44,-1
 1001.5 1512.5 l 1,45,-1
 1028 1436 l 1,46,-1
 652 1310 l 1,47,-1
 821.509 1124 l 2,17,18
EndSplineSet
KernsSLIFO: 8222 -73 0 0 8221 -112 0 0 8220 -92 0 0
EndChar
StartChar: divide
Encoding: 247 247 247
Width: 1716
Flags: W
Fore
804 278 m 1,0,-1
 906 278 l 1,1,-1
 906 150 l 1,2,-1
 804 150 l 1,3,-1
 804 278 l 1,0,-1
804 1134 m 1,4,-1
 906 1134 l 1,5,-1
 906 1007 l 1,6,-1
 804 1007 l 1,7,-1
 804 1134 l 1,4,-1
215 685 m 1,8,-1
 1500 685 l 1,9,-1
 1500 603 l 1,10,-1
 215 603 l 1,11,-1
 215 685 l 1,8,-1
EndSplineSet
EndChar
StartChar: oslash
Encoding: 248 248 248
Width: 1253
Flags: W
Fore
628 1066 m 0,0,1
 457.865 1066 457.865 1066 358 929 c 128,-1,2
 258 791.815 258 791.815 258 561 c 0,3,4
 258 380.587 258 380.587 315.141 258.432 c 1,5,-1
 882.561 948.066 l 1,6,7
 785.646 1066 785.646 1066 628 1066 c 0,0,1
1094.48 1205.63 m 1,8,-1
 1165.52 1147.17 l 1,9,-1
 996.426 941.657 l 1,10,11
 1090 790.02 1090 790.02 1090 560 c 0,12,13
 1090 286.14 1090 286.14 965 126 c 128,-1,14
 840.109 -34 840.109 -34 627 -34 c 0,15,16
 427.347 -34 427.347 -34 305.441 101.844 c 1,17,-1
 151.522 -85.2268 l 1,18,-1
 80.4782 -26.7732 l 1,19,-1
 249.573 178.742 l 1,20,21
 162 328.056 162 328.056 162 560 c 0,22,23
 162 829 162 829 287 988 c 128,-1,24
 412 1147 412 1147 627 1147 c 0,25,26
 819.645 1147 819.645 1147 939.454 1017.21 c 1,27,-1
 1094.48 1205.63 l 1,8,-1
934.989 866.987 m 1,28,-1
 365.845 175.258 l 1,29,30
 463.871 50 463.871 50 628 50 c 0,31,32
 798.862 50 798.862 50 898 187 c 0,33,34
 998 325.192 998 325.192 998 561 c 0,35,36
 998 742.211 998 742.211 934.989 866.987 c 1,28,-1
EndSplineSet
EndChar
StartChar: thorn
Encoding: 254 254 254
Width: 1300
Flags: W
AnchorPoint: "above" 278 1520 basechar 0
Fore
324 254 m 1,0,-1
 324 -426 l 1,1,-1
 234 -426 l 1,2,-1
 234 1556 l 1,3,-1
 324 1556 l 1,4,-1
 324 864 l 1,5,6
 387 1010 387 1010 461 1064 c 0,7,8
 574 1147 574 1147 674 1147 c 0,9,10
 873 1147 873 1147 1005 985 c 128,-1,11
 1137 823 1137 823 1137 559 c 152,-1,12
 1137 295 1137 295 1005 133 c 128,-1,13
 873 -29 873 -29 674 -29 c 0,14,15
 574 -29 574 -29 461 54 c 0,16,17
 387 108 387 108 324 254 c 1,0,-1
325 559 m 152,-1,19
 325 286 325 286 440 169 c 0,20,21
 556 52 556 52 681 52 c 24,22,23
 809 52 809 52 924 169 c 0,24,25
 1040 286 1040 286 1040 559 c 152,-1,26
 1040 832 1040 832 924 949 c 0,27,28
 809 1066 809 1066 681 1066 c 24,29,30
 556 1066 556 1066 440 949 c 0,31,18
 325 832 325 832 325 559 c 152,-1,19
EndSplineSet
EndChar
StartChar: dcroat
Encoding: 273 273 273
Width: 1300
Flags: W
Fore
974 559 m 128,-1,1
 974 832 974 832 859 949 c 0,2,3
 743 1066 743 1066 618 1066 c 0,4,5
 490.499 1066 490.499 1066 375 949 c 0,6,7
 259 831.492 259 831.492 259 559 c 128,-1,8
 259 286.508 259 286.508 375 169 c 0,9,10
 490.499 52 490.499 52 618 52 c 0,11,12
 743 52 743 52 859 169 c 0,13,0
 974 286 974 286 974 559 c 128,-1,1
1065 1409 m 1,14,-1
 1221 1409 l 1,15,-1
 1221 1332 l 1,16,-1
 1065 1332 l 1,17,-1
 1065 0 l 1,18,-1
 975 0 l 1,19,-1
 975 254 l 1,20,21
 912.112 108.258 912.112 108.258 838 54 c 0,22,23
 724.63 -29 724.63 -29 625 -29 c 0,24,25
 426 -29 426 -29 294 133 c 128,-1,26
 162 295 162 295 162 559 c 128,-1,27
 162 823 162 823 294 985 c 128,-1,28
 426 1147 426 1147 625 1147 c 0,29,30
 724.63 1147 724.63 1147 838 1064 c 0,31,32
 912.112 1009.74 912.112 1009.74 975 864 c 1,33,-1
 975 1332 l 1,34,-1
 646.5 1332 l 1,35,-1
 646.5 1409 l 1,36,-1
 975 1409 l 1,37,-1
 975 1556 l 1,38,-1
 1065 1556 l 1,39,-1
 1065 1409 l 1,14,-1
EndSplineSet
EndChar
StartChar: Hbar
Encoding: 294 294 294
Width: 1876
Flags: W
Fore
416 1493.59 m 1,0,-1
 516 1493.59 l 1,1,-1
 516 1188.59 l 1,2,-1
 1352 1188.59 l 1,3,-1
 1352 1493.59 l 1,4,-1
 1452 1493.59 l 1,5,-1
 1452 1188.59 l 1,6,-1
 1620 1188.59 l 1,7,-1
 1620 1105.59 l 1,8,-1
 1452 1105.59 l 1,9,-1
 1452 0.589844 l 1,10,-1
 1352 0.589844 l 1,11,-1
 1352 756 l 1,12,-1
 516 756 l 1,13,-1
 516 0.589844 l 1,14,-1
 416 0.589844 l 1,15,-1
 416 1105.59 l 1,16,-1
 248 1105.59 l 1,17,-1
 248 1188.59 l 1,18,-1
 416 1188.59 l 1,19,-1
 416 1493.59 l 1,0,-1
516 1105.59 m 1,20,-1
 516 837 l 1,21,-1
 1352 837 l 1,22,-1
 1352 1105.59 l 1,23,-1
 516 1105.59 l 1,20,-1
EndSplineSet
EndChar
StartChar: hbar
Encoding: 295 295 295
Width: 1423
Flags: W
AnchorPoint: "above" 337 1520 basechar 0
AnchorPoint: "below" 720 0 basechar 0
Fore
1138 676 m 2,0,-1
 1138 0 l 1,1,-1
 1046 0 l 1,2,-1
 1046 670 l 2,3,4
 1046 886 1046 886 973 976 c 128,-1,5
 900 1066 900 1066 752 1066 c 0,6,7
 582 1066 582 1066 483 966 c 128,-1,8
 384 866 384 866 384 633 c 2,9,-1
 384 0 l 1,10,-1
 292 0 l 1,11,-1
 292 1332 l 1,12,-1
 144 1332 l 1,13,-1
 144 1409 l 1,14,-1
 292 1409 l 1,15,-1
 292 1556 l 1,16,-1
 384 1556 l 1,17,-1
 384 1409 l 1,18,-1
 761 1409 l 1,19,-1
 761 1332 l 1,20,-1
 384 1332 l 1,21,-1
 384 913 l 1,22,23
 415.793 998.443 415.793 998.443 498 1066 c 0,24,25
 596.565 1147 596.565 1147 774 1147 c 0,26,27
 940 1147 940 1147 1039 1028 c 0,28,29
 1138 908 1138 908 1138 676 c 2,0,-1
EndSplineSet
EndChar
StartChar: dotlessi
Encoding: 305 305 305
Width: 569
Flags: W
AnchorPoint: "above" 278 1148 basechar 0
Fore
230 1120 m 1,0,-1
 322 1120 l 1,1,-1
 322 0 l 1,2,-1
 230 0 l 1,3,-1
 230 1120 l 1,0,-1
EndSplineSet
EndChar
StartChar: kgreenlandic
Encoding: 312 312 312
Width: 1186
Flags: W
Fore
228 1120 m 1,0,-1
 332 1120 l 1,1,-1
 332 652 l 1,2,-1
 974 1120 l 1,3,-1
 1130 1120 l 1,4,-1
 410 598 l 1,5,-1
 1180 0 l 1,6,-1
 1028 0 l 1,7,-1
 332 545 l 1,8,-1
 332 0 l 1,9,-1
 228 0 l 1,10,-1
 228 1120 l 1,0,-1
EndSplineSet
EndChar
StartChar: Lslash
Encoding: 321 321 321
Width: 1151
Flags: W
Fore
250 1493 m 1,0,-1
 350 1493 l 1,1,-1
 350 810.2 l 1,2,-1
 739.051 1082.38 l 1,3,-1
 796.949 999.621 l 1,4,-1
 350 686.937 l 1,5,-1
 350 82 l 1,6,-1
 1077 82 l 1,7,-1
 1077 0 l 1,8,-1
 250 0 l 1,9,-1
 250 616.977 l 1,10,-1
 52.9487 479.121 l 1,11,-1
 -4.94865 561.879 l 1,12,-1
 250 740.24 l 1,13,-1
 250 1493 l 1,0,-1
EndSplineSet
EndChar
StartChar: lslash
Encoding: 322 322 322
Width: 582
Flags: W
Fore
245 1556 m 1,0,-1
 337 1556 l 1,1,-1
 337 901.983 l 1,2,-1
 517.718 1031.4 l 1,3,-1
 571.282 956.601 l 1,4,-1
 337 788.826 l 1,5,-1
 337 0 l 1,6,-1
 245 0 l 1,7,-1
 245 722.943 l 1,8,-1
 65.7824 594.601 l 1,9,-1
 12.2176 669.399 l 1,10,-1
 245 836.1 l 1,11,-1
 245 1556 l 1,0,-1
EndSplineSet
EndChar
StartChar: Eng
Encoding: 330 330 330
Width: 1550
Flags: W
Fore
1141 1493 m 1,0,-1
 1241 1493 l 1,1,-1
 1241 104 l 2,2,3
 1241 -142 1241 -142 1175 -253 c 128,-1,4
 1109 -364 1109 -364 963 -364 c 2,5,-1
 729 -364 l 1,6,-1
 729 -281 l 1,7,-1
 951 -281 l 2,8,9
 1055 -281 1055 -281 1098 -197 c 0,10,11
 1121.88 -150.342 1121.88 -150.342 1132.5 -62.6484 c 1,12,-1
 371 1374 l 1,13,-1
 371 0 l 1,14,-1
 269 0 l 1,15,-1
 269 1493 l 1,16,-1
 417 1493 l 1,17,-1
 1141 128 l 1,18,-1
 1141 1493 l 1,0,-1
EndSplineSet
EndChar
StartChar: eng
Encoding: 331 331 331
Width: 1298
Flags: W
AnchorPoint: "above" 649 1147 basechar 0
AnchorPoint: "below" 649 -430 basechar 0
Fore
986 0 m 2,0,-1
 986 670 l 2,1,2
 986 888 986 888 916 977 c 128,-1,3
 846 1066 846 1066 710 1066 c 0,4,5
 551 1066 551 1066 438 970 c 0,6,7
 324 873 324 873 324 633 c 2,8,-1
 324 0 l 1,9,-1
 232 0 l 1,10,-1
 232 1120 l 1,11,-1
 324 1120 l 1,12,-1
 324 910 l 1,13,14
 372.674 1011.32 372.674 1011.32 453 1066 c 0,15,16
 571.994 1147 571.994 1147 714 1147 c 0,17,18
 879.559 1147 879.559 1147 979 1034 c 0,19,20
 1078 921.501 1078 921.501 1078 676 c 2,21,-1
 1078 0 l 2,22,23
 1078 -228 1078 -228 1009 -317 c 0,24,25
 939 -406 939 -406 780 -406 c 2,26,-1
 710 -406 l 1,27,-1
 710 -328 l 1,28,-1
 759 -328 l 2,29,30
 871 -328 871 -328 929 -278 c 0,31,32
 986 -228 986 -228 986 0 c 2,0,-1
EndSplineSet
EndChar
StartChar: OE
Encoding: 338 338 338
Width: 2191
Flags: W
Fore
1138 79.876 m 1,0,-1
 1138 1412.04 l 1,1,2
 741.429 1411.77 741.429 1411.77 506.578 1233.08 c 0,3,4
 273 1054.12 273 1054.12 273 745 c 0,5,6
 273 437.799 273 437.799 506.578 258.84 c 0,7,8
 741.606 80.0088 741.606 80.0088 1138 79.876 c 1,0,-1
1138 0 m 1,9,10
 695.581 0 695.581 0 430.91 201.713 c 0,11,12
 167 404.002 167 404.002 167 745 c 0,13,14
 167 1088.12 167 1088.12 430.91 1289.25 c 0,15,16
 700.187 1493 700.187 1493 1138 1493 c 2,17,-1
 1982 1493 l 1,18,-1
 1982 1410 l 1,19,-1
 1240 1410 l 1,20,-1
 1240 837 l 1,21,-1
 1951 837 l 1,22,-1
 1951 756 l 1,23,-1
 1240 756 l 1,24,-1
 1240 81 l 1,25,-1
 2000 81 l 1,26,-1
 2000 0 l 1,27,-1
 1138 0 l 1,9,10
EndSplineSet
EndChar
StartChar: oe
Encoding: 339 339 339
Width: 2095
Flags: W
AnchorPoint: "above" 1044 1147 basechar 0
Fore
1848 626.5 m 1,0,1
 1848 859.607 1848 859.607 1742 970.5 c 0,2,3
 1650.24 1066.5 1650.24 1066.5 1500 1066.5 c 0,4,5
 1333 1066.5 1333 1066.5 1220 966.5 c 0,6,7
 1116 873.5 1116 873.5 1095 626.5 c 1,8,-1
 1848 626.5 l 1,0,1
1941 606.5 m 2,9,-1
 1941 548.5 l 1,10,-1
 1091 548.5 l 1,11,12
 1091 278.81 1091 278.81 1196 170.5 c 0,13,14
 1312.33 50.5 1312.33 50.5 1541 50.5 c 0,15,16
 1600.5 50.5 1600.5 50.5 1700 76.5 c 0,17,18
 1800.49 102.759 1800.49 102.759 1898 154.5 c 1,19,-1
 1898 57.5 l 1,20,21
 1799 15.5 1799 15.5 1695 -6.5 c 128,-1,22
 1591 -28.5 1591 -28.5 1530 -28.5 c 0,23,24
 1273.42 -28.5 1273.42 -28.5 1140 111.5 c 0,25,26
 1078.17 176.379 1078.17 176.379 1043.26 267.612 c 1,27,28
 1013.56 188.213 1013.56 188.213 965 126 c 0,29,30
 840.109 -34 840.109 -34 627 -34 c 0,31,32
 411 -34 411 -34 286 125 c 0,33,34
 162 284 162 284 162 560 c 0,35,36
 162 829 162 829 287 988 c 128,-1,37
 412 1147 412 1147 627 1147 c 0,38,39
 840.888 1147 840.888 1147 965 987 c 0,40,41
 1013.38 924.631 1013.38 924.631 1043.03 846.576 c 1,42,43
 1074.51 932.971 1074.51 932.971 1128 994.5 c 0,44,45
 1261 1147.5 1261 1147.5 1498 1147.5 c 0,46,47
 1721.13 1147.5 1721.13 1147.5 1830 1002.5 c 0,48,49
 1941 854.666 1941 854.666 1941 606.5 c 2,9,-1
628 1066 m 0,50,51
 457.865 1066 457.865 1066 358 929 c 128,-1,52
 258 791.815 258 791.815 258 561 c 0,53,54
 258 323.499 258 323.499 357 187 c 0,55,56
 456.364 50 456.364 50 628 50 c 0,57,58
 798.862 50 798.862 50 898 187 c 0,59,60
 996.651 323.328 996.651 323.328 997.998 554.697 c 0,61,62
 998.02 558.443 998.02 558.443 998 561 c 0,63,64
 998 789.305 998 789.305 898 928 c 0,65,66
 798.501 1066 798.501 1066 628 1066 c 0,50,51
EndSplineSet
EndChar
StartChar: Tbar
Encoding: 358 358 358
Width: 1251
Flags: W
TeX: 0 0 0 0
Fore
45 1493 m 1,0,-1
 1206 1493 l 1,1,-1
 1206 1411 l 1,2,-1
 676 1411 l 1,3,-1
 676 739 l 1,4,-1
 995 739 l 1,5,-1
 995 659 l 1,6,-1
 676 659 l 1,7,-1
 676 0 l 1,8,-1
 575 0 l 1,9,-1
 575 659 l 1,10,-1
 255 659 l 1,11,-1
 255 739 l 1,12,-1
 575 739 l 1,13,-1
 575 1411 l 1,14,-1
 45 1411 l 1,15,-1
 45 1493 l 1,0,-1
EndSplineSet
EndChar
StartChar: tbar
Encoding: 359 359 359
Width: 803
Flags: W
TeX: 0 0 0 0
Fore
329 1438 m 1,0,-1
 329 1120 l 1,1,-1
 708 1120 l 1,2,-1
 708 1042 l 1,3,-1
 329 1042 l 1,4,-1
 329 704.5 l 1,5,-1
 555 704.5 l 1,6,-1
 555 626.5 l 1,7,-1
 329 626.5 l 1,8,-1
 329 369 l 2,9,10
 329 241 329 241 362 190 c 0,11,12
 430 78 430 78 560 78 c 2,13,-1
 708 78 l 1,14,-1
 708 0 l 1,15,-1
 565 0 l 2,16,17
 428 0 428 0 332 80 c 128,-1,18
 236 160 236 160 236 369 c 2,19,-1
 236 626.5 l 1,20,-1
 102 626.5 l 1,21,-1
 102 704.5 l 1,22,-1
 236 704.5 l 1,23,-1
 236 1042 l 1,24,-1
 102 1042 l 1,25,-1
 102 1120 l 1,26,-1
 236 1120 l 1,27,-1
 236 1438 l 1,28,-1
 329 1438 l 1,0,-1
EndSplineSet
EndChar
StartChar: longs
Encoding: 383 383 383
Width: 721
Flags: W
TeX: 0 0 0 0
Fore
714 1556 m 1,0,-1
 714 1478 l 1,1,-1
 584 1478 l 2,2,3
 482 1478 482 1478 428 1425 c 0,4,5
 362 1360 362 1360 362 1219 c 2,6,-1
 362 0 l 1,7,-1
 269 0 l 1,8,-1
 269 1042 l 1,9,-1
 93 1042 l 1,10,-1
 93 1120 l 1,11,-1
 269 1120 l 1,12,-1
 269 1198 l 2,13,14
 269 1385 269 1385 354 1470 c 0,15,16
 438 1556 438 1556 586 1556 c 2,17,-1
 714 1556 l 1,0,-1
EndSplineSet
EndChar
StartChar: uni0186
Encoding: 390 390 390
Width: 1430
Flags: W
TeX: 117 0 0 0
AnchorPoint: "below" 645 0 basechar 0
AnchorPoint: "above" 645 1520 basechar 0
Fore
170 1369 m 1,0,1
 274 1445 274 1445 393 1482 c 0,2,3
 511 1520 511 1520 645 1520 c 0,4,5
 959 1520 959 1520 1139 1312 c 0,6,7
 1319 1105 1319 1105 1319 745 c 0,8,9
 1319 386 1319 386 1139 178 c 0,10,11
 959 -29 959 -29 645 -29 c 0,12,13
 513 -29 513 -29 395 7 c 0,14,15
 276 43 276 43 170 115 c 1,16,-1
 170 236 l 1,17,18
 272 143 272 143 387 96 c 0,19,20
 503 50 503 50 633 50 c 0,21,22
 915 50 915 50 1064 229 c 0,23,24
 1214 408 1214 408 1214 745 c 128,-1,25
 1214 1082 1214 1082 1064 1260 c 0,26,27
 915 1438 915 1438 633 1438 c 0,28,29
 503 1438 503 1438 387 1392 c 0,30,31
 272 1347 272 1347 170 1254 c 1,32,-1
 170 1369 l 1,0,1
EndSplineSet
EndChar
StartChar: uni018E
Encoding: 398 398 398
Width: 1294
Flags: W
TeX: 117 0 0 0
AnchorPoint: "below" 690 0 basechar 0
AnchorPoint: "above" 690 1520 basechar 0
Fore
1111 1493 m 1,0,-1
 1111 0 l 1,1,-1
 249 0 l 1,2,-1
 249 81 l 1,3,-1
 1009 81 l 1,4,-1
 1009 756 l 1,5,-1
 298 756 l 1,6,-1
 298 837 l 1,7,-1
 1009 837 l 1,8,-1
 1009 1410 l 1,9,-1
 267 1410 l 1,10,-1
 267 1493 l 1,11,-1
 1111 1493 l 1,0,-1
EndSplineSet
EndChar
StartChar: uni01C0
Encoding: 448 448 448
Width: 604
Flags: W
TeX: 117 0 0 0
Fore
251.5 1493 m 1,0,-1
 352.5 1493 l 1,1,-1
 352.5 -426 l 1,2,-1
 251.5 -426 l 1,3,-1
 251.5 1493 l 1,0,-1
EndSplineSet
EndChar
StartChar: uni01C2
Encoding: 450 450 450
Width: 940
Flags: W
TeX: 117 0 0 0
Fore
421.5 1493 m 1,0,-1
 522.5 1493 l 1,1,-1
 522.5 876 l 1,2,-1
 888 876 l 1,3,-1
 888 792 l 1,4,-1
 522.5 792 l 1,5,-1
 522.5 383 l 1,6,-1
 888 383 l 1,7,-1
 888 298 l 1,8,-1
 522.5 298 l 1,9,-1
 522.5 -426 l 1,10,-1
 421.5 -426 l 1,11,-1
 421.5 298 l 1,12,-1
 56 298 l 1,13,-1
 56 383 l 1,14,-1
 421.5 383 l 1,15,-1
 421.5 792 l 1,16,-1
 56 792 l 1,17,-1
 56 876 l 1,18,-1
 421.5 876 l 1,19,-1
 421.5 1493 l 1,0,-1
EndSplineSet
EndChar
StartChar: dotlessj
Encoding: 567 567 567
Width: 569
Flags: W
Fore
239 1120 m 1,0,-1
 331 1120 l 1,1,-1
 331 -20 l 2,2,3
 331 -248 331 -248 262 -337 c 0,4,5
 192 -426 192 -426 33 -426 c 2,6,-1
 -37 -426 l 1,7,-1
 -37 -348 l 1,8,-1
 12 -348 l 2,9,10
 124 -348 124 -348 182 -298 c 0,11,12
 239 -248 239 -248 239 -20 c 2,13,-1
 239 1120 l 1,0,-1
EndSplineSet
EndChar
StartChar: uni0250
Encoding: 592 592 592
Width: 1257
Flags: W
AnchorPoint: "above" 596 1147 basechar 0
AnchorPoint: "below" 596 0 basechar 0
Fore
522 486 m 2,0,1
 744 486 744 486 842 565 c 128,-1,2
 940 644 940 644 940 796 c 0,3,4
 940 944 940 944 859 1006 c 128,-1,5
 778 1068 778 1068 667 1068 c 0,6,7
 457 1068 457 1068 365 890 c 0,8,9
 272 712 272 712 272 555 c 2,10,-1
 272 486 l 1,11,-1
 522 486 l 2,0,1
179 479 m 2,12,-1
 179 1118 l 1,13,-1
 270 1118 l 1,14,-1
 270 814 l 1,15,16
 347 1037 347 1037 474 1098 c 0,17,18
 575 1147 575 1147 675 1147 c 0,19,20
 842 1147 842 1147 938 1058 c 0,21,22
 1034 968 1034 968 1034 794 c 128,-1,23
 1034 620 1034 620 909 516 c 0,24,25
 784 411 784 411 500 411 c 2,26,-1
 272 411 l 1,27,-1
 272 393 l 2,28,29
 272 244 272 244 357 148 c 0,30,31
 441 52 441 52 635 52 c 0,32,33
 731 52 731 52 831 88 c 0,34,35
 895 111 895 111 997 181 c 1,36,-1
 997 82 l 1,37,38
 908 27 908 27 831 4 c 0,39,40
 719 -29 719 -29 616 -29 c 0,41,42
 418 -29 418 -29 290 91 c 0,43,44
 179 194 179 194 179 479 c 2,12,-1
EndSplineSet
EndChar
StartChar: uni0251
Encoding: 593 593 593
Width: 1300
Flags: W
TeX: 0 0 0 0
AnchorPoint: "above" 676 1147 basechar 0
AnchorPoint: "below" 676 0 basechar 0
Fore
1047 864 m 1,0,-1
 1047 1120 l 1,1,-1
 1137 1120 l 1,2,-1
 1137 0 l 1,3,-1
 1047 0 l 1,4,-1
 1047 254 l 1,5,6
 984 108 984 108 910 54 c 0,7,8
 797 -29 797 -29 697 -29 c 0,9,10
 498 -29 498 -29 366 133 c 128,-1,11
 234 295 234 295 234 559 c 152,-1,12
 234 823 234 823 366 985 c 128,-1,13
 498 1147 498 1147 697 1147 c 0,14,15
 797 1147 797 1147 910 1064 c 0,16,17
 984 1010 984 1010 1047 864 c 1,0,-1
1046 559 m 152,-1,19
 1046 832 1046 832 931 949 c 0,20,21
 815 1066 815 1066 690 1066 c 24,22,23
 562 1066 562 1066 447 949 c 0,24,25
 331 832 331 832 331 559 c 152,-1,26
 331 286 331 286 447 169 c 0,27,28
 562 52 562 52 690 52 c 24,29,30
 815 52 815 52 931 169 c 0,31,18
 1046 286 1046 286 1046 559 c 152,-1,19
EndSplineSet
EndChar
StartChar: uni0252
Encoding: 594 594 594
Width: 1300
Flags: W
TeX: 0 0 0 0
AnchorPoint: "above" 695 1147 basechar 0
AnchorPoint: "below" 695 0 basechar 0
Fore
324 864 m 1,0,1
 387 1010 387 1010 461 1064 c 0,2,3
 574 1147 574 1147 674 1147 c 0,4,5
 873 1147 873 1147 1005 985 c 128,-1,6
 1137 823 1137 823 1137 559 c 152,-1,7
 1137 295 1137 295 1005 133 c 128,-1,8
 873 -29 873 -29 674 -29 c 0,9,10
 574 -29 574 -29 461 54 c 0,11,12
 387 108 387 108 324 254 c 1,13,-1
 324 0 l 1,14,-1
 234 0 l 1,15,-1
 234 1120 l 1,16,-1
 324 1120 l 1,17,-1
 324 864 l 1,0,1
325 559 m 152,-1,19
 325 286 325 286 440 169 c 0,20,21
 556 52 556 52 681 52 c 24,22,23
 809 52 809 52 924 169 c 0,24,25
 1040 286 1040 286 1040 559 c 152,-1,26
 1040 832 1040 832 924 949 c 0,27,28
 809 1066 809 1066 681 1066 c 24,29,30
 556 1066 556 1066 440 949 c 0,31,18
 325 832 325 832 325 559 c 152,-1,19
EndSplineSet
EndChar
StartChar: uni0254
Encoding: 596 596 596
Width: 1126
Flags: W
AnchorPoint: "below" 461 0 basechar 0
AnchorPoint: "above" 461 1147 basechar 0
Fore
999 559 m 152,-1,1
 999 880 999 880 854 1014 c 0,2,3
 709 1147 709 1147 463 1147 c 0,4,5
 383 1147 383 1147 293 1124 c 0,6,7
 203 1102 203 1102 140 1066 c 1,8,-1
 140 968 l 1,9,10
 223 1019 223 1019 277 1037 c 0,11,12
 370 1066 370 1066 455 1066 c 0,13,14
 697 1066 697 1066 802 942 c 128,-1,15
 907 818 907 818 907 559 c 24,16,17
 907 298 907 298 802 174 c 128,-1,18
 697 50 697 50 455 50 c 24,19,20
 375 50 375 50 297 72 c 0,21,22
 218 93 218 93 140 136 c 1,23,-1
 140 43 l 1,24,25
 217 7 217 7 299 -11 c 0,26,27
 382 -29 382 -29 463 -29 c 24,28,29
 709 -29 709 -29 854 104 c 0,30,0
 999 238 999 238 999 559 c 152,-1,1
EndSplineSet
EndChar
StartChar: uni0258
Encoding: 600 600 600
Width: 1260
Flags: W
AnchorPoint: "below" 660 0 basechar 0
AnchorPoint: "above" 653 1147 basechar 0
Fore
162 606 m 1,0,1
 162 850 162 850 273 1002 c 0,2,3
 385 1147 385 1147 605 1147 c 0,4,5
 842 1147 842 1147 975 994 c 0,6,7
 1105 847 1105 847 1105 548 c 0,8,9
 1105 260 1105 260 963 111 c 0,10,11
 832 -29 832 -29 573 -29 c 0,12,13
 512 -29 512 -29 408 -7 c 128,-1,14
 304 15 304 15 205 57 c 1,15,-1
 205 154 l 1,16,17
 303 102 303 102 403 76 c 0,18,19
 502 50 502 50 562 50 c 0,20,21
 791 50 791 50 907 170 c 0,22,23
 1012 278 1012 278 1012 548 c 1,24,-1
 162 548 l 1,25,-1
 162 606 l 1,0,1
255 626 m 1,26,-1
 1008 626 l 1,27,28
 987 873 987 873 883 966 c 0,29,30
 770 1066 770 1066 603 1066 c 0,31,32
 450 1066 450 1066 361 970 c 0,33,34
 255 862 255 862 255 626 c 1,26,-1
EndSplineSet
EndChar
StartChar: uni0259
Encoding: 601 601 601
Width: 1260
Flags: W
AnchorPoint: "above" 653 1147 basechar 0
AnchorPoint: "below" 660 0 basechar 0
Fore
162 512 m 1,0,-1
 162 570 l 1,1,-1
 1012 570 l 1,2,3
 1012 840 1012 840 907 948 c 0,4,5
 791 1068 791 1068 562 1068 c 0,6,7
 502 1068 502 1068 403 1042 c 0,8,9
 303 1016 303 1016 205 964 c 1,10,-1
 205 1061 l 1,11,12
 304 1103 304 1103 408 1125 c 128,-1,13
 512 1147 512 1147 573 1147 c 0,14,15
 832 1147 832 1147 963 1007 c 0,16,17
 1105 858 1105 858 1105 570 c 0,18,19
 1105 271 1105 271 975 124 c 0,20,21
 842 -29 842 -29 605 -29 c 0,22,23
 385 -29 385 -29 273 116 c 0,24,25
 162 268 162 268 162 512 c 1,0,-1
255 492 m 1,26,27
 255 256 255 256 361 148 c 0,28,29
 450 52 450 52 603 52 c 0,30,31
 770 52 770 52 883 152 c 0,32,33
 987 245 987 245 1008 492 c 1,34,-1
 255 492 l 1,26,27
EndSplineSet
EndChar
StartChar: uni02BE
Encoding: 702 702 702
Width: 629
Flags: W
TeX: 117 0 0 0
Fore
117 1007 m 9,0,1
 117 1068 117 1068 117 1130 c 1,2,3
 181 1130 181 1130 225 1174 c 128,-1,4
 269 1218 269 1218 269 1282 c 0,5,6
 269 1345 269 1345 225 1389 c 128,-1,7
 181 1433 181 1433 117 1433 c 1,8,9
 117 1494 117 1494 117 1556 c 17,10,11
 232 1556 232 1556 312 1476 c 0,12,13
 391 1397 391 1397 391 1282 c 128,-1,14
 391 1167 391 1167 312 1087 c 0,15,16
 232 1007 232 1007 117 1007 c 9,0,1
EndSplineSet
EndChar
StartChar: circumflex
Encoding: 710 710 710
Width: 1024
Flags: W
Fore
471 1638 m 1,0,-1
 556 1638 l 1,1,-1
 800 1262 l 1,2,-1
 721 1262 l 1,3,-1
 514 1541 l 1,4,-1
 306 1262 l 1,5,-1
 226 1262 l 1,6,-1
 471 1638 l 1,0,-1
EndSplineSet
EndChar
StartChar: caron
Encoding: 711 711 711
Width: 1024
Flags: W
Fore
555 1262 m 1,0,-1
 470 1262 l 1,1,-1
 226 1638 l 1,2,-1
 305 1638 l 1,3,-1
 512 1359 l 1,4,-1
 720 1638 l 1,5,-1
 800 1638 l 1,6,-1
 555 1262 l 1,0,-1
EndSplineSet
EndChar
StartChar: breve
Encoding: 728 728 728
Width: 1024
Flags: W
Fore
199 1608 m 1,0,-1
 278 1608 l 1,1,2
 291.2 1506.75 291.2 1506.75 348.8 1456.8 c 0,3,4
 407.6 1405.5 407.6 1405.5 512 1405.5 c 0,5,6
 615.2 1405.5 615.2 1405.5 672.8 1455.45 c 128,-1,7
 730.4 1505.4 730.4 1505.4 746 1608 c 1,8,-1
 825 1608 l 1,9,10
 815 1465 815 1465 736 1393 c 128,-1,11
 657 1321 657 1321 512 1321 c 128,-1,12
 367 1321 367 1321 288 1393 c 128,-1,13
 209 1465 209 1465 199 1608 c 1,0,-1
EndSplineSet
Ligature: 0 1 'liga' space uni0306
EndChar
StartChar: dotaccent
Encoding: 729 729 729
Width: 1024
Flags: W
Fore
466 1479 m 1,0,-1
 558 1479 l 1,1,-1
 558 1348 l 1,2,-1
 466 1348 l 1,3,-1
 466 1479 l 1,0,-1
EndSplineSet
LCarets: 0 65535 '    ' 1 0 
Ligature: 0 1 'liga' space uni0307
EndChar
StartChar: ring
Encoding: 730 730 730
Width: 1024
Flags: W
Fore
664 1524 m 0,0,1
 664 1587 664 1587 620 1631 c 128,-1,2
 576 1675 576 1675 512 1675 c 0,3,4
 447 1675 447 1675 404 1632 c 0,5,6
 360 1588 360 1588 360 1524 c 0,7,8
 360 1459 360 1459 404 1416 c 0,9,10
 447 1372 447 1372 512 1372 c 0,11,12
 576 1372 576 1372 620 1416 c 128,-1,13
 664 1460 664 1460 664 1524 c 0,0,1
758 1524 m 128,-1,15
 758 1421 758 1421 686 1349 c 0,16,17
 615 1277 615 1277 512 1277 c 128,-1,18
 409 1277 409 1277 338 1349 c 0,19,20
 266 1421 266 1421 266 1524 c 128,-1,21
 266 1627 266 1627 338 1698 c 0,22,23
 409 1770 409 1770 512 1770 c 128,-1,24
 615 1770 615 1770 686 1698 c 0,25,14
 758 1627 758 1627 758 1524 c 128,-1,15
EndSplineSet
LCarets: 0 65535 '    ' 1 0 
Ligature: 0 1 'liga' space uni030A
EndChar
StartChar: ogonek
Encoding: 731 731 731
Width: 1024
Flags: W
Fore
458 0 m 1,0,-1
 543 0 l 1,1,2
 495 -69 495 -69 472 -118 c 0,3,4
 448 -166 448 -166 448 -200 c 0,5,6
 448 -252 448 -252 481 -279 c 0,7,8
 513 -306 513 -306 577 -306 c 0,9,10
 628 -306 628 -306 668 -298 c 0,11,12
 708 -289 708 -289 744 -270 c 1,13,-1
 746 -363 l 1,14,15
 705 -374 705 -374 664 -380 c 128,-1,16
 623 -386 623 -386 579 -386 c 0,17,18
 468 -386 468 -386 411 -342 c 0,19,20
 355 -297 355 -297 355 -210 c 0,21,22
 355 -163 355 -163 380 -112 c 0,23,24
 406 -61 406 -61 458 0 c 1,0,-1
EndSplineSet
LCarets: 0 65535 '    ' 1 0 
Ligature: 0 1 'liga' space uni0328
EndChar
StartChar: tilde
Encoding: 732 732 732
Width: 1024
Flags: W
Fore
508 1392 m 2,0,-1
 451 1447 l 2,1,2
 437 1460 437 1460 412 1476 c 0,3,4
 396 1486 396 1486 383 1486 c 0,5,6
 345 1486 345 1486 327 1450 c 0,7,8
 309 1413 309 1413 307 1331 c 1,9,-1
 212 1331 l 1,10,11
 213 1445 213 1445 257 1508 c 0,12,13
 300 1570 300 1570 377 1570 c 0,14,15
 415 1570 415 1570 447 1556 c 0,16,17
 484 1540 484 1540 516 1509 c 2,18,-1
 573 1454 l 2,19,20
 587 1441 587 1441 612 1425 c 0,21,22
 628 1415 628 1415 641 1415 c 0,23,24
 679 1415 679 1415 697 1451 c 0,25,26
 715 1488 715 1488 717 1570 c 1,27,-1
 809 1570 l 1,28,29
 808 1464 808 1464 765 1398 c 0,30,31
 723 1331 723 1331 647 1331 c 0,32,33
 609 1331 609 1331 577 1345 c 0,34,35
 540 1361 540 1361 508 1392 c 2,0,-1
EndSplineSet
Ligature: 0 1 'liga' space tildecomb
EndChar
StartChar: hungarumlaut
Encoding: 733 733 733
Width: 1024
Flags: W
Fore
776 1636 m 1,0,-1
 904 1636 l 1,1,-1
 668 1260 l 1,2,-1
 586 1260 l 1,3,-1
 776 1636 l 1,0,-1
456 1638 m 1,4,-1
 584 1638 l 1,5,-1
 348 1262 l 1,6,-1
 266 1262 l 1,7,-1
 456 1638 l 1,4,-1
EndSplineSet
LCarets: 0 65535 '    ' 1 0 
Ligature: 0 1 'liga' space uni030B
EndChar
StartChar: uni030D
Encoding: 781 781 781
Width: 0
Flags: W
TeX: 117 0 0 0
AnchorPoint: "above-mark" -512 1704 basemark 0
AnchorPoint: "above-mark" -512 1147 mark 0
AnchorPoint: "above" -512 1147 mark 0
Fore
-468.48 1704 m 1,0,-1
 -468.48 1260 l 1,1,-1
 -555.52 1260 l 1,2,-1
 -555.52 1704 l 1,3,-1
 -468.48 1704 l 1,0,-1
EndSplineSet
EndChar
StartChar: uni030F
Encoding: 783 783 783
Width: 0
Flags: W
TeX: 117 0 0 0
AnchorPoint: "above-mark" -512 1640 basemark 0
AnchorPoint: "above-mark" -512 1147 mark 0
AnchorPoint: "above" -512 1147 mark 0
Fore
-768 1636 m 1,0,-1
 -578 1260 l 1,1,-1
 -660 1260 l 1,2,-1
 -896 1636 l 1,3,-1
 -768 1636 l 1,0,-1
-448 1638 m 1,4,-1
 -258 1262 l 1,5,-1
 -340 1262 l 1,6,-1
 -576 1638 l 1,7,-1
 -448 1638 l 1,4,-1
EndSplineSet
Substitution: 0 65534 'sd01' Doubleacute
EndChar
StartChar: uni0312
Encoding: 786 786 786
Width: 0
Flags: W
TeX: 0 0 0 0
AnchorPoint: "above" -374 879 mark 0
Fore
-324.5 1001 m 1,0,-1
 -430 1001 l 1,1,-1
 -290.5 1320 l 1,2,-1
 -226 1320 l 1,3,-1
 -324.5 1001 l 1,0,-1
EndSplineSet
EndChar
StartChar: uni0315
Encoding: 789 789 789
Width: 0
Flags: W
TeX: 117 0 0 0
Fore
-13.5 1556 m 1,0,-1
 86 1556 l 1,1,-1
 -21.5 1178 l 1,2,-1
 -98 1178 l 1,3,-1
 -13.5 1556 l 1,0,-1
EndSplineSet
EndChar
StartChar: uni031B
Encoding: 795 795 795
Width: 0
Flags: W
TeX: 117 0 0 0
Fore
-252 885 m 1,0,-1
 -252 970 l 1,1,2
 -183 922 -183 922 -134 899 c 0,3,4
 -86 875 -86 875 -52 875 c 0,5,6
 0 875 0 875 27 908 c 0,7,8
 54 940 54 940 54 1004 c 0,9,10
 54 1055 54 1055 46 1095 c 0,11,12
 37 1135 37 1135 18 1171 c 1,13,-1
 111 1173 l 1,14,15
 122 1132 122 1132 128 1091 c 128,-1,16
 134 1050 134 1050 134 1006 c 0,17,18
 134 895 134 895 90 838 c 0,19,20
 45 782 45 782 -42 782 c 0,21,22
 -89 782 -89 782 -140 807 c 0,23,24
 -191 833 -191 833 -252 885 c 1,0,-1
EndSplineSet
EndChar
StartChar: uni0326
Encoding: 806 806 806
Width: 0
Flags: W
AnchorPoint: "below" -512 -1 mark 0
Fore
-533.5 -172 m 1,0,-1
 -428 -172 l 1,1,-1
 -566 -492 l 1,2,-1
 -630.5 -492 l 1,3,-1
 -533.5 -172 l 1,0,-1
EndSplineSet
EndChar
StartChar: uni0334
Encoding: 820 820 820
Width: 0
Flags: W
TeX: 117 0 0 0
Fore
-83 703 m 1,0,-1
 -83 606 l 1,1,2
 -158 547 -158 547 -229.5 519.5 c 128,-1,3
 -301 492 -301 492 -380 492 c 0,4,5
 -470 492 -470 492 -583 543 c 0,6,7
 -605 553 -605 553 -616 557 c 0,8,9
 -693 590 -693 590 -744.5 602 c 128,-1,10
 -796 614 -796 614 -847 614 c 0,11,12
 -926 614 -926 614 -996.5 584.5 c 128,-1,13
 -1067 555 -1067 555 -1140 492 c 1,14,-1
 -1140 589 l 1,15,16
 -1062 649 -1062 649 -989 676 c 128,-1,17
 -916 703 -916 703 -833 703 c 0,18,19
 -780 703 -780 703 -730 692 c 128,-1,20
 -680 681 -680 681 -606 650 c 0,21,22
 -594 645 -594 645 -573 635 c 0,23,24
 -457 580 -457 580 -364 580 c 0,25,26
 -294 580 -294 580 -225.5 610.5 c 128,-1,27
 -157 641 -157 641 -83 703 c 1,0,-1
EndSplineSet
EndChar
StartChar: uni0335
Encoding: 821 821 821
Width: 0
Flags: W
TeX: 117 0 0 0
Fore
-650 626.5 m 1,0,-1
 -123 626.5 l 1,1,-1
 -123 544.5 l 1,2,-1
 -650 544.5 l 1,3,-1
 -650 626.5 l 1,0,-1
EndSplineSet
EndChar
StartChar: uni0336
Encoding: 822 822 822
Width: 0
Flags: W
TeX: 117 0 0 0
Fore
-1300 626.5 m 1,0,-1
 0 626.5 l 1,1,-1
 0 544.5 l 1,2,-1
 -1300 544.5 l 1,3,-1
 -1300 626.5 l 1,0,-1
EndSplineSet
EndChar
StartChar: uni0337
Encoding: 823 823 823
Width: 0
Flags: W
TeX: 117 0 0 0
Fore
-149.043 1205.63 m 1,0,-1
 -78 1147.17 l 1,1,-1
 -1092 -85.2266 l 1,2,-1
 -1163.04 -26.7734 l 1,3,-1
 -149.043 1205.63 l 1,0,-1
EndSplineSet
EndChar
StartChar: uni0338
Encoding: 824 824 824
Width: 0
Flags: W
TeX: 117 0 0 0
Fore
-1501 0 m 25,0,-1
 -1430 -60 l 25,1,-1
 -128.167 1482.33 l 25,2,-1
 -198.167 1544.33 l 25,3,-1
 -1501 0 l 25,0,-1
EndSplineSet
EndChar
StartChar: uni0374
Encoding: 884 884 884
Width: 570
Flags: W
TeX: 0 0 0 0
Fore
160 1140 m 25,0,-1
 225 1638 l 1,1,-1
 415 1638 l 1,2,-1
 305 1140 l 1,3,-1
 160 1140 l 25,0,-1
EndSplineSet
EndChar
StartChar: uni0375
Encoding: 885 885 885
Width: 570
Flags: W
TeX: 0 0 0 0
Fore
415 72 m 25,0,-1
 350 -426 l 1,1,-1
 160 -426 l 1,2,-1
 270 72 l 1,3,-1
 415 72 l 25,0,-1
EndSplineSet
EndChar
StartChar: uni037A
Encoding: 890 890 890
Width: 1024
Flags: W
TeX: 0 0 0 0
Fore
658 -426 m 1,0,-1
 526 -426 l 2,1,2
 438 -426 438 -426 438 -243 c 2,3,-1
 438 -92 l 1,4,-1
 587 -92 l 1,5,-1
 587 -256 l 2,6,7
 587 -360 587 -360 638 -360 c 2,8,-1
 658 -360 l 1,9,-1
 658 -426 l 1,0,-1
EndSplineSet
EndChar
StartChar: tonos
Encoding: 900 900 900
Width: 989
Flags: W
TeX: 0 0 0 0
Fore
651 1638 m 1,0,-1
 779 1638 l 1,1,-1
 453 1262 l 1,2,-1
 371 1262 l 1,3,-1
 651 1638 l 1,0,-1
EndSplineSet
EndChar
StartChar: Gamma
Encoding: 915 915 915
Width: 1141
Flags: W
TeX: 0 0 0 0
Fore
250 0 m 1,0,-1
 250 1493 l 1,1,-1
 1130 1493 l 1,2,-1
 1130 1410 l 1,3,-1
 350 1410 l 1,4,-1
 350 0 l 1,5,-1
 250 0 l 1,0,-1
EndSplineSet
EndChar
StartChar: uni0394
Encoding: 916 916 916
Width: 1401
Flags: W
TeX: 0 0 0 0
Fore
700 1391 m 1,0,-1
 206 82 l 1,1,-1
 1197 82 l 1,2,-1
 700 1391 l 1,0,-1
62 0 m 1,3,-1
 632 1493 l 1,4,-1
 764 1493 l 1,5,-1
 1333 0 l 1,6,-1
 62 0 l 1,3,-1
EndSplineSet
EndChar
StartChar: Lambda
Encoding: 923 923 923
Width: 1401
Flags: W
TeX: 0 0 0 0
Fore
763 1493 m 1,0,-1
 1333 0 l 1,1,-1
 1219 0 l 1,2,-1
 695 1393 l 1,3,-1
 167 0 l 1,4,-1
 62 0 l 1,5,-1
 631 1493 l 1,6,-1
 763 1493 l 1,0,-1
EndSplineSet
EndChar
StartChar: Xi
Encoding: 926 926 926
Width: 1294
Flags: W
TeX: 0 0 0 0
Fore
306 881 m 17,0,-1
 1017 881 l 1,1,-1
 1017 711 l 1,2,-1
 306 711 l 1,3,-1
 306 881 l 17,0,-1
201 1493 m 17,4,-1
 1122 1493 l 1,5,-1
 1122 1323 l 1,6,-1
 201 1323 l 1,7,-1
 201 1493 l 17,4,-1
201 170 m 17,8,-1
 1122 170 l 1,9,-1
 1122 0 l 1,10,-1
 201 0 l 1,11,-1
 201 170 l 17,8,-1
EndSplineSet
EndChar
StartChar: eta
Encoding: 951 951 951
Width: 1298
Flags: W
TeX: 0 0 0 0
AnchorPoint: "below" 678 0 basechar 0
AnchorPoint: "above" 649 1147 basechar 0
Fore
1078 676 m 2,0,-1
 1078 -426 l 1,1,-1
 986 -426 l 1,2,-1
 986 670 l 2,3,4
 986 888 986 888 916 977 c 128,-1,5
 846 1066 846 1066 710 1066 c 0,6,7
 551 1066 551 1066 438 970 c 0,8,9
 324 873 324 873 324 633 c 2,10,-1
 324 0 l 1,11,-1
 232 0 l 1,12,-1
 232 1120 l 1,13,-1
 324 1120 l 1,14,-1
 324 910 l 1,15,16
 373 1012 373 1012 453 1066 c 0,17,18
 571 1147 571 1147 714 1147 c 0,19,20
 880 1147 880 1147 979 1034 c 0,21,22
 1078 922 1078 922 1078 676 c 2,0,-1
EndSplineSet
EndChar
StartChar: uni0580
Encoding: 1408 1408 1408
Width: 1298
Flags: W
TeX: 117 0 0 0
Fore
1078 676 m 2,0,-1
 1078 0 l 1,1,-1
 986 0 l 1,2,-1
 986 670 l 2,3,4
 986 888 986 888 916 977 c 128,-1,5
 846 1066 846 1066 710 1066 c 0,6,7
 551 1066 551 1066 438 970 c 0,8,9
 324 873 324 873 324 633 c 2,10,-1
 324 -426 l 1,11,-1
 232 -426 l 1,12,-1
 232 1120 l 1,13,-1
 324 1120 l 1,14,-1
 324 910 l 1,15,16
 373 1012 373 1012 453 1066 c 0,17,18
 571 1147 571 1147 714 1147 c 0,19,20
 880 1147 880 1147 979 1034 c 0,21,22
 1078 922 1078 922 1078 676 c 2,0,-1
EndSplineSet
EndChar
StartChar: uni0674
Encoding: 1652 1652 1652
Width: 598
Flags: W
TeX: 117 0 0 0
Fore
137.05 1658.15 m 25,0,-1
 137.05 1753.19 l 25,1,2
 162.217 1756.43 162.217 1756.43 207.25 1769.93 c 0,3,4
 244.155 1780.99 244.155 1780.99 272.05 1798.55 c 17,5,6
 195.524 1811.3 195.524 1811.3 167.83 1852.55 c 24,7,8
 140 1892 140 1892 140 1954 c 0,9,10
 140 2051.33 140 2051.33 230.37 2112.55 c 0,11,12
 281 2146.85 281 2146.85 340.75 2146.85 c 0,13,14
 393 2146.85 393 2146.85 436.75 2127 c 9,15,-1
 436.75 2027.1 l 17,16,17
 386 2052 386 2052 344 2052 c 0,18,19
 314 2052 314 2052 290.95 2036.15 c 24,20,21
 239.19 2003.7 239.19 2003.7 239.65 1949.75 c 0,22,23
 239.65 1887.65 239.65 1887.65 347.65 1860.65 c 24,24,25
 403.097 1846.79 403.097 1846.79 479.95 1890.35 c 9,26,-1
 479.95 1790.45 l 25,27,28
 431.35 1758.05 431.35 1758.05 320.65 1714.85 c 0,29,30
 196.072 1666.23 196.072 1666.23 137.05 1658.15 c 25,0,-1
EndSplineSet
EndChar
StartChar: uni1D02
Encoding: 7426 7426 7426
Width: 2011
Flags: W
TeX: 117 0 0 0
Fore
1360 487 m 2,0,1
 1582 487 1582 487 1680 566 c 128,-1,2
 1778 645 1778 645 1778 797 c 0,3,4
 1778 945 1778 945 1697 1007 c 128,-1,5
 1616 1069 1616 1069 1505 1069 c 0,6,7
 1295 1069 1295 1069 1203 891 c 0,8,9
 1110 712 1110 712 1110 556 c 2,10,-1
 1110 487 l 1,11,-1
 1360 487 l 2,0,1
260 493 m 1,12,13
 260 257 260 257 366 149 c 0,14,15
 455 53 455 53 608 53 c 0,16,17
 775 53 775 53 888 153 c 0,18,19
 992 245 992 245 1013 493 c 1,20,-1
 260 493 l 1,12,13
167 513 m 2,21,-1
 167 571 l 1,22,-1
 1017 571 l 1,23,24
 1017 840 1017 840 912 949 c 0,25,26
 796 1069 796 1069 567 1069 c 0,27,28
 507 1069 507 1069 408 1043 c 0,29,30
 308 1016 308 1016 210 965 c 1,31,-1
 210 1061 l 1,32,33
 309 1103 309 1103 413 1125 c 128,-1,34
 517 1147 517 1147 578 1147 c 0,35,36
 836 1147 836 1147 968 1007 c 0,37,38
 1043 928 1043 928 1079 810 c 1,39,-1
 1080 815 l 2,40,41
 1162 1038 1162 1038 1298 1099 c 0,42,43
 1407 1148 1407 1148 1513 1148 c 0,44,45
 1680 1148 1680 1148 1776 1059 c 0,46,47
 1872 969 1872 969 1872 795 c 128,-1,48
 1872 621 1872 621 1747 517 c 0,49,50
 1621 412 1621 412 1338 412 c 2,51,-1
 1110 412 l 1,52,-1
 1110 394 l 2,53,54
 1110 246 1110 246 1195 149 c 0,55,56
 1279 53 1279 53 1473 53 c 0,57,58
 1569 53 1569 53 1669 89 c 0,59,60
 1733 112 1733 112 1835 182 c 1,61,-1
 1835 83 l 1,62,63
 1746 28 1746 28 1669 5 c 0,64,65
 1557 -28 1557 -28 1454 -28 c 0,66,67
 1257 -28 1257 -28 1128 92 c 0,68,69
 1076 141 1076 141 1048 230 c 1,70,71
 1020 170 1020 170 980 125 c 0,72,73
 846 -29 846 -29 610 -29 c 0,74,75
 390 -29 390 -29 278 117 c 0,76,77
 167 269 167 269 167 513 c 2,21,-1
EndSplineSet
EndChar
StartChar: uni1D09
Encoding: 7433 7433 7433
Width: 569
Flags: W
TeX: 117 0 0 0
Fore
322 0 m 1,0,-1
 230 0 l 1,1,-1
 230 1120 l 1,2,-1
 322 1120 l 1,3,-1
 322 0 l 1,0,-1
322 -436 m 1,4,-1
 230 -436 l 1,5,-1
 230 -310 l 1,6,-1
 322 -310 l 1,7,-1
 322 -436 l 1,4,-1
EndSplineSet
EndChar
StartChar: uni1D14
Encoding: 7444 7444 7444
Width: 2095
Flags: W
TeX: 117 0 0 0
AnchorPoint: "above" 1044 1147 basechar 0
Fore
255 487 m 1,0,1
 255 253.893 255 253.893 361 143 c 0,2,3
 452.76 47 452.76 47 603 47 c 0,4,5
 770 47 770 47 883 147 c 0,6,7
 987 240 987 240 1008 487 c 1,8,-1
 255 487 l 1,0,1
162 507 m 2,9,-1
 162 565 l 1,10,-1
 1012 565 l 1,11,12
 1012 834.69 1012 834.69 907 943 c 0,13,14
 790.67 1063 790.67 1063 562 1063 c 0,15,16
 502.5 1063 502.5 1063 403 1037 c 0,17,18
 302.51 1010.74 302.51 1010.74 205 959 c 1,19,-1
 205 1056 l 1,20,21
 304 1098 304 1098 408 1120 c 128,-1,22
 512 1142 512 1142 573 1142 c 0,23,24
 829.58 1142 829.58 1142 963 1002 c 0,25,26
 1024.83 937.121 1024.83 937.121 1059.74 845.888 c 1,27,28
 1089.44 925.287 1089.44 925.287 1138 987.5 c 0,29,30
 1262.89 1147.5 1262.89 1147.5 1476 1147.5 c 0,31,32
 1692 1147.5 1692 1147.5 1817 988.5 c 0,33,34
 1941 829.5 1941 829.5 1941 553.5 c 0,35,36
 1941 284.5 1941 284.5 1816 125.5 c 128,-1,37
 1691 -33.5 1691 -33.5 1476 -33.5 c 0,38,39
 1262.11 -33.5 1262.11 -33.5 1138 126.5 c 0,40,41
 1089.62 188.869 1089.62 188.869 1059.97 266.924 c 1,42,43
 1028.49 180.529 1028.49 180.529 975 119 c 0,44,45
 842 -34 842 -34 605 -34 c 0,46,47
 381.87 -34 381.87 -34 273 111 c 0,48,49
 162 258.834 162 258.834 162 507 c 2,9,-1
1475 47.5 m 0,50,51
 1645.13 47.5 1645.13 47.5 1745 184.5 c 128,-1,52
 1845 321.685 1845 321.685 1845 552.5 c 0,53,54
 1845 790.001 1845 790.001 1746 926.5 c 0,55,56
 1646.64 1063.5 1646.64 1063.5 1475 1063.5 c 0,57,58
 1304.14 1063.5 1304.14 1063.5 1205 926.5 c 0,59,60
 1106.35 790.172 1106.35 790.172 1105 558.803 c 0,61,62
 1104.98 555.057 1104.98 555.057 1105 552.5 c 0,63,64
 1105 324.195 1105 324.195 1205 185.5 c 0,65,66
 1304.5 47.5 1304.5 47.5 1475 47.5 c 0,50,51
EndSplineSet
EndChar
StartChar: uni1D77
Encoding: 7543 7543 7543
Width: 1300
Flags: W
TeX: 117 0 0 0
Fore
257 -399 m 1,0,-1
 165 -399 l 1,1,-1
 165 582 l 2,2,3
 165 931 165 931 298 1039 c 128,-1,4
 431 1147 431 1147 635 1147 c 0,5,6
 732 1147 732 1147 818 1133 c 0,7,8
 904 1118 904 1118 985 1088 c 1,9,-1
 985 983 l 1,10,11
 904 1027 904 1027 825 1048 c 128,-1,12
 746 1069 746 1069 664 1069 c 0,13,14
 497 1069 497 1069 377 998 c 128,-1,15
 257 927 257 927 257 615 c 2,16,-1
 257 540 l 1,17,-1
 257 522 l 1,18,19
 282 560 282 560 314 589 c 0,20,21
 460 721 460 721 617 721 c 0,22,23
 777 721 777 721 923 589 c 0,24,25
 1068 457 1068 457 1068 147 c 0,26,27
 1068 -162 1068 -162 923 -294 c 0,28,29
 777 -426 777 -426 617 -426 c 0,30,31
 460 -426 460 -426 314 -294 c 0,32,33
 282 -265 282 -265 257 -227 c 1,34,-1
 257 -399 l 1,0,-1
259 145 m 128,-1,36
 259 -121 259 -121 374 -235 c 0,37,38
 490 -349 490 -349 615 -349 c 0,39,40
 743 -349 743 -349 858 -235 c 0,41,42
 974 -121 974 -121 974 145 c 128,-1,43
 974 411 974 411 858 525 c 0,44,45
 743 639 743 639 615 639 c 0,46,47
 490 639 490 639 374 525 c 0,48,35
 259 411 259 411 259 145 c 128,-1,36
EndSplineSet
EndChar
StartChar: uni2010
Encoding: 8208 8208 8208
Width: 739
Flags: W
Fore
100 602 m 1,0,-1
 639 602 l 1,1,-1
 639 520 l 1,2,-1
 100 520 l 1,3,-1
 100 602 l 1,0,-1
EndSplineSet
KernsSLIFO: 356 -188 0 0 286 75 0 0 253 -36 0 0 221 -243 0 0 210 57 0 0 212 57 0 0 211 57 0 0 193 -45 0 0 194 -45 0 0 376 -243 0 0 255 -36 0 0 213 57 0 0 195 -45 0 0 192 -45 0 0 245 38 0 0 246 38 0 0 244 38 0 0 242 38 0 0 243 38 0 0 214 57 0 0 196 -45 0 0 121 -36 0 0 118 -55 0 0 111 38 0 0 89 -243 0 0 88 -102 0 0 87 -83 0 0 86 -120 0 0 84 -188 0 0 81 75 0 0 79 57 0 0 74 114 0 0 71 75 0 0 66 -73 0 0 65 -45 0 0
EndChar
StartChar: figuredash
Encoding: 8210 8210 8210
Width: 1024
Flags: W
Fore
0 602 m 1,0,-1
 1024 602 l 1,1,-1
 1024 520 l 1,2,-1
 0 520 l 1,3,-1
 0 602 l 1,0,-1
EndSplineSet
EndChar
StartChar: emdash
Encoding: 8212 8212 8212
Width: 2048
Flags: W
Fore
0 602 m 1,0,-1
 2048 602 l 1,1,-1
 2048 520 l 1,2,-1
 0 520 l 1,3,-1
 0 602 l 1,0,-1
EndSplineSet
EndChar
StartChar: quoteleft
Encoding: 8216 8216 8216
Width: 651
Flags: W
Fore
335 1022 m 1,0,-1
 234 1022 l 1,1,-1
 234 1173 l 1,2,-1
 313 1493 l 1,3,-1
 375 1493 l 1,4,-1
 335 1173 l 1,5,-1
 335 1022 l 1,0,-1
EndSplineSet
EndChar
StartChar: quoteright
Encoding: 8217 8217 8217
Width: 651
Flags: W
Fore
274 1493 m 1,0,-1
 375 1493 l 1,1,-1
 375 1342 l 1,2,-1
 296 1022 l 1,3,-1
 234 1022 l 1,4,-1
 274 1342 l 1,5,-1
 274 1493 l 1,0,-1
EndSplineSet
EndChar
StartChar: quotesinglbase
Encoding: 8218 8218 8218
Width: 651
Flags: W
Fore
274 237 m 1,0,-1
 375 237 l 1,1,-1
 375 86 l 1,2,-1
 296 -239 l 1,3,-1
 234 -239 l 1,4,-1
 274 86 l 1,5,-1
 274 237 l 1,0,-1
EndSplineSet
EndChar
StartChar: quotereversed
Encoding: 8219 8219 8219
Width: 651
Flags: W
TeX: 113 0 0 0
Fore
-274 1493 m 1,0,-1
 -274 1342 l 1,1,-1
 -234 1022 l 1,2,-1
 -296 1022 l 1,3,-1
 -375 1342 l 1,4,-1
 -375 1493 l 1,5,-1
 -274 1493 l 1,0,-1
EndSplineSet
EndChar
StartChar: uni201F
Encoding: 8223 8223 8223
Width: 1061
Flags: W
TeX: 117 0 0 0
Fore
-274 1493 m 1,0,-1
 -274 1342 l 1,1,-1
 -234 1022 l 1,2,-1
 -296 1022 l 1,3,-1
 -375 1342 l 1,4,-1
 -375 1493 l 1,5,-1
 -274 1493 l 1,0,-1
-682 1493 m 1,6,-1
 -682 1342 l 1,7,-1
 -642 1022 l 1,8,-1
 -704 1022 l 1,9,-1
 -783 1342 l 1,10,-1
 -783 1493 l 1,11,-1
 -682 1493 l 1,6,-1
EndSplineSet
EndChar
StartChar: guilsinglleft
Encoding: 8249 8249 8249
Width: 819
Flags: W
Fore
627 1024 m 1,0,-1
 627 901 l 1,1,-1
 288 600 l 1,2,-1
 627 299 l 1,3,-1
 627 177 l 1,4,-1
 158 595 l 1,5,-1
 158 606 l 1,6,-1
 627 1024 l 1,0,-1
EndSplineSet
EndChar
StartChar: guilsinglright
Encoding: 8250 8250 8250
Width: 819
Flags: W
Fore
158 177 m 1,0,-1
 158 300 l 1,1,-1
 497 601 l 1,2,-1
 158 902 l 1,3,-1
 158 1024 l 1,4,-1
 627 606 l 1,5,-1
 627 595 l 1,6,-1
 158 177 l 1,0,-1
EndSplineSet
EndChar
StartChar: fraction
Encoding: 8260 8260 8260
Width: 342
Flags: W
Fore
585 1520 m 1,0,-1
 689 1520 l 1,1,-1
 -243 -29 l 1,2,-1
 -347 -29 l 1,3,-1
 585 1520 l 1,0,-1
EndSplineSet
EndChar
StartChar: uni204B
Encoding: 8267 8267 8267
Width: 1303
Flags: W
Fore
-633 1493 m 2,0,1
 -425 1493 -425 1493 -299 1382 c 128,-1,2
 -173 1271 -173 1271 -173 1090 c 0,3,4
 -173 914 -173 914 -287 808 c 0,5,6
 -401 703 -401 703 -633 687 c 1,7,-1
 -633 -197 l 1,8,-1
 -725 -197 l 1,9,-1
 -725 1413 l 1,10,-1
 -965 1413 l 1,11,-1
 -965 -197 l 1,12,-1
 -1056 -197 l 1,13,-1
 -1056 1493 l 1,14,-1
 -633 1493 l 2,0,1
EndSplineSet
EndChar
StartChar: uni204C
Encoding: 8268 8268 8268
Width: 1024
Flags: W
Fore
633 1042 m 1,0,-1
 720.5 1042 l 1,1,-1
 720.5 451 l 1,2,-1
 633 451 l 1,3,-1
 633 1042 l 1,0,-1
515 450 m 1,4,-1
 513 450 l 2,5,6
 388 450 388 450 302 536 c 128,-1,7
 216 622 216 622 216 747 c 0,8,9
 216 871 216 871 302.5 956.5 c 128,-1,10
 389 1042 389 1042 515 1042 c 1,11,-1
 515 450 l 1,4,-1
EndSplineSet
EndChar
StartChar: uni204D
Encoding: 8269 8269 8269
Width: 1024
Flags: W
Fore
391 450 m 1,0,-1
 303.5 450 l 1,1,-1
 303.5 1042 l 1,2,-1
 391 1042 l 1,3,-1
 391 450 l 1,0,-1
509 1042 m 1,4,5
 635 1042 635 1042 721.5 956.5 c 128,-1,6
 808 871 808 871 808 747 c 0,7,8
 808 622 808 622 722 536 c 128,-1,9
 636 450 636 450 511 450 c 2,10,-1
 509 450 l 1,11,-1
 509 1042 l 1,4,5
EndSplineSet
EndChar
StartChar: uni204F
Encoding: 8271 8271 8271
Width: 690
Flags: W
Fore
356 1059 m 1,0,-1
 356 932 l 1,1,-1
 255 932 l 1,2,-1
 255 1059 l 1,3,-1
 356 1059 l 1,0,-1
357 129 m 1,4,-1
 357 82 l 1,5,-1
 396 -238 l 1,6,-1
 334 -238 l 1,7,-1
 255 82 l 1,8,-1
 255 129 l 1,9,-1
 357 129 l 1,4,-1
EndSplineSet
EndChar
StartChar: uni2070
Encoding: 8304 8304 8304
Width: 821
Flags: W
TeX: 117 0 0 0
Fore
416 1441 m 0,0,1
 317 1441 317 1441 261 1354 c 0,2,3
 205 1268 205 1268 205 1113 c 0,4,5
 205 961 205 961 261 874 c 128,-1,6
 317 787 317 787 416 787 c 0,7,8
 512 787 512 787 569 874 c 0,9,10
 625 961 625 961 625 1113 c 0,11,12
 625 1266 625 1266 569 1354 c 0,13,14
 512 1441 512 1441 416 1441 c 0,0,1
414 1520 m 0,15,16
 554 1520 554 1520 636 1410 c 128,-1,17
 718 1300 718 1300 718 1113 c 128,-1,18
 718 926 718 926 636 816 c 0,19,20
 553 707 553 707 414 707 c 0,21,22
 272 707 272 707 190 816 c 0,23,24
 108 926 108 926 108 1113 c 0,25,26
 108 1301 108 1301 191 1410 c 0,27,28
 273 1520 273 1520 414 1520 c 0,15,16
EndSplineSet
EndChar
StartChar: uni2071
Encoding: 8305 8305 8305
Width: 366
VWidth: 1814
Flags: W
Fore
122 1295 m 1,0,-1
 238 1295 l 1,1,-1
 238 668 l 1,2,-1
 122 668 l 1,3,-1
 122 1295 l 1,0,-1
122 1539 m 1,4,-1
 238 1539 l 1,5,-1
 238 1409 l 1,6,-1
 122 1409 l 1,7,-1
 122 1539 l 1,4,-1
EndSplineSet
EndChar
StartChar: uni2074
Encoding: 8308 8308 8308
Width: 821
Flags: W
TeX: 117 0 0 0
Fore
506 1410.47 m 1,0,-1
 204 994 l 1,1,-1
 506 994 l 1,2,-1
 506 1410.47 l 1,0,-1
462 1503 m 1,3,-1
 598 1503 l 1,4,-1
 598 994 l 1,5,-1
 733 994 l 1,6,-1
 733 916 l 1,7,-1
 598 916 l 1,8,-1
 598 736 l 1,9,-1
 506 736 l 1,10,-1
 506 916 l 1,11,-1
 99 916 l 1,12,-1
 99 1006 l 1,13,-1
 462 1503 l 1,3,-1
EndSplineSet
EndChar
StartChar: uni2117
Encoding: 8471 8471 8471
Width: 2048
Flags: W
Fore
1547 1265 m 0,0,1
 1765 1046 1765 1046 1765 740 c 0,2,3
 1765 436 1765 436 1546 218 c 128,-1,4
 1327 0 1327 0 1024 0 c 0,5,6
 719 0 719 0 504 218 c 128,-1,7
 289 436 289 436 283 740 c 0,8,9
 283 1044 283 1044 501 1263 c 128,-1,10
 719 1482 719 1482 1024 1482 c 0,11,12
 1330 1482 1330 1482 1547 1265 c 0,0,1
1024 1381 m 0,14,15
 762 1381 762 1381 573 1191.5 c 128,-1,16
 384 1002 384 1002 384 739 c 0,17,18
 389 478 389 478 575.5 289.5 c 128,-1,19
 762 101 762 101 1024 101 c 0,20,21
 1287 101 1287 101 1475.5 289.5 c 128,-1,22
 1664 478 1664 478 1664 739 c 0,23,24
 1664 1004 1664 1004 1477 1191 c 0,25,13
 1289 1381 1289 1381 1024 1381 c 0,14,15
920 1072 m 1,26,-1
 920 735 l 1,27,-1
 1098 735 l 2,28,29
 1197 735 1197 735 1250.5 779 c 128,-1,30
 1304 823 1304 823 1304 904 c 0,31,32
 1304 984 1304 984 1250.5 1028 c 128,-1,33
 1197 1072 1197 1072 1098 1072 c 2,34,-1
 920 1072 l 1,26,-1
779 1172 m 1,35,-1
 1098 1172 l 2,36,37
 1274 1172 1274 1172 1364 1103.5 c 128,-1,38
 1454 1035 1454 1035 1454 904 c 0,39,40
 1454 771 1454 771 1364 703.5 c 128,-1,41
 1274 636 1274 636 1098 636 c 2,42,-1
 920 636 l 1,43,-1
 920 276 l 1,44,-1
 779 276 l 1,45,-1
 779 1172 l 1,35,-1
EndSplineSet
EndChar
StartChar: estimated
Encoding: 8494 8494 8494
Width: 1750
Flags: W
Fore
400 228 m 1,0,1
 467 151 467 151 560 100 c 0,2,3
 710 16 710 16 875 16 c 128,-1,5
 1040 16 1040 16 1192 100 c 0,6,7
 1298 160 1298 160 1375 256 c 1,8,-1
 1486 256 l 1,9,10
 1391 136 1391 136 1249 65 c 0,11,12
 1070 -25 1070 -25 875 -25 c 128,-1,14
 680 -25 680 -25 501.5 64.5 c 128,-1,15
 323 154 323 154 224 314.5 c 128,-1,16
 125 475 125 475 125 650 c 0,17,18
 125 826 125 826 225.5 988.5 c 128,-1,19
 326 1151 326 1151 505.5 1238 c 128,-1,20
 685 1325 685 1325 875 1325 c 0,21,22
 1064 1325 1064 1325 1243.5 1238 c 128,-1,23
 1423 1151 1423 1151 1524 988.5 c 128,-1,24
 1625 826 1625 826 1625 650 c 1,25,-1
 419 650 l 2,26,27
 400 650 400 650 400 631 c 2,28,-1
 400 228 l 1,0,1
400 704 m 2,29,30
 400 685 400 685 419 685 c 2,31,-1
 1331 685 l 2,32,33
 1351 685 1351 685 1351 704 c 2,34,-1
 1351 1072 l 1,35,36
 1281 1152 1281 1152 1186 1203 c 0,37,38
 1034 1285 1034 1285 875 1285 c 0,39,40
 715 1285 715 1285 563 1204 c 0,41,42
 468 1152 468 1152 400 1073 c 1,43,-1
 400 704 l 2,29,30
EndSplineSet
EndChar
StartChar: uni2134
Encoding: 8500 8500 8500
Width: 946
Flags: W
TeX: 117 0 0 0
Fore
681 503 m 0,0,1
 681 619 681 619 637.5 681.5 c 128,-1,2
 594 744 594 744 515 744 c 0,3,4
 406 744 406 744 335.5 615 c 128,-1,5
 265 486 265 486 265 279 c 0,6,7
 265 162.999 265 162.999 308 101.5 c 128,-1,8
 351 40 351 40 431 40 c 0,9,10
 540 40 540 40 610.5 170 c 128,-1,11
 681 300 681 300 681 503 c 0,0,1
487 809 m 0,12,13
 639 809 639 809 740.5 701 c 128,-1,14
 842 593 842 593 842 430 c 0,15,16
 842 232 842 232 731.5 103.5 c 128,-1,17
 621 -25 621 -25 459 -25 c 0,18,19
 307 -25 307 -25 205.5 83 c 128,-1,20
 104 190.999 104 190.999 104 354 c 0,21,22
 104 552 104 552 214.5 680.5 c 128,-1,23
 325 809 325 809 487 809 c 0,12,13
EndSplineSet
EndChar
StartChar: fraction
Encoding: 8725 8725 8725
Width: 342
Flags: W
Fore
585 1520 m 1,0,-1
 689 1520 l 1,1,-1
 -243 -29 l 1,2,-1
 -347 -29 l 1,3,-1
 585 1520 l 1,0,-1
EndSplineSet
EndChar
StartChar: similar
Encoding: 8764 8764 8764
Width: 1303
Flags: W
Fore
1139 849 m 1,0,-1
 1139 752 l 1,1,2
 1059 673 1059 673 991 639 c 128,-1,3
 923 605 923 605 849 605 c 0,4,5
 772 605 772 605 654 664 c 0,6,7
 646 668 646 668 642 670 c 0,8,9
 637 673 637 673 626 678 c 0,10,11
 508 740 508 740 436 740 c 0,12,13
 369 740 369 740 303.5 701.5 c 128,-1,14
 238 663 238 663 164 580 c 1,15,-1
 164 677 l 1,16,17
 244 756 244 756 312 790.5 c 128,-1,18
 380 825 380 825 454 825 c 0,19,20
 529 825 529 825 649 765 c 0,21,22
 657 761 657 761 661 759 c 0,23,24
 667 756 667 756 677 751 c 0,25,26
 795 689 795 689 867 689 c 0,27,28
 932 689 932 689 996.5 727 c 128,-1,29
 1061 765 1061 765 1139 849 c 1,0,-1
EndSplineSet
EndChar
StartChar: uni23CF
Encoding: 9167 9167 9167
Width: 1575
Flags: W
TeX: 0 0 0 0
Fore
1569 672 m 25,0,-1
 6 672 l 25,1,-1
 787 1220 l 25,2,-1
 1569 672 l 25,0,-1
1569 0 m 25,3,-1
 6 0 l 25,4,-1
 6 504 l 25,5,-1
 1569 504 l 25,6,-1
 1569 0 l 25,3,-1
EndSplineSet
EndChar
StartChar: uni2581
Encoding: 9601 9601 9601
Width: 1575
Flags: W
TeX: 0 0 0 0
Fore
-20 -512 m 25,0,-1
 -20 -251 l 25,1,-1
 1595 -251 l 25,2,-1
 1595 -512 l 25,3,-1
 -20 -512 l 25,0,-1
EndSplineSet
EndChar
StartChar: uni2582
Encoding: 9602 9602 9602
Width: 1575
Flags: W
TeX: 0 0 0 0
Fore
-20 -512 m 25,0,-1
 -20 -10 l 25,1,-1
 1595 -10 l 25,2,-1
 1595 -512 l 25,3,-1
 -20 -512 l 25,0,-1
EndSplineSet
EndChar
StartChar: uni2583
Encoding: 9603 9603 9603
Width: 1575
Flags: W
TeX: 0 0 0 0
Fore
-20 -512 m 25,0,-1
 -20 271 l 25,1,-1
 1595 271 l 25,2,-1
 1595 -512 l 25,3,-1
 -20 -512 l 25,0,-1
EndSplineSet
EndChar
StartChar: dnblock
Encoding: 9604 9604 9604
Width: 1575
Flags: W
TeX: 0 0 0 0
Fore
-20 -512 m 25,0,-1
 -20 532 l 25,1,-1
 1595 532 l 25,2,-1
 1595 -512 l 25,3,-1
 -20 -512 l 25,0,-1
EndSplineSet
EndChar
StartChar: uni2585
Encoding: 9605 9605 9605
Width: 1575
Flags: W
TeX: 0 0 0 0
Fore
-20 -512 m 25,0,-1
 -20 793 l 25,1,-1
 1595 793 l 25,2,-1
 1595 -512 l 25,3,-1
 -20 -512 l 25,0,-1
EndSplineSet
EndChar
StartChar: uni2586
Encoding: 9606 9606 9606
Width: 1575
Flags: W
TeX: 0 0 0 0
Fore
-20 -512 m 25,0,-1
 -20 1054 l 25,1,-1
 1595 1054 l 25,2,-1
 1595 -512 l 25,3,-1
 -20 -512 l 25,0,-1
EndSplineSet
EndChar
StartChar: uni2587
Encoding: 9607 9607 9607
Width: 1575
Flags: W
TeX: 0 0 0 0
Fore
-20 -512 m 25,0,-1
 -20 1315 l 25,1,-1
 1595 1315 l 25,2,-1
 1595 -512 l 25,3,-1
 -20 -512 l 25,0,-1
EndSplineSet
EndChar
StartChar: block
Encoding: 9608 9608 9608
Width: 1575
Flags: W
TeX: 0 0 0 0
Fore
-20 -512 m 25,0,-1
 -20 1576 l 25,1,-1
 1595 1576 l 25,2,-1
 1595 -512 l 25,3,-1
 -20 -512 l 25,0,-1
EndSplineSet
EndChar
StartChar: uni2589
Encoding: 9609 9609 9609
Width: 1575
Flags: W
TeX: 0 0 0 0
Fore
-20 -512 m 25,0,-1
 -20 1576 l 25,1,-1
 1393 1576 l 25,2,-1
 1393 -512 l 25,3,-1
 -20 -512 l 25,0,-1
EndSplineSet
EndChar
StartChar: uni258A
Encoding: 9610 9610 9610
Width: 1575
Flags: W
TeX: 0 0 0 0
Fore
-20 -512 m 25,0,-1
 -20 1576 l 25,1,-1
 1191 1576 l 25,2,-1
 1191 -512 l 25,3,-1
 -20 -512 l 25,0,-1
EndSplineSet
EndChar
StartChar: uni258B
Encoding: 9611 9611 9611
Width: 1575
Flags: W
TeX: 0 0 0 0
Fore
-20 -512 m 25,0,-1
 -20 1576 l 25,1,-1
 989 1576 l 25,2,-1
 989 -512 l 25,3,-1
 -20 -512 l 25,0,-1
EndSplineSet
EndChar
StartChar: lfblock
Encoding: 9612 9612 9612
Width: 1575
Flags: W
TeX: 0 0 0 0
Fore
-20 -512 m 25,0,-1
 -20 1576 l 25,1,-1
 787 1576 l 25,2,-1
 787 -512 l 25,3,-1
 -20 -512 l 25,0,-1
EndSplineSet
EndChar
StartChar: uni258D
Encoding: 9613 9613 9613
Width: 1575
Flags: W
TeX: 0 0 0 0
Fore
-20 -512 m 25,0,-1
 -20 1576 l 25,1,-1
 585 1576 l 25,2,-1
 585 -512 l 25,3,-1
 -20 -512 l 25,0,-1
EndSplineSet
EndChar
StartChar: uni258E
Encoding: 9614 9614 9614
Width: 1575
Flags: W
TeX: 0 0 0 0
Fore
-20 -512 m 25,0,-1
 -20 1576 l 25,1,-1
 383 1576 l 25,2,-1
 383 -512 l 25,3,-1
 -20 -512 l 25,0,-1
EndSplineSet
EndChar
StartChar: uni258F
Encoding: 9615 9615 9615
Width: 1575
Flags: W
TeX: 0 0 0 0
Fore
-20 -512 m 25,0,-1
 -20 1576 l 25,1,-1
 181 1576 l 25,2,-1
 181 -512 l 25,3,-1
 -20 -512 l 25,0,-1
EndSplineSet
EndChar
StartChar: ltshade
Encoding: 9617 9617 9617
Width: 1575
Flags: W
TeX: 0 0 0 0
Fore
1191 -512 m 25,0,-1
 1191 -251 l 25,1,-1
 1393 -251 l 25,2,-1
 1393 -512 l 25,3,-1
 1191 -512 l 25,0,-1
383 -512 m 25,4,-1
 383 -251 l 25,5,-1
 585 -251 l 25,6,-1
 585 -512 l 25,7,-1
 383 -512 l 25,4,-1
787 -146.6 m 25,8,-1
 787 114.4 l 25,9,-1
 989 114.4 l 25,10,-1
 989 -146.6 l 25,11,-1
 787 -146.6 l 25,8,-1
-20 -146.6 m 25,12,-1
 -20 114.4 l 25,13,-1
 181 114.4 l 25,14,-1
 181 -146.6 l 25,15,-1
 -20 -146.6 l 25,12,-1
1191 218.8 m 25,16,-1
 1191 479.8 l 25,17,-1
 1393 479.8 l 25,18,-1
 1393 218.8 l 25,19,-1
 1191 218.8 l 25,16,-1
383 218.8 m 25,20,-1
 383 479.8 l 25,21,-1
 585 479.8 l 25,22,-1
 585 218.8 l 25,23,-1
 383 218.8 l 25,20,-1
787 584.2 m 25,24,-1
 787 845.2 l 25,25,-1
 989 845.2 l 25,26,-1
 989 584.2 l 25,27,-1
 787 584.2 l 25,24,-1
-20 584.2 m 25,28,-1
 -20 845.2 l 25,29,-1
 181 845.2 l 25,30,-1
 181 584.2 l 25,31,-1
 -20 584.2 l 25,28,-1
1191 949.6 m 25,32,-1
 1191 1210.6 l 25,33,-1
 1393 1210.6 l 25,34,-1
 1393 949.6 l 25,35,-1
 1191 949.6 l 25,32,-1
383 949.6 m 25,36,-1
 383 1210.6 l 25,37,-1
 585 1210.6 l 25,38,-1
 585 949.6 l 25,39,-1
 383 949.6 l 25,36,-1
787 1315 m 25,40,-1
 787 1576 l 25,41,-1
 989 1576 l 25,42,-1
 989 1315 l 25,43,-1
 787 1315 l 25,40,-1
-20 1315 m 25,44,-1
 -20 1576 l 25,45,-1
 181 1576 l 25,46,-1
 181 1315 l 25,47,-1
 -20 1315 l 25,44,-1
EndSplineSet
EndChar
StartChar: shade
Encoding: 9618 9618 9618
Width: 1575
Flags: W
TeX: 0 0 0 0
Fore
1393 -512 m 25,0,-1
 1393 1576 l 25,1,-1
 1191 1576 l 25,2,-1
 1191 1315 l 25,3,-1
 1595 1315 l 25,4,-1
 1595 1054 l 25,5,-1
 1595 1054 l 25,6,-1
 1191 1054 l 25,7,-1
 1191 793 l 25,8,-1
 1595 793 l 25,9,-1
 1595 532 l 25,10,-1
 1191 532 l 25,11,-1
 1191 271 l 25,12,-1
 1595 271 l 25,13,-1
 1595 10 l 25,14,-1
 1191 10 l 25,15,-1
 1191 -251 l 25,16,-1
 1595 -251 l 25,17,-1
 1595 -512 l 25,18,-1
 1393 -512 l 25,0,-1
989 -512 m 25,19,-1
 989 1576 l 25,20,-1
 787 1576 l 25,21,-1
 787 1315 l 25,22,-1
 1191 1315 l 25,23,-1
 1191 1054 l 25,24,-1
 1191 1054 l 25,25,-1
 787 1054 l 25,26,-1
 787 793 l 25,27,-1
 1191 793 l 25,28,-1
 1191 532 l 25,29,-1
 787 532 l 25,30,-1
 787 271 l 25,31,-1
 1191 271 l 25,32,-1
 1191 10 l 25,33,-1
 787 10 l 25,34,-1
 787 -251 l 25,35,-1
 1191 -251 l 25,36,-1
 1191 -512 l 25,37,-1
 989 -512 l 25,19,-1
585 -512 m 25,38,-1
 585 1576 l 25,39,-1
 383 1576 l 25,40,-1
 383 1315 l 25,41,-1
 787 1315 l 25,42,-1
 787 1054 l 25,43,-1
 787 1054 l 25,44,-1
 383 1054 l 25,45,-1
 383 793 l 25,46,-1
 787 793 l 25,47,-1
 787 532 l 25,48,-1
 383 532 l 25,49,-1
 383 271 l 25,50,-1
 787 271 l 25,51,-1
 787 10 l 25,52,-1
 383 10 l 25,53,-1
 383 -251 l 25,54,-1
 787 -251 l 25,55,-1
 787 -512 l 25,56,-1
 585 -512 l 25,38,-1
181 -512 m 25,57,-1
 181 1576 l 25,58,-1
 -20 1576 l 25,59,-1
 -20 1315 l 25,60,-1
 383 1315 l 25,61,-1
 383 1054 l 25,62,-1
 383 1054 l 25,63,-1
 -20 1054 l 25,64,-1
 -20 793 l 25,65,-1
 383 793 l 25,66,-1
 383 532 l 25,67,-1
 -20 532 l 25,68,-1
 -20 271 l 25,69,-1
 383 271 l 25,70,-1
 383 10 l 25,71,-1
 -20 10 l 25,72,-1
 -20 -251 l 25,73,-1
 383 -251 l 25,74,-1
 383 -512 l 25,75,-1
 181 -512 l 25,57,-1
EndSplineSet
EndChar
StartChar: dkshade
Encoding: 9619 9619 9619
Width: 1575
Flags: W
TeX: 0 0 0 0
Fore
-20 -512 m 1,0,-1
 -20 -146.6 l 1,1,-1
 181 -146.6 l 1,2,-1
 181 114.4 l 1,3,-1
 -20 114.4 l 1,4,-1
 -20 584.2 l 1,5,-1
 181 584.2 l 1,6,-1
 181 845.2 l 1,7,-1
 -20 845.2 l 1,8,-1
 -20 1315 l 1,9,-1
 181 1315 l 1,10,-1
 181 1576 l 1,11,-1
 787 1576 l 1,12,-1
 787 1315 l 1,13,-1
 989 1315 l 1,14,-1
 989 1576 l 1,15,-1
 1595 1576 l 1,16,-1
 1595 -512 l 1,17,-1
 1393 -512 l 1,18,-1
 1393 -251 l 1,19,-1
 1191 -251 l 1,20,-1
 1191 -512 l 1,21,-1
 585 -512 l 1,22,-1
 585 -251 l 1,23,-1
 383 -251 l 1,24,-1
 383 -512 l 1,25,-1
 -20 -512 l 1,0,-1
383 949.6 m 1,26,-1
 585 949.6 l 1,27,-1
 585 1210.6 l 1,28,-1
 383 1210.6 l 1,29,-1
 383 949.6 l 1,26,-1
1191 949.6 m 1,30,-1
 1393 949.6 l 1,31,-1
 1393 1210.6 l 1,32,-1
 1191 1210.6 l 1,33,-1
 1191 949.6 l 1,30,-1
787 584.2 m 1,34,-1
 989 584.2 l 1,35,-1
 989 845.2 l 1,36,-1
 787 845.2 l 1,37,-1
 787 584.2 l 1,34,-1
383 218.8 m 1,38,-1
 585 218.8 l 1,39,-1
 585 479.8 l 1,40,-1
 383 479.8 l 1,41,-1
 383 218.8 l 1,38,-1
1191 218.8 m 1,42,-1
 1393 218.8 l 1,43,-1
 1393 479.8 l 1,44,-1
 1191 479.8 l 1,45,-1
 1191 218.8 l 1,42,-1
787 -146.6 m 1,46,-1
 989 -146.6 l 1,47,-1
 989 114.4 l 1,48,-1
 787 114.4 l 1,49,-1
 787 -146.6 l 1,46,-1
EndSplineSet
EndChar
StartChar: uni2596
Encoding: 9622 9622 9622
Width: 1575
Flags: W
TeX: 0 0 0 0
Fore
-20 -512 m 25,0,-1
 -20 532 l 25,1,-1
 786 532 l 25,2,-1
 786 -512 l 25,3,-1
 -20 -512 l 25,0,-1
EndSplineSet
EndChar
StartChar: filledbox
Encoding: 9632 9632 9632
Width: 1575
Flags: W
TeX: 0 0 0 0
Fore
6 -252.5 m 25,0,-1
 6 1316.5 l 25,1,-1
 1569 1316.5 l 25,2,-1
 1569 -252.5 l 25,3,-1
 6 -252.5 l 25,0,-1
EndSplineSet
EndChar
StartChar: H22073
Encoding: 9633 9633 9633
Width: 1575
Flags: W
TeX: 0 0 0 0
Fore
120 -138.5 m 25,0,-1
 1455 -138.5 l 25,1,-1
 1455 1202.5 l 25,2,-1
 120 1202.5 l 25,3,-1
 120 -138.5 l 25,0,-1
6 -252.5 m 25,4,-1
 6 1316.5 l 25,5,-1
 1569 1316.5 l 25,6,-1
 1569 -252.5 l 25,7,-1
 6 -252.5 l 25,4,-1
EndSplineSet
EndChar
StartChar: uni25A2
Encoding: 9634 9634 9634
Width: 1575
Flags: W
TeX: 0 0 0 0
Fore
120 89.5 m 17,0,1
 120 -138.5 120 -138.5 348 -138.5 c 9,2,-1
 1227 -138.5 l 17,3,4
 1455 -138.5 1455 -138.5 1455 89.5 c 9,5,-1
 1455 974.5 l 17,6,7
 1455 1202.5 1455 1202.5 1227 1202.5 c 9,8,-1
 348 1202.5 l 17,9,10
 120 1202.5 120 1202.5 120 974.5 c 9,11,-1
 120 89.5 l 17,0,1
6 89.5 m 9,12,-1
 6 974.5 l 17,13,14
 6 1316.5 6 1316.5 348 1316.5 c 9,15,-1
 1227 1316.5 l 17,16,17
 1569 1316.5 1569 1316.5 1569 974.5 c 9,18,-1
 1569 89.5 l 17,19,20
 1569 -252.5 1569 -252.5 1227 -252.5 c 9,21,-1
 348 -252.5 l 17,22,23
 6 -252.5 6 -252.5 6 89.5 c 9,12,-1
EndSplineSet
EndChar
StartChar: uni25A4
Encoding: 9636 9636 9636
Width: 1575
Flags: W
TeX: 0 0 0 0
Fore
6 -252.5 m 1,0,-1
 6 1316.5 l 1,1,-1
 1569 1316.5 l 1,2,-1
 1569 -252.5 l 1,3,-1
 6 -252.5 l 1,0,-1
120 -138 m 1,4,-1
 1455 -138 l 1,5,-1
 1455 38 l 1,6,-1
 120 38 l 1,7,-1
 120 -138 l 1,4,-1
120 152 m 1,8,-1
 1455 152 l 1,9,-1
 1455 330 l 1,10,-1
 120 330 l 1,11,-1
 120 152 l 1,8,-1
120 444 m 1,12,-1
 1455 444 l 1,13,-1
 1455 620 l 1,14,-1
 120 620 l 1,15,-1
 120 444 l 1,12,-1
120 734 m 1,16,-1
 1455 734 l 1,17,-1
 1455 912 l 1,18,-1
 120 912 l 1,19,-1
 120 734 l 1,16,-1
120 1026 m 1,20,-1
 1455 1026 l 1,21,-1
 1455 1202 l 1,22,-1
 120 1202 l 1,23,-1
 120 1026 l 1,20,-1
EndSplineSet
EndChar
StartChar: uni25A5
Encoding: 9637 9637 9637
Width: 1575
Flags: W
TeX: 0 0 0 0
Fore
6 -252.5 m 1,0,-1
 6 1316.5 l 1,1,-1
 1569 1316.5 l 1,2,-1
 1569 -252.5 l 1,3,-1
 6 -252.5 l 1,0,-1
1282 -136 m 1,4,-1
 1458 -136 l 1,5,-1
 1458 1200 l 1,6,-1
 1282 1200 l 1,7,-1
 1282 -136 l 1,4,-1
990 -136 m 1,8,-1
 1168 -136 l 1,9,-1
 1168 1200 l 1,10,-1
 990 1200 l 1,11,-1
 990 -136 l 1,8,-1
700 -136 m 1,12,-1
 876 -136 l 1,13,-1
 876 1200 l 1,14,-1
 700 1200 l 1,15,-1
 700 -136 l 1,12,-1
408 -136 m 1,16,-1
 586 -136 l 1,17,-1
 586 1200 l 1,18,-1
 408 1200 l 1,19,-1
 408 -136 l 1,16,-1
118 -136 m 1,20,-1
 294 -136 l 1,21,-1
 294 1200 l 1,22,-1
 118 1200 l 1,23,-1
 118 -136 l 1,20,-1
EndSplineSet
EndChar
StartChar: uni25A6
Encoding: 9638 9638 9638
Width: 1575
Flags: W
TeX: 0 0 0 0
Fore
408 -136 m 1,0,-1
 586 -136 l 1,1,-1
 586 38 l 1,2,-1
 408 38 l 1,3,-1
 408 -136 l 1,0,-1
700 -136 m 1,4,-1
 876 -136 l 1,5,-1
 876 38 l 1,6,-1
 700 38 l 1,7,-1
 700 -136 l 1,4,-1
990 -136 m 1,8,-1
 1168 -136 l 1,9,-1
 1168 38 l 1,10,-1
 990 38 l 1,11,-1
 990 -136 l 1,8,-1
120 1026 m 1,12,-1
 294 1026 l 1,13,-1
 294 1200 l 1,14,-1
 120 1200 l 1,15,-1
 120 1026 l 1,12,-1
120 734 m 1,16,-1
 294 734 l 1,17,-1
 294 912 l 1,18,-1
 120 912 l 1,19,-1
 120 734 l 1,16,-1
120 444 m 1,20,-1
 294 444 l 1,21,-1
 294 620 l 1,22,-1
 120 620 l 1,23,-1
 120 444 l 1,20,-1
120 152 m 1,24,-1
 294 152 l 1,25,-1
 294 330 l 1,26,-1
 120 330 l 1,27,-1
 120 152 l 1,24,-1
120 -136 m 1,28,-1
 294 -136 l 1,29,-1
 294 38 l 1,30,-1
 120 38 l 1,31,-1
 120 -136 l 1,28,-1
408 1026 m 1,32,-1
 586 1026 l 1,33,-1
 586 1200 l 1,34,-1
 408 1200 l 1,35,-1
 408 1026 l 1,32,-1
408 734 m 1,36,-1
 586 734 l 1,37,-1
 586 912 l 1,38,-1
 408 912 l 1,39,-1
 408 734 l 1,36,-1
408 444 m 1,40,-1
 586 444 l 1,41,-1
 586 620 l 1,42,-1
 408 620 l 1,43,-1
 408 444 l 1,40,-1
408 152 m 1,44,-1
 586 152 l 1,45,-1
 586 330 l 1,46,-1
 408 330 l 1,47,-1
 408 152 l 1,44,-1
700 1026 m 1,48,-1
 876 1026 l 1,49,-1
 876 1200 l 1,50,-1
 700 1200 l 1,51,-1
 700 1026 l 1,48,-1
700 734 m 1,52,-1
 876 734 l 1,53,-1
 876 912 l 1,54,-1
 700 912 l 1,55,-1
 700 734 l 1,52,-1
700 444 m 1,56,-1
 876 444 l 1,57,-1
 876 620 l 1,58,-1
 700 620 l 1,59,-1
 700 444 l 1,56,-1
700 152 m 1,60,-1
 876 152 l 1,61,-1
 876 330 l 1,62,-1
 700 330 l 1,63,-1
 700 152 l 1,60,-1
990 1026 m 1,64,-1
 1168 1026 l 1,65,-1
 1168 1200 l 1,66,-1
 990 1200 l 1,67,-1
 990 1026 l 1,64,-1
990 734 m 1,68,-1
 1168 734 l 1,69,-1
 1168 912 l 1,70,-1
 990 912 l 1,71,-1
 990 734 l 1,68,-1
990 444 m 1,72,-1
 1168 444 l 1,73,-1
 1168 620 l 1,74,-1
 990 620 l 1,75,-1
 990 444 l 1,72,-1
990 152 m 1,76,-1
 1168 152 l 1,77,-1
 1168 330 l 1,78,-1
 990 330 l 1,79,-1
 990 152 l 1,76,-1
1282 1026 m 1,80,-1
 1455 1026 l 1,81,-1
 1455 1200 l 1,82,-1
 1282 1200 l 1,83,-1
 1282 1026 l 1,80,-1
1282 734 m 1,84,-1
 1455 734 l 1,85,-1
 1455 912 l 1,86,-1
 1282 912 l 1,87,-1
 1282 734 l 1,84,-1
1282 444 m 1,88,-1
 1455 444 l 1,89,-1
 1455 620 l 1,90,-1
 1282 620 l 1,91,-1
 1282 444 l 1,88,-1
1282 152 m 1,92,-1
 1455 152 l 1,93,-1
 1455 330 l 1,94,-1
 1282 330 l 1,95,-1
 1282 152 l 1,92,-1
1282 -136 m 1,96,-1
 1455 -136 l 1,97,-1
 1455 38 l 1,98,-1
 1282 38 l 1,99,-1
 1282 -136 l 1,96,-1
6 -252.5 m 1,100,-1
 6 1316.5 l 1,101,-1
 1569 1316.5 l 1,102,-1
 1569 -252.5 l 1,103,-1
 6 -252.5 l 1,100,-1
EndSplineSet
EndChar
StartChar: uni25A7
Encoding: 9639 9639 9639
Width: 1575
Flags: W
TeX: 0 0 0 0
Fore
6 -252.5 m 1,0,-1
 6 1316.5 l 1,1,-1
 1569 1316.5 l 1,2,-1
 1569 -252.5 l 1,3,-1
 6 -252.5 l 1,0,-1
120 88 m 1,4,-1
 120 -138 l 1,5,-1
 346 -138 l 1,6,-1
 120 88 l 1,4,-1
120 501 m 1,7,-1
 120 249 l 1,8,-1
 508 -138 l 1,9,-1
 759 -138 l 1,10,-1
 120 501 l 1,7,-1
120 914 m 1,11,-1
 120 662 l 1,12,-1
 921 -139 l 1,13,-1
 1172 -138 l 1,14,-1
 120 914 l 1,11,-1
120 1202 m 1,15,-1
 120 1075 l 1,16,-1
 1334 -139 l 1,17,-1
 1455 -138 l 1,18,-1
 1455 -11 l 1,19,-1
 241 1202 l 1,20,-1
 120 1202 l 1,15,-1
403 1202 m 1,21,-1
 1455 150 l 1,22,-1
 1455 402 l 1,23,-1
 654 1202 l 1,24,-1
 403 1202 l 1,21,-1
816 1202 m 1,25,-1
 1455 563 l 1,26,-1
 1455 815 l 1,27,-1
 1067 1202 l 1,28,-1
 816 1202 l 1,25,-1
1229 1202 m 1,29,-1
 1455 976 l 1,30,-1
 1455 1202 l 1,31,-1
 1229 1202 l 1,29,-1
EndSplineSet
EndChar
StartChar: uni25A8
Encoding: 9640 9640 9640
Width: 1575
Flags: W
TeX: 0 0 0 0
Fore
6 -252.5 m 1,0,-1
 6 1316.5 l 1,1,-1
 1569 1316.5 l 1,2,-1
 1569 -252.5 l 1,3,-1
 6 -252.5 l 1,0,-1
1229 -138 m 1,4,-1
 1455 -138 l 1,5,-1
 1455 88 l 1,6,-1
 1229 -138 l 1,4,-1
816 -138 m 1,7,-1
 1067 -138 l 1,8,-1
 1455 249 l 1,9,-1
 1455 501 l 1,10,-1
 816 -138 l 1,7,-1
403 -138 m 1,11,-1
 654 -139 l 1,12,-1
 1455 662 l 1,13,-1
 1455 914 l 1,14,-1
 403 -138 l 1,11,-1
120 -138 m 1,15,-1
 241 -139 l 1,16,-1
 1455 1075 l 1,17,-1
 1455 1202 l 1,18,-1
 1334 1202 l 1,19,-1
 120 -11 l 1,20,-1
 120 -138 l 1,15,-1
120 150 m 1,21,-1
 1172 1202 l 1,22,-1
 921 1202 l 1,23,-1
 120 402 l 1,24,-1
 120 150 l 1,21,-1
120 563 m 1,25,-1
 759 1202 l 1,26,-1
 508 1202 l 1,27,-1
 120 815 l 1,28,-1
 120 563 l 1,25,-1
120 976 m 1,29,-1
 346 1202 l 1,30,-1
 120 1202 l 1,31,-1
 120 976 l 1,29,-1
EndSplineSet
EndChar
StartChar: uni25A9
Encoding: 9641 9641 9641
Width: 1575
Flags: W
TeX: 0 0 0 0
Fore
120 1075 m 1,0,-1
 170 1026 l 1,1,-1
 294 1150 l 1,2,-1
 241 1202 l 1,3,-1
 120 1202 l 1,4,-1
 120 1075 l 1,0,-1
120 662 m 1,5,-1
 170 612 l 1,6,-1
 296 738 l 1,7,-1
 170 864 l 1,8,-1
 120 815 l 1,9,-1
 120 662 l 1,5,-1
455 1150 m 1,10,-1
 581 1024 l 1,11,-1
 707 1150 l 1,12,-1
 654 1202 l 1,13,-1
 508 1202 l 1,14,-1
 455 1150 l 1,10,-1
250 945 m 1,15,-1
 376 819 l 1,16,-1
 500 943 l 1,17,-1
 374 1069 l 1,18,-1
 250 945 l 1,15,-1
120 249 m 1,19,-1
 170 200 l 1,20,-1
 296 326 l 1,21,-1
 170 451 l 1,22,-1
 120 402 l 1,23,-1
 120 249 l 1,19,-1
868 1150 m 1,24,-1
 994 1024 l 1,25,-1
 1120 1150 l 1,26,-1
 1067 1202 l 1,27,-1
 921 1202 l 1,28,-1
 868 1150 l 1,24,-1
662 943 m 1,29,-1
 788 818 l 1,30,-1
 913 943 l 1,31,-1
 788 1069 l 1,32,-1
 662 943 l 1,29,-1
457 738 m 1,33,-1
 582 612 l 1,34,-1
 707 737 l 1,35,-1
 581 862 l 1,36,-1
 457 738 l 1,33,-1
250 532 m 1,37,-1
 376 406 l 1,38,-1
 502 532 l 1,39,-1
 376 658 l 1,40,-1
 250 532 l 1,37,-1
1281 1150 m 1,41,-1
 1406 1026 l 1,42,-1
 1455 1075 l 1,43,-1
 1455 1202 l 1,44,-1
 1334 1202 l 1,45,-1
 1281 1150 l 1,41,-1
1075 943 m 1,46,-1
 1199 819 l 1,47,-1
 1325 945 l 1,48,-1
 1201 1069 l 1,49,-1
 1075 943 l 1,46,-1
868 737 m 1,50,-1
 992 612 l 1,51,-1
 1118 738 l 1,52,-1
 994 862 l 1,53,-1
 868 737 l 1,50,-1
663 532 m 1,54,-1
 788 408 l 1,55,-1
 912 532 l 1,56,-1
 788 656 l 1,57,-1
 663 532 l 1,54,-1
457 325 m 1,58,-1
 581 201 l 1,59,-1
 707 327 l 1,60,-1
 583 451 l 1,61,-1
 457 325 l 1,58,-1
250 119 m 1,62,-1
 375 -5 l 1,63,-1
 500 120 l 1,64,-1
 376 245 l 1,65,-1
 250 119 l 1,62,-1
120 -138 m 1,66,-1
 242 -138 l 1,67,-1
 294 -86 l 1,68,-1
 170 38 l 1,69,-1
 120 -11 l 1,70,-1
 120 -138 l 1,66,-1
1280 738 m 1,71,-1
 1406 612 l 1,72,-1
 1455 662 l 1,73,-1
 1455 815 l 1,74,-1
 1405 864 l 1,75,-1
 1280 738 l 1,71,-1
1073 532 m 1,76,-1
 1199 406 l 1,77,-1
 1325 532 l 1,78,-1
 1199 658 l 1,79,-1
 1073 532 l 1,76,-1
868 327 m 1,80,-1
 994 201 l 1,81,-1
 1118 325 l 1,82,-1
 992 451 l 1,83,-1
 868 327 l 1,80,-1
662 120 m 1,84,-1
 788 -6 l 1,85,-1
 914 120 l 1,86,-1
 788 246 l 1,87,-1
 662 120 l 1,84,-1
455 -86 m 1,88,-1
 508 -138 l 1,89,-1
 655 -138 l 1,90,-1
 707 -86 l 1,91,-1
 581 40 l 1,92,-1
 455 -86 l 1,88,-1
1280 326 m 1,93,-1
 1405 200 l 1,94,-1
 1455 249 l 1,95,-1
 1455 402 l 1,96,-1
 1405 451 l 1,97,-1
 1280 326 l 1,93,-1
1074 120 m 1,98,-1
 1200 -5 l 1,99,-1
 1325 119 l 1,100,-1
 1199 245 l 1,101,-1
 1074 120 l 1,98,-1
868 -86 m 1,102,-1
 920 -138 l 1,103,-1
 1067 -138 l 1,104,-1
 1120 -86 l 1,105,-1
 994 40 l 1,106,-1
 868 -86 l 1,102,-1
1281 -86 m 1,107,-1
 1333 -138 l 1,108,-1
 1455 -138 l 1,109,-1
 1455 -11 l 1,110,-1
 1405 38 l 1,111,-1
 1281 -86 l 1,107,-1
6 -252.5 m 1,112,-1
 6 1316.5 l 1,113,-1
 1569 1316.5 l 1,114,-1
 1569 -252.5 l 1,115,-1
 6 -252.5 l 1,112,-1
EndSplineSet
EndChar
StartChar: H18543
Encoding: 9642 9642 9642
Width: 1028
Flags: W
TeX: 0 0 0 0
Fore
6 22 m 25,0,-1
 6 1042 l 25,1,-1
 1022 1042 l 25,2,-1
 1022 22 l 25,3,-1
 6 22 l 25,0,-1
EndSplineSet
EndChar
StartChar: H18551
Encoding: 9643 9643 9643
Width: 1028
Flags: W
TeX: 0 0 0 0
Fore
120 136 m 25,0,-1
 908 136 l 25,1,-1
 908 928 l 25,2,-1
 120 928 l 25,3,-1
 120 136 l 25,0,-1
6 22 m 25,4,-1
 6 1042 l 25,5,-1
 1022 1042 l 25,6,-1
 1022 22 l 25,7,-1
 6 22 l 25,4,-1
EndSplineSet
EndChar
StartChar: filledrect
Encoding: 9644 9644 9644
Width: 1575
Flags: W
TeX: 0 0 0 0
Fore
1569 154.5 m 25,0,-1
 6 154.5 l 25,1,-1
 6 909.5 l 25,2,-1
 1569 909.5 l 25,3,-1
 1569 154.5 l 25,0,-1
EndSplineSet
EndChar
StartChar: uni25AD
Encoding: 9645 9645 9645
Width: 1575
Flags: W
TeX: 0 0 0 0
Fore
1455 268.5 m 25,0,-1
 1455 795.5 l 25,1,-1
 120 795.5 l 25,2,-1
 120 268.5 l 25,3,-1
 1455 268.5 l 25,0,-1
1569 154.5 m 25,4,-1
 6 154.5 l 25,5,-1
 6 909.5 l 25,6,-1
 1569 909.5 l 25,7,-1
 1569 154.5 l 25,4,-1
EndSplineSet
EndChar
StartChar: uni25AE
Encoding: 9646 9646 9646
Width: 767
Flags: W
TeX: 0 0 0 0
Fore
6 -249.5 m 25,0,-1
 6 1313.5 l 25,1,-1
 761 1313.5 l 25,2,-1
 761 -249.5 l 25,3,-1
 6 -249.5 l 25,0,-1
EndSplineSet
EndChar
StartChar: uni25AF
Encoding: 9647 9647 9647
Width: 767
Flags: W
TeX: 0 0 0 0
Fore
120 -135.5 m 25,0,-1
 647 -135.5 l 25,1,-1
 647 1199.5 l 25,2,-1
 120 1199.5 l 25,3,-1
 120 -135.5 l 25,0,-1
6 -249.5 m 25,4,-1
 6 1313.5 l 25,5,-1
 761 1313.5 l 25,6,-1
 761 -249.5 l 25,7,-1
 6 -249.5 l 25,4,-1
EndSplineSet
EndChar
StartChar: uni25B0
Encoding: 9648 9648 9648
Width: 1575
Flags: W
TeX: 0 0 0 0
Fore
1175.5 154.5 m 25,0,-1
 6 154.5 l 25,1,-1
 399.5 909.5 l 25,2,-1
 1569 909.5 l 25,3,-1
 1175.5 154.5 l 25,0,-1
EndSplineSet
EndChar
StartChar: uni25B1
Encoding: 9649 9649 9649
Width: 1575
Flags: W
TeX: 0 0 0 0
Fore
1122 268.5 m 25,0,-1
 1394.5 795.5 l 25,1,-1
 453 795.5 l 25,2,-1
 180.5 268.5 l 25,3,-1
 1122 268.5 l 25,0,-1
1175.5 154.5 m 25,4,-1
 6 154.5 l 25,5,-1
 399.5 909.5 l 25,6,-1
 1569 909.5 l 25,7,-1
 1175.5 154.5 l 25,4,-1
EndSplineSet
EndChar
StartChar: triagup
Encoding: 9650 9650 9650
Width: 1575
Flags: W
TeX: 0 0 0 0
Fore
6 -252.5 m 25,0,-1
 787 1316.5 l 25,1,-1
 1569 -252.5 l 25,2,-1
 6 -252.5 l 25,0,-1
EndSplineSet
EndChar
StartChar: uni25B3
Encoding: 9651 9651 9651
Width: 1575
Flags: W
TeX: 0 0 0 0
Fore
177 -138.5 m 25,0,-1
 1398 -138.5 l 25,1,-1
 787 1088.5 l 25,2,-1
 177 -138.5 l 25,0,-1
6 -252.5 m 25,3,-1
 787 1316.5 l 25,4,-1
 1569 -252.5 l 25,5,-1
 6 -252.5 l 25,3,-1
EndSplineSet
EndChar
StartChar: uni25B4
Encoding: 9652 9652 9652
Width: 1028
Flags: W
TeX: 0 0 0 0
Fore
6 22 m 25,0,-1
 514 1042 l 25,1,-1
 1022 22 l 25,2,-1
 6 22 l 25,0,-1
EndSplineSet
EndChar
StartChar: uni25B5
Encoding: 9653 9653 9653
Width: 1028
Flags: W
TeX: 0 0 0 0
Fore
177 136 m 25,0,-1
 851 136 l 25,1,-1
 514 814 l 25,2,-1
 177 136 l 25,0,-1
6 22 m 25,3,-1
 514 1042 l 25,4,-1
 1022 22 l 25,5,-1
 6 22 l 25,3,-1
EndSplineSet
EndChar
StartChar: uni25B6
Encoding: 9654 9654 9654
Width: 1575
Flags: W
TeX: 0 0 0 0
Fore
6 -252.5 m 25,0,-1
 6 1316.5 l 25,1,-1
 1569 532 l 25,2,-1
 6 -252.5 l 25,0,-1
EndSplineSet
EndChar
StartChar: uni25B7
Encoding: 9655 9655 9655
Width: 1575
Flags: W
TeX: 0 0 0 0
Fore
120 -81.5 m 25,0,-1
 1341 532 l 25,1,-1
 120 1145.5 l 25,2,-1
 120 -81.5 l 25,0,-1
6 -252.5 m 25,3,-1
 6 1316.5 l 25,4,-1
 1569 532 l 25,5,-1
 6 -252.5 l 25,3,-1
EndSplineSet
EndChar
StartChar: uni25B8
Encoding: 9656 9656 9656
Width: 1028
Flags: W
TeX: 0 0 0 0
Fore
6 22 m 25,0,-1
 6 1042 l 25,1,-1
 1022 532 l 25,2,-1
 6 22 l 25,0,-1
EndSplineSet
EndChar
StartChar: uni25B9
Encoding: 9657 9657 9657
Width: 1028
Flags: W
TeX: 0 0 0 0
Fore
120 193 m 25,0,-1
 794 532 l 25,1,-1
 120 871 l 25,2,-1
 120 193 l 25,0,-1
6 22 m 25,3,-1
 6 1042 l 25,4,-1
 1022 532 l 25,5,-1
 6 22 l 25,3,-1
EndSplineSet
EndChar
StartChar: triagrt
Encoding: 9658 9658 9658
Width: 1575
Flags: W
TeX: 0 0 0 0
Fore
6 22 m 25,0,-1
 6 1042 l 25,1,-1
 1569 532 l 25,2,-1
 6 22 l 25,0,-1
EndSplineSet
EndChar
StartChar: uni25BB
Encoding: 9659 9659 9659
Width: 1575
Flags: W
TeX: 0 0 0 0
Fore
120 193 m 25,0,-1
 1284 532 l 25,1,-1
 120 871 l 25,2,-1
 120 193 l 25,0,-1
6 22 m 25,3,-1
 6 1042 l 25,4,-1
 1569 532 l 25,5,-1
 6 22 l 25,3,-1
EndSplineSet
EndChar
StartChar: triagdn
Encoding: 9660 9660 9660
Width: 1575
Flags: W
TeX: 0 0 0 0
Fore
6 1316.5 m 25,0,-1
 1569 1316.5 l 25,1,-1
 787 -252.5 l 25,2,-1
 6 1316.5 l 25,0,-1
EndSplineSet
EndChar
StartChar: uni25BD
Encoding: 9661 9661 9661
Width: 1575
Flags: W
TeX: 0 0 0 0
Fore
177 1202.5 m 25,0,-1
 787 -24.5 l 25,1,-1
 1398 1202.5 l 25,2,-1
 177 1202.5 l 25,0,-1
6 1316.5 m 25,3,-1
 1569 1316.5 l 25,4,-1
 787 -252.5 l 25,5,-1
 6 1316.5 l 25,3,-1
EndSplineSet
EndChar
StartChar: uni25BE
Encoding: 9662 9662 9662
Width: 1028
Flags: W
TeX: 0 0 0 0
Fore
6 1042 m 25,0,-1
 1022 1042 l 25,1,-1
 514 22 l 25,2,-1
 6 1042 l 25,0,-1
EndSplineSet
EndChar
StartChar: uni25BF
Encoding: 9663 9663 9663
Width: 1028
Flags: W
TeX: 0 0 0 0
Fore
177 928 m 25,0,-1
 514 250 l 25,1,-1
 851 928 l 25,2,-1
 177 928 l 25,0,-1
6 1042 m 25,3,-1
 1022 1042 l 25,4,-1
 514 22 l 25,5,-1
 6 1042 l 25,3,-1
EndSplineSet
EndChar
StartChar: uni25C0
Encoding: 9664 9664 9664
Width: 1575
Flags: W
TeX: 0 0 0 0
Fore
6 532 m 25,0,-1
 1569 1316.5 l 25,1,-1
 1569 -252.5 l 25,2,-1
 6 532 l 25,0,-1
EndSplineSet
EndChar
StartChar: uni25C1
Encoding: 9665 9665 9665
Width: 1575
Flags: W
TeX: 0 0 0 0
Fore
234 532 m 25,0,-1
 1455 -81.5 l 25,1,-1
 1455 1145.5 l 25,2,-1
 234 532 l 25,0,-1
6 532 m 25,3,-1
 1569 1316.5 l 25,4,-1
 1569 -252.5 l 25,5,-1
 6 532 l 25,3,-1
EndSplineSet
EndChar
StartChar: uni25C2
Encoding: 9666 9666 9666
Width: 1028
Flags: W
TeX: 0 0 0 0
Fore
6 532 m 25,0,-1
 1022 1042 l 25,1,-1
 1022 22 l 25,2,-1
 6 532 l 25,0,-1
EndSplineSet
EndChar
StartChar: uni25C3
Encoding: 9667 9667 9667
Width: 1028
Flags: W
TeX: 0 0 0 0
Fore
234 532 m 25,0,-1
 908 193 l 25,1,-1
 908 871 l 25,2,-1
 234 532 l 25,0,-1
6 532 m 25,3,-1
 1022 1042 l 25,4,-1
 1022 22 l 25,5,-1
 6 532 l 25,3,-1
EndSplineSet
EndChar
StartChar: triaglf
Encoding: 9668 9668 9668
Width: 1575
Flags: W
TeX: 0 0 0 0
Fore
6 532 m 25,0,-1
 1569 1042 l 25,1,-1
 1569 22 l 25,2,-1
 6 532 l 25,0,-1
EndSplineSet
EndChar
StartChar: uni25C5
Encoding: 9669 9669 9669
Width: 1575
Flags: W
TeX: 0 0 0 0
Fore
291 532 m 25,0,-1
 1455 193 l 25,1,-1
 1455 871 l 25,2,-1
 291 532 l 25,0,-1
6 532 m 25,3,-1
 1569 1042 l 25,4,-1
 1569 22 l 25,5,-1
 6 532 l 25,3,-1
EndSplineSet
EndChar
StartChar: uni25C6
Encoding: 9670 9670 9670
Width: 1575
Flags: W
TeX: 0 0 0 0
Fore
6 532 m 25,0,-1
 787 1316.5 l 25,1,-1
 1569 532 l 25,2,-1
 787 -252.5 l 25,3,-1
 6 532 l 25,0,-1
EndSplineSet
EndChar
StartChar: uni25C7
Encoding: 9671 9671 9671
Width: 1575
Flags: W
TeX: 0 0 0 0
Fore
158 532 m 25,0,-1
 787 -100.5 l 25,1,-1
 1417 532 l 25,2,-1
 787 1164.5 l 25,3,-1
 158 532 l 25,0,-1
6 532 m 25,4,-1
 787 1316.5 l 25,5,-1
 1569 532 l 25,6,-1
 787 -252.5 l 25,7,-1
 6 532 l 25,4,-1
EndSplineSet
EndChar
StartChar: uni25C8
Encoding: 9672 9672 9672
Width: 1575
Flags: W
TeX: 0 0 0 0
Fore
318 532 m 25,0,-1
 787 1002.7 l 25,1,-1
 1256 532 l 25,2,-1
 787 61.2998 l 25,3,-1
 318 532 l 25,0,-1
158 532 m 25,4,-1
 787 -100.5 l 25,5,-1
 1417 532 l 25,6,-1
 787 1164.5 l 25,7,-1
 158 532 l 25,4,-1
6 532 m 25,8,-1
 787 1316.5 l 25,9,-1
 1569 532 l 25,10,-1
 787 -252.5 l 25,11,-1
 6 532 l 25,8,-1
EndSplineSet
EndChar
StartChar: uni25C9
Encoding: 9673 9673 9673
Width: 1575
Flags: W
TeX: 0 0 0 0
Fore
279.525 532 m 152,-1,1
 279.525 824.809 279.525 824.809 533.675 971.4 c 16,2,3
 660.425 1044.85 660.425 1044.85 787.175 1044.85 c 24,4,5
 914.575 1044.85 914.575 1044.85 1041.33 971.4 c 8,6,7
 1295.47 824.809 1295.47 824.809 1295.47 532 c 152,-1,8
 1295.47 239.191 1295.47 239.191 1041.33 92.5996 c 16,9,10
 914.575 19.1504 914.575 19.1504 787.175 19.1504 c 24,11,12
 660.425 19.1504 660.425 19.1504 533.675 92.5996 c 8,13,0
 279.525 239.191 279.525 239.191 279.525 532 c 152,-1,1
123.225 532 m 152,-1,15
 123.225 149.097 123.225 149.097 455.575 -42.5996 c 16,16,17
 621.325 -138.65 621.325 -138.65 787.075 -138.65 c 24,18,19
 953.675 -138.65 953.675 -138.65 1119.42 -42.5996 c 8,20,21
 1451.78 149.097 1451.78 149.097 1451.78 532 c 152,-1,22
 1451.78 914.903 1451.78 914.903 1119.42 1106.6 c 16,23,24
 953.675 1202.65 953.675 1202.65 787.075 1202.65 c 24,25,26
 621.325 1202.65 621.325 1202.65 455.575 1106.6 c 8,27,14
 123.225 914.903 123.225 914.903 123.225 532 c 152,-1,15
6 532 m 152,-1,29
 6 982.474 6 982.474 397 1208 c 16,30,31
 592 1321 592 1321 787 1321 c 24,32,33
 983 1321 983 1321 1178 1208 c 8,34,35
 1569 982.474 1569 982.474 1569 532 c 152,-1,36
 1569 81.5256 1569 81.5256 1178 -144 c 16,37,38
 983 -257 983 -257 787 -257 c 24,39,40
 592 -257 592 -257 397 -144 c 8,41,28
 6 81.5256 6 81.5256 6 532 c 152,-1,29
EndSplineSet
EndChar
StartChar: lozenge
Encoding: 9674 9674 9674
Width: 1012
Flags: W
Fore
506 1409 m 1,0,-1
 121 592 l 1,1,-1
 506 -233 l 1,2,-1
 891 592 l 1,3,-1
 506 1409 l 1,0,-1
506 1653 m 1,4,-1
 1006 592 l 1,5,-1
 506 -477 l 1,6,-1
 6 592 l 1,7,-1
 506 1653 l 1,4,-1
EndSplineSet
EndChar
StartChar: circle
Encoding: 9675 9675 9675
Width: 1575
Flags: W
TeX: 0 0 0 0
Fore
123.225 532 m 152,-1,1
 123.225 149.097 123.225 149.097 455.575 -42.5996 c 16,2,3
 621.325 -138.65 621.325 -138.65 787.075 -138.65 c 24,4,5
 953.675 -138.65 953.675 -138.65 1119.42 -42.5996 c 8,6,7
 1451.78 149.097 1451.78 149.097 1451.78 532 c 152,-1,8
 1451.78 914.903 1451.78 914.903 1119.42 1106.6 c 16,9,10
 953.675 1202.65 953.675 1202.65 787.075 1202.65 c 24,11,12
 621.325 1202.65 621.325 1202.65 455.575 1106.6 c 8,13,0
 123.225 914.903 123.225 914.903 123.225 532 c 152,-1,1
6 532 m 152,-1,15
 6 982.474 6 982.474 397 1208 c 16,16,17
 592 1321 592 1321 787 1321 c 24,18,19
 983 1321 983 1321 1178 1208 c 8,20,21
 1569 982.474 1569 982.474 1569 532 c 152,-1,22
 1569 81.5256 1569 81.5256 1178 -144 c 16,23,24
 983 -257 983 -257 787 -257 c 24,25,26
 592 -257 592 -257 397 -144 c 8,27,14
 6 81.5256 6 81.5256 6 532 c 152,-1,15
EndSplineSet
EndChar
StartChar: uni25CC
Encoding: 9676 9676 9676
Width: 1575
Flags: W
TeX: 0 0 0 0
Fore
242 143 m 17,0,1
 285 83 285 83 344 34 c 0,2,3
 390 -4 390 -4 446 -36 c 1,4,-1
 397 -142 l 1,5,6
 327 -102 327 -102 270 -54 c 0,7,8
 195 7 195 7 142 81 c 9,9,-1
 242 143 l 17,0,1
1128 -36 m 17,10,11
 1184 -4 1184 -4 1230 34 c 0,12,13
 1282 78 1282 78 1332 143 c 1,14,-1
 1432 82 l 1,15,16
 1373 4 1373 4 1304 -54 c 0,17,18
 1247 -102 1247 -102 1176 -142 c 9,19,-1
 1128 -36 l 17,10,11
1332 921 m 17,20,21
 1288 981 1288 981 1230 1030 c 0,22,23
 1184 1068 1184 1068 1128 1100 c 1,24,-1
 1176 1206 l 1,25,26
 1247 1166 1247 1166 1304 1118 c 0,27,28
 1378 1057 1378 1057 1432 983 c 9,29,-1
 1332 921 l 17,20,21
446 1100 m 17,30,31
 390 1068 390 1068 344 1030 c 0,32,33
 285 981 285 981 242 921 c 1,34,-1
 142 983 l 1,35,36
 191 1052 191 1052 270 1118 c 0,37,38
 327 1166 327 1166 397 1206 c 9,39,-1
 446 1100 l 17,30,31
634 -118 m 17,40,41
 710 -140 710 -140 787 -140 c 128,-1,42
 864 -140 864 -140 940 -118 c 1,43,-1
 978 -228 l 1,44,45
 883 -255 883 -255 787 -255 c 128,-1,46
 691 -255 691 -255 595 -228 c 9,47,-1
 634 -118 l 17,40,41
1437 379 m 17,48,49
 1453 452 1453 452 1453 532 c 128,-1,50
 1453 612 1453 612 1437 685 c 1,51,-1
 1547 724 l 1,52,53
 1567 633 1567 633 1567 532 c 128,-1,54
 1567 431 1567 431 1547 340 c 9,55,-1
 1437 379 l 17,48,49
940 1182 m 17,56,57
 864 1204 864 1204 787 1204 c 128,-1,58
 710 1204 710 1204 634 1182 c 1,59,-1
 595 1292 l 1,60,61
 691 1319 691 1319 787 1319 c 128,-1,62
 883 1319 883 1319 978 1292 c 9,63,-1
 940 1182 l 17,56,57
138 685 m 17,64,65
 122 612 122 612 122 532 c 128,-1,66
 122 452 122 452 138 379 c 1,67,-1
 28 340 l 1,68,69
 8 431 8 431 8 532 c 128,-1,70
 8 633 8 633 28 724 c 9,71,-1
 138 685 l 17,64,65
EndSplineSet
EndChar
StartChar: uni25CD
Encoding: 9677 9677 9677
Width: 1575
Flags: W
TeX: 0 0 0 0
Fore
6 532 m 0,0,1
 6 981.947 6 981.947 397 1208 c 0,2,3
 592.455 1321 592.455 1321 787 1321 c 0,4,5
 982.545 1321 982.545 1321 1178 1208 c 0,6,7
 1569 981.947 1569 981.947 1569 532 c 0,8,9
 1569 82.0522 1569 82.0522 1178 -144 c 0,10,11
 982.545 -257 982.545 -257 787 -257 c 0,12,13
 592.455 -257 592.455 -257 397 -144 c 0,14,15
 6 82.0522 6 82.0522 6 532 c 0,0,1
408 1077 m 1,16,-1
 408 -13 l 1,17,18
 431 -28 431 -28 456 -43 c 0,19,20
 521 -80 521 -80 586 -103 c 1,21,-1
 586 1167 l 1,22,23
 521 1144 521 1144 456 1107 c 0,24,25
 431 1092 431 1092 408 1077 c 1,16,-1
294 983 m 1,26,27
 123 806 123 806 123 532 c 0,28,29
 123 258 123 258 294 81 c 1,30,-1
 294 983 l 1,26,27
700 1196 m 1,31,-1
 700 -132 l 1,32,33
 744 -139 744 -139 787 -139 c 0,34,35
 832 -139 832 -139 876 -132 c 1,36,-1
 876 1196 l 1,37,38
 832 1203 832 1203 787 1203 c 0,39,40
 744 1203 744 1203 700 1196 c 1,31,-1
990 1167 m 1,41,-1
 990 -103 l 1,42,43
 1055 -80 1055 -80 1119 -43 c 0,44,45
 1145 -28 1145 -28 1168 -12 c 1,46,-1
 1168 1076 l 1,47,48
 1145 1092 1145 1092 1119 1107 c 0,49,50
 1055 1144 1055 1144 990 1167 c 1,41,-1
1282 982 m 1,51,-1
 1282 82 l 1,52,53
 1452 259 1452 259 1452 532 c 0,54,55
 1452 805 1452 805 1282 982 c 1,51,-1
EndSplineSet
EndChar
StartChar: uni25CE
Encoding: 9678 9678 9678
Width: 1575
Flags: W
TeX: 0 0 0 0
Fore
558.911 532 m 152,-1,1
 558.911 400.236 558.911 400.236 673.279 334.27 c 16,2,3
 730.316 301.218 730.316 301.218 787.354 301.218 c 24,4,5
 844.684 301.218 844.684 301.218 901.721 334.27 c 8,6,7
 1016.09 400.236 1016.09 400.236 1016.09 532 c 152,-1,8
 1016.09 663.764 1016.09 663.764 901.721 729.73 c 16,9,10
 844.684 762.782 844.684 762.782 787.354 762.782 c 24,11,12
 730.316 762.782 730.316 762.782 673.279 729.73 c 8,13,0
 558.911 663.764 558.911 663.764 558.911 532 c 152,-1,1
435.825 532 m 152,-1,15
 435.825 734.713 435.825 734.713 611.775 836.2 c 16,16,17
 699.525 887.05 699.525 887.05 787.275 887.05 c 24,18,19
 875.475 887.05 875.475 887.05 963.225 836.2 c 8,20,21
 1139.17 734.713 1139.17 734.713 1139.17 532 c 152,-1,22
 1139.17 329.286 1139.17 329.286 963.225 227.8 c 16,23,24
 875.475 176.95 875.475 176.95 787.275 176.95 c 24,25,26
 699.525 176.95 699.525 176.95 611.775 227.8 c 8,27,14
 435.825 329.286 435.825 329.286 435.825 532 c 152,-1,15
123.225 532 m 152,-1,29
 123.225 149.097 123.225 149.097 455.575 -42.5996 c 16,30,31
 621.325 -138.65 621.325 -138.65 787.075 -138.65 c 24,32,33
 953.675 -138.65 953.675 -138.65 1119.42 -42.5996 c 8,34,35
 1451.78 149.097 1451.78 149.097 1451.78 532 c 152,-1,36
 1451.78 914.903 1451.78 914.903 1119.42 1106.6 c 16,37,38
 953.675 1202.65 953.675 1202.65 787.075 1202.65 c 24,39,40
 621.325 1202.65 621.325 1202.65 455.575 1106.6 c 8,41,28
 123.225 914.903 123.225 914.903 123.225 532 c 152,-1,29
6 532 m 152,-1,43
 6 982.474 6 982.474 397 1208 c 16,44,45
 592 1321 592 1321 787 1321 c 24,46,47
 983 1321 983 1321 1178 1208 c 8,48,49
 1569 982.474 1569 982.474 1569 532 c 152,-1,50
 1569 81.5256 1569 81.5256 1178 -144 c 16,51,52
 983 -257 983 -257 787 -257 c 24,53,54
 592 -257 592 -257 397 -144 c 8,55,42
 6 81.5256 6 81.5256 6 532 c 152,-1,43
EndSplineSet
EndChar
StartChar: H18533
Encoding: 9679 9679 9679
Width: 1575
Flags: W
TeX: 0 0 0 0
Fore
6 532 m 152,-1,1
 6 982.474 6 982.474 397 1208 c 16,2,3
 592 1321 592 1321 787 1321 c 24,4,5
 983 1321 983 1321 1178 1208 c 8,6,7
 1569 982.474 1569 982.474 1569 532 c 152,-1,8
 1569 81.5256 1569 81.5256 1178 -144 c 16,9,10
 983 -257 983 -257 787 -257 c 24,11,12
 592 -257 592 -257 397 -144 c 8,13,0
 6 81.5256 6 81.5256 6 532 c 152,-1,1
EndSplineSet
EndChar
StartChar: uni25D0
Encoding: 9680 9680 9680
Width: 1575
Flags: W
TeX: 0 0 0 0
Fore
787 -138.65 m 17,0,1
 953.6 -138.65 953.6 -138.65 1119.34 -42.5996 c 8,2,3
 1451.71 149.097 1451.71 149.097 1451.71 532 c 152,-1,4
 1451.71 914.903 1451.71 914.903 1119.34 1106.6 c 16,5,6
 953.6 1202.65 953.6 1202.65 787 1202.65 c 9,7,-1
 787 -138.65 l 17,0,1
6 532 m 152,-1,9
 6 982.474 6 982.474 397 1208 c 16,10,11
 592 1321 592 1321 787 1321 c 24,12,13
 983 1321 983 1321 1178 1208 c 8,14,15
 1569 982.474 1569 982.474 1569 532 c 152,-1,16
 1569 81.5256 1569 81.5256 1178 -144 c 16,17,18
 983 -257 983 -257 787 -257 c 24,19,20
 592 -257 592 -257 397 -144 c 8,21,8
 6 81.5256 6 81.5256 6 532 c 152,-1,9
EndSplineSet
EndChar
StartChar: uni25D1
Encoding: 9681 9681 9681
Width: 1575
Flags: W
TeX: 0 0 0 0
Fore
787 1202.65 m 17,0,1
 621.25 1202.65 621.25 1202.65 455.5 1106.6 c 8,2,3
 123.15 914.903 123.15 914.903 123.15 532 c 152,-1,4
 123.15 149.097 123.15 149.097 455.5 -42.5996 c 16,5,6
 621.25 -138.65 621.25 -138.65 787 -138.65 c 9,7,-1
 787 1202.65 l 17,0,1
6 532 m 152,-1,9
 6 982.474 6 982.474 397 1208 c 16,10,11
 592 1321 592 1321 787 1321 c 24,12,13
 983 1321 983 1321 1178 1208 c 8,14,15
 1569 982.474 1569 982.474 1569 532 c 152,-1,16
 1569 81.5256 1569 81.5256 1178 -144 c 16,17,18
 983 -257 983 -257 787 -257 c 24,19,20
 592 -257 592 -257 397 -144 c 8,21,8
 6 81.5256 6 81.5256 6 532 c 152,-1,9
EndSplineSet
EndChar
StartChar: uni25D2
Encoding: 9682 9682 9682
Width: 1575
Flags: W
TeX: 0 0 0 0
Fore
123.15 532 m 17,0,1
 123.15 149.097 123.15 149.097 455.5 -42.5996 c 16,2,3
 621.25 -138.65 621.25 -138.65 787 -138.65 c 24,4,5
 953.6 -138.65 953.6 -138.65 1119.34 -42.5996 c 8,6,7
 1451.71 149.097 1451.71 149.097 1451.71 532 c 9,8,-1
 123.15 532 l 17,0,1
6 532 m 152,-1,10
 6 982.474 6 982.474 397 1208 c 16,11,12
 592 1321 592 1321 787 1321 c 24,13,14
 983 1321 983 1321 1178 1208 c 8,15,16
 1569 982.474 1569 982.474 1569 532 c 152,-1,17
 1569 81.5256 1569 81.5256 1178 -144 c 16,18,19
 983 -257 983 -257 787 -257 c 24,20,21
 592 -257 592 -257 397 -144 c 8,22,9
 6 81.5256 6 81.5256 6 532 c 152,-1,10
EndSplineSet
EndChar
StartChar: uni25D3
Encoding: 9683 9683 9683
Width: 1575
Flags: W
TeX: 0 0 0 0
Fore
1451.71 532 m 17,0,1
 1451.71 914.903 1451.71 914.903 1119.34 1106.6 c 16,2,3
 953.6 1202.65 953.6 1202.65 787 1202.65 c 24,4,5
 621.25 1202.65 621.25 1202.65 455.5 1106.6 c 8,6,7
 123.15 914.903 123.15 914.903 123.15 532 c 9,8,-1
 1451.71 532 l 17,0,1
6 532 m 152,-1,10
 6 982.474 6 982.474 397 1208 c 16,11,12
 592 1321 592 1321 787 1321 c 24,13,14
 983 1321 983 1321 1178 1208 c 8,15,16
 1569 982.474 1569 982.474 1569 532 c 152,-1,17
 1569 81.5256 1569 81.5256 1178 -144 c 16,18,19
 983 -257 983 -257 787 -257 c 24,20,21
 592 -257 592 -257 397 -144 c 8,22,9
 6 81.5256 6 81.5256 6 532 c 152,-1,10
EndSplineSet
EndChar
StartChar: uni25D4
Encoding: 9684 9684 9684
Width: 1575
Flags: W
TeX: 0 0 0 0
Fore
787 1202.65 m 17,0,1
 621.25 1202.65 621.25 1202.65 455.5 1106.6 c 8,2,3
 123.15 914.903 123.15 914.903 123.15 532 c 152,-1,4
 123.15 149.097 123.15 149.097 455.5 -42.5996 c 16,5,6
 621.25 -138.65 621.25 -138.65 787 -138.65 c 24,7,8
 953.6 -138.65 953.6 -138.65 1119.34 -42.5996 c 8,9,10
 1451.71 149.097 1451.71 149.097 1451.71 532 c 1,11,-1
 786.925 532 l 25,12,-1
 787 1202.65 l 17,0,1
6 532 m 152,-1,14
 6 982.474 6 982.474 397 1208 c 16,15,16
 592 1321 592 1321 787 1321 c 24,17,18
 983 1321 983 1321 1178 1208 c 8,19,20
 1569 982.474 1569 982.474 1569 532 c 152,-1,21
 1569 81.5256 1569 81.5256 1178 -144 c 16,22,23
 983 -257 983 -257 787 -257 c 24,24,25
 592 -257 592 -257 397 -144 c 8,26,13
 6 81.5256 6 81.5256 6 532 c 152,-1,14
EndSplineSet
EndChar
StartChar: uni25D5
Encoding: 9685 9685 9685
Width: 1575
Flags: W
TeX: 0 0 0 0
Fore
787 1202.65 m 17,0,1
 621.25 1202.65 621.25 1202.65 455.5 1106.6 c 8,2,3
 123.15 914.903 123.15 914.903 123.15 532 c 1,4,-1
 786.925 532 l 25,5,-1
 787 1202.65 l 17,0,1
6 532 m 152,-1,7
 6 982.474 6 982.474 397 1208 c 16,8,9
 592 1321 592 1321 787 1321 c 24,10,11
 983 1321 983 1321 1178 1208 c 8,12,13
 1569 982.474 1569 982.474 1569 532 c 152,-1,14
 1569 81.5256 1569 81.5256 1178 -144 c 16,15,16
 983 -257 983 -257 787 -257 c 24,17,18
 592 -257 592 -257 397 -144 c 8,19,6
 6 81.5256 6 81.5256 6 532 c 152,-1,7
EndSplineSet
EndChar
StartChar: uni25D6
Encoding: 9686 9686 9686
Width: 793
Flags: W
TeX: 0 0 0 0
Fore
6 532 m 152,-1,1
 6 982.474 6 982.474 397 1208 c 16,2,3
 592 1321 592 1321 787 1321 c 9,4,-1
 787 -257 l 17,5,6
 592 -257 592 -257 397 -144 c 8,7,0
 6 81.5256 6 81.5256 6 532 c 152,-1,1
EndSplineSet
EndChar
StartChar: uni25D7
Encoding: 9687 9687 9687
Width: 793
Flags: W
TeX: 0 0 0 0
Fore
787 532 m 152,-1,1
 787 81.5254 787 81.5254 396 -144 c 16,2,3
 201 -257 201 -257 6 -257 c 9,4,-1
 6 1321 l 17,5,6
 201 1321 201 1321 396 1208 c 8,7,0
 787 982.474 787 982.474 787 532 c 152,-1,1
EndSplineSet
EndChar
StartChar: invbullet
Encoding: 9688 9688 9688
Width: 1208
Flags: W
TeX: 0 0 0 0
Fore
307 762 m 0,0,1
 307 637 307 637 393 551 c 128,-1,2
 479 465 479 465 604 465 c 128,-1,3
 729 465 729 465 815 551 c 128,-1,4
 901 637 901 637 901 762 c 0,5,6
 901 886 901 886 815.5 971.5 c 128,-1,7
 730 1057 730 1057 606 1057 c 0,8,9
 480 1057 480 1057 393.5 971.5 c 128,-1,10
 307 886 307 886 307 762 c 0,0,1
-20 -20 m 25,11,-1
 -20 1576 l 25,12,-1
 1228 1576 l 25,13,-1
 1228 -20 l 25,14,-1
 -20 -20 l 25,11,-1
EndSplineSet
EndChar
StartChar: invcircle
Encoding: 9689 9689 9689
Width: 1575
Flags: W
TeX: 0 0 0 0
Fore
123.225 532 m 152,-1,1
 123.225 149.097 123.225 149.097 455.575 -42.5996 c 16,2,3
 621.325 -138.65 621.325 -138.65 787.075 -138.65 c 24,4,5
 953.675 -138.65 953.675 -138.65 1119.42 -42.5996 c 8,6,7
 1451.78 149.097 1451.78 149.097 1451.78 532 c 152,-1,8
 1451.78 914.903 1451.78 914.903 1119.42 1106.6 c 16,9,10
 953.675 1202.65 953.675 1202.65 787.075 1202.65 c 24,11,12
 621.325 1202.65 621.325 1202.65 455.575 1106.6 c 8,13,0
 123.225 914.903 123.225 914.903 123.225 532 c 152,-1,1
6 532 m 152,-1,15
 6 81.5256 6 81.5256 397 -144 c 16,16,17
 592 -257 592 -257 787 -257 c 24,18,19
 983 -257 983 -257 1178 -144 c 8,20,21
 1569 81.5256 1569 81.5256 1569 532 c 152,-1,22
 1569 982.474 1569 982.474 1178 1208 c 16,23,24
 983 1321 983 1321 787 1321 c 24,25,26
 592 1321 592 1321 397 1208 c 8,27,14
 6 982.474 6 982.474 6 532 c 152,-1,15
-20 -512 m 25,28,-1
 -20 1576 l 25,29,-1
 1595 1576 l 25,30,-1
 1595 -512 l 25,31,-1
 -20 -512 l 25,28,-1
EndSplineSet
EndChar
StartChar: uni25DA
Encoding: 9690 9690 9690
Width: 1575
Flags: W
TeX: 0 0 0 0
Fore
-20 532 m 1,0,-1
 -20 1576 l 1,1,-1
 1595 1576 l 1,2,-1
 1595 532 l 1,3,-1
 1569 532 l 1,4,5
 1569 981.947 1569 981.947 1178 1208 c 0,6,7
 982.545 1321 982.545 1321 787 1321 c 0,8,9
 592.455 1321 592.455 1321 397 1208 c 0,10,11
 6 981.947 6 981.947 6 532 c 1,12,-1
 -20 532 l 1,0,-1
1451.78 532 m 1,13,-1
 123.225 532 l 1,14,15
 123.225 914.455 123.225 914.455 455.575 1106.6 c 0,16,17
 621.712 1202.65 621.712 1202.65 787.075 1202.65 c 0,18,19
 953.284 1202.65 953.284 1202.65 1119.42 1106.6 c 0,20,21
 1451.78 914.45 1451.78 914.45 1451.78 532 c 1,13,-1
EndSplineSet
EndChar
StartChar: uni25DB
Encoding: 9691 9691 9691
Width: 1575
Flags: W
TeX: 0 0 0 0
Fore
-20 -512 m 1,0,-1
 -20 532 l 1,1,-1
 6 532 l 1,2,3
 6 82.0522 6 82.0522 397 -144 c 0,4,5
 592.455 -257 592.455 -257 787 -257 c 0,6,7
 982.545 -257 982.545 -257 1178 -144 c 0,8,9
 1569 82.0522 1569 82.0522 1569 532 c 1,10,-1
 1595 532 l 1,11,-1
 1595 -512 l 1,12,-1
 -20 -512 l 1,0,-1
123.225 532 m 1,13,-1
 1451.78 532 l 1,14,15
 1451.78 149.551 1451.78 149.551 1119.42 -42.5996 c 0,16,17
 953.283 -138.65 953.283 -138.65 787.075 -138.65 c 0,18,19
 621.712 -138.65 621.712 -138.65 455.575 -42.5996 c 0,20,21
 123.225 149.545 123.225 149.545 123.225 532 c 1,13,-1
EndSplineSet
EndChar
StartChar: uni25DC
Encoding: 9692 9692 9692
Width: 793
Flags: W
TeX: 0 0 0 0
Fore
6 532 m 17,0,1
 6 982.474 6 982.474 397 1208 c 16,2,3
 592 1321 592 1321 787 1321 c 9,4,-1
 787.075 1202.65 l 17,5,6
 621.325 1202.65 621.325 1202.65 455.575 1106.6 c 8,7,8
 123.225 914.903 123.225 914.903 123.225 532 c 9,9,-1
 6 532 l 17,0,1
EndSplineSet
EndChar
StartChar: uni25DD
Encoding: 9693 9693 9693
Width: 793
Flags: W
TeX: 0 0 0 0
Fore
6 1321 m 17,0,1
 201 1321 201 1321 396 1208 c 8,2,3
 787 982.474 787 982.474 787 532 c 1,4,-1
 669.78 532 l 1,5,6
 669.78 914.903 669.78 914.903 337.42 1106.6 c 16,7,8
 171.675 1202.65 171.675 1202.65 6 1202.65 c 9,9,-1
 6 1321 l 17,0,1
EndSplineSet
EndChar
StartChar: uni25DE
Encoding: 9694 9694 9694
Width: 793
Flags: W
TeX: 0 0 0 0
Fore
6 -257 m 9,0,-1
 6 -138.65 l 17,1,2
 171.675 -138.65 171.675 -138.65 337.42 -42.5996 c 8,3,4
 669.78 149.097 669.78 149.097 669.78 532 c 1,5,-1
 787 532 l 1,6,7
 787 81.5254 787 81.5254 396 -144 c 16,8,9
 201 -257 201 -257 6 -257 c 9,0,-1
EndSplineSet
EndChar
StartChar: uni25DF
Encoding: 9695 9695 9695
Width: 793
Flags: W
TeX: 0 0 0 0
Fore
787 -257 m 17,0,1
 592 -257 592 -257 397 -144 c 8,2,3
 6 81.5256 6 81.5256 6 532 c 9,4,-1
 123.225 532 l 17,5,6
 123.225 149.097 123.225 149.097 455.575 -42.5996 c 16,7,8
 621.325 -138.65 621.325 -138.65 787.075 -138.65 c 9,9,-1
 787 -257 l 17,0,1
EndSplineSet
EndChar
StartChar: uni25E0
Encoding: 9696 9696 9696
Width: 1575
Flags: W
TeX: 0 0 0 0
Fore
6 532 m 17,0,1
 6 982.474 6 982.474 397 1208 c 16,2,3
 592 1321 592 1321 787 1321 c 24,4,5
 983 1321 983 1321 1178 1208 c 8,6,7
 1569 982.474 1569 982.474 1569 532 c 1,8,-1
 1451.78 532 l 1,9,10
 1451.78 914.903 1451.78 914.903 1119.42 1106.6 c 16,11,12
 953.675 1202.65 953.675 1202.65 787.075 1202.65 c 24,13,14
 621.325 1202.65 621.325 1202.65 455.575 1106.6 c 8,15,16
 123.225 914.903 123.225 914.903 123.225 532 c 9,17,-1
 6 532 l 17,0,1
EndSplineSet
EndChar
StartChar: uni25E1
Encoding: 9697 9697 9697
Width: 1575
Flags: W
TeX: 0 0 0 0
Fore
6 532 m 9,0,-1
 123.225 532 l 17,1,2
 123.225 149.097 123.225 149.097 455.575 -42.5996 c 16,3,4
 621.325 -138.65 621.325 -138.65 787.075 -138.65 c 24,5,6
 953.675 -138.65 953.675 -138.65 1119.42 -42.5996 c 8,7,8
 1451.78 149.097 1451.78 149.097 1451.78 532 c 1,9,-1
 1569 532 l 1,10,11
 1569 81.5256 1569 81.5256 1178 -144 c 16,12,13
 983 -257 983 -257 787 -257 c 24,14,15
 592 -257 592 -257 397 -144 c 8,16,17
 6 81.5256 6 81.5256 6 532 c 9,0,-1
EndSplineSet
EndChar
StartChar: uni25E2
Encoding: 9698 9698 9698
Width: 1575
Flags: W
TeX: 0 0 0 0
Fore
6 -252.5 m 25,0,-1
 1569 1316.5 l 25,1,-1
 1569 -252.5 l 25,2,-1
 6 -252.5 l 25,0,-1
EndSplineSet
EndChar
StartChar: uni25E3
Encoding: 9699 9699 9699
Width: 1575
Flags: W
TeX: 0 0 0 0
Fore
6 -252.5 m 25,0,-1
 6 1316.5 l 25,1,-1
 1569 -252.5 l 25,2,-1
 6 -252.5 l 25,0,-1
EndSplineSet
EndChar
StartChar: uni25E4
Encoding: 9700 9700 9700
Width: 1575
Flags: W
TeX: 0 0 0 0
Fore
6 -252.5 m 25,0,-1
 6 1316.5 l 25,1,-1
 1569 1316.5 l 25,2,-1
 6 -252.5 l 25,0,-1
EndSplineSet
EndChar
StartChar: uni25E5
Encoding: 9701 9701 9701
Width: 1575
Flags: W
TeX: 0 0 0 0
Fore
6 1316.5 m 25,0,-1
 1569 1316.5 l 25,1,-1
 1569 -252.5 l 25,2,-1
 6 1316.5 l 25,0,-1
EndSplineSet
EndChar
StartChar: openbullet
Encoding: 9702 9702 9702
Width: 1208
Flags: W
TeX: 0 0 0 0
Fore
366.4 761.8 m 0,0,1
 366.4 661.8 366.4 661.8 435.2 593 c 128,-1,2
 504 524.2 504 524.2 604 524.2 c 128,-1,3
 704 524.2 704 524.2 772.8 593 c 128,-1,4
 841.6 661.8 841.6 661.8 841.6 761.8 c 0,5,6
 841.6 861 841.6 861 773.2 929.4 c 128,-1,7
 704.8 997.8 704.8 997.8 605.6 997.8 c 0,8,9
 504.8 997.8 504.8 997.8 435.6 929.4 c 128,-1,10
 366.4 861 366.4 861 366.4 761.8 c 0,0,1
307 762 m 0,11,12
 307 886 307 886 393.5 971.5 c 128,-1,13
 480 1057 480 1057 606 1057 c 0,14,15
 730 1057 730 1057 815.5 971.5 c 128,-1,16
 901 886 901 886 901 762 c 0,17,18
 901 637 901 637 815 551 c 128,-1,19
 729 465 729 465 604 465 c 128,-1,20
 479 465 479 465 393 551 c 128,-1,21
 307 637 307 637 307 762 c 0,11,12
EndSplineSet
EndChar
StartChar: uni25E7
Encoding: 9703 9703 9703
Width: 1575
Flags: W
TeX: 0 0 0 0
Fore
6 -252.5 m 25,0,-1
 6 1316.5 l 25,1,-1
 1569 1316.5 l 25,2,-1
 1569 -252.5 l 25,3,-1
 6 -252.5 l 25,0,-1
787 -138.5 m 17,4,-1
 1455 -138.5 l 9,5,-1
 1455 1202.5 l 17,6,-1
 787 1202.5 l 9,7,-1
 787 -138.5 l 17,4,-1
EndSplineSet
EndChar
StartChar: uni25E8
Encoding: 9704 9704 9704
Width: 1575
Flags: W
TeX: 0 0 0 0
Fore
6 -252.5 m 25,0,-1
 6 1316.5 l 25,1,-1
 1569 1316.5 l 25,2,-1
 1569 -252.5 l 25,3,-1
 6 -252.5 l 25,0,-1
120 -138.5 m 17,4,-1
 787 -138.5 l 9,5,-1
 787 1202.5 l 17,6,-1
 120 1202.5 l 9,7,-1
 120 -138.5 l 17,4,-1
EndSplineSet
EndChar
StartChar: uni25E9
Encoding: 9705 9705 9705
Width: 1575
Flags: W
TeX: 0 0 0 0
Fore
6 -252.5 m 25,0,-1
 6 1316.5 l 25,1,-1
 1569 1316.5 l 25,2,-1
 1569 -252.5 l 25,3,-1
 6 -252.5 l 25,0,-1
120 -138.5 m 17,4,-1
 1455 -138.5 l 9,5,-1
 1455 1202.5 l 17,6,-1
 120 -138.5 l 17,4,-1
EndSplineSet
EndChar
StartChar: uni25EA
Encoding: 9706 9706 9706
Width: 1575
Flags: W
TeX: 0 0 0 0
Fore
6 -252.5 m 25,0,-1
 6 1316.5 l 25,1,-1
 1569 1316.5 l 25,2,-1
 1569 -252.5 l 25,3,-1
 6 -252.5 l 25,0,-1
120 -138.5 m 17,4,-1
 1455 1202.5 l 17,5,-1
 120 1202.5 l 9,6,-1
 120 -138.5 l 17,4,-1
EndSplineSet
EndChar
StartChar: uni25EB
Encoding: 9707 9707 9707
Width: 1575
Flags: W
TeX: 0 0 0 0
Fore
6 -252.5 m 25,0,-1
 6 1316.5 l 25,1,-1
 1569 1316.5 l 25,2,-1
 1569 -252.5 l 25,3,-1
 6 -252.5 l 25,0,-1
844 -138.5 m 17,4,-1
 1455 -138.5 l 9,5,-1
 1455 1202.5 l 17,6,-1
 844 1202.5 l 9,7,-1
 844 -138.5 l 17,4,-1
120 -138.5 m 17,8,-1
 730 -138.5 l 9,9,-1
 730 1202.5 l 17,10,-1
 120 1202.5 l 9,11,-1
 120 -138.5 l 17,8,-1
EndSplineSet
EndChar
StartChar: uni25EC
Encoding: 9708 9708 9708
Width: 1575
Flags: W
TeX: 0 0 0 0
Fore
639 362.5 m 0,0,1
 639 424.5 639 424.5 682.25 467.25 c 128,-1,2
 725.5 510 725.5 510 788.5 510 c 0,3,4
 850.5 510 850.5 510 893.25 467.25 c 128,-1,5
 936 424.5 936 424.5 936 362.5 c 0,6,7
 936 300 936 300 893 257 c 128,-1,8
 850 214 850 214 787.5 214 c 128,-1,9
 725 214 725 214 682 257 c 128,-1,10
 639 300 639 300 639 362.5 c 0,0,1
177 -138.5 m 25,11,-1
 1398 -138.5 l 25,12,-1
 787 1088.5 l 25,13,-1
 177 -138.5 l 25,11,-1
6 -252.5 m 25,14,-1
 787 1316.5 l 25,15,-1
 1569 -252.5 l 25,16,-1
 6 -252.5 l 25,14,-1
EndSplineSet
EndChar
StartChar: uni25ED
Encoding: 9709 9709 9709
Width: 1575
Flags: W
TeX: 0 0 0 0
Fore
787 -138.5 m 25,0,-1
 1398 -138.5 l 25,1,-1
 787 1088.5 l 25,2,-1
 787 -138.5 l 25,0,-1
6 -252.5 m 25,3,-1
 787 1316.5 l 25,4,-1
 1569 -252.5 l 25,5,-1
 6 -252.5 l 25,3,-1
EndSplineSet
EndChar
StartChar: uni25EE
Encoding: 9710 9710 9710
Width: 1575
Flags: W
TeX: 0 0 0 0
Fore
177 -138.5 m 25,0,-1
 787 -138.5 l 25,1,-1
 787 1088.5 l 25,2,-1
 177 -138.5 l 25,0,-1
6 -252.5 m 25,3,-1
 787 1316.5 l 25,4,-1
 1569 -252.5 l 25,5,-1
 6 -252.5 l 25,3,-1
EndSplineSet
EndChar
StartChar: uni25EF
Encoding: 9711 9711 9711
Width: 2028
Flags: W
TeX: 0 0 0 0
Fore
109.25 532 m 152,-1,1
 109.25 10.5 109.25 10.5 561.947 -250.555 c 16,2,3
 788.25 -381.5 788.25 -381.5 1014 -381.5 c 152,-1,4
 1239.75 -381.5 1239.75 -381.5 1466.05 -250.555 c 8,5,6
 1918.75 10.5 1918.75 10.5 1918.75 532 c 152,-1,7
 1918.75 1053.5 1918.75 1053.5 1466.05 1314.56 c 16,8,9
 1239.75 1445.5 1239.75 1445.5 1014 1445.5 c 152,-1,10
 788.25 1445.5 788.25 1445.5 561.947 1314.56 c 8,11,0
 109.25 1053.5 109.25 1053.5 109.25 532 c 152,-1,1
-20 532 m 152,-1,13
 -20 1128 -20 1128 497.368 1426.35 c 16,14,15
 756 1576 756 1576 1014 1576 c 152,-1,16
 1272 1576 1272 1576 1530.63 1426.35 c 8,17,18
 2048 1128 2048 1128 2048 532 c 152,-1,19
 2048 -64 2048 -64 1530.63 -362.348 c 16,20,21
 1272 -512 1272 -512 1014 -512 c 152,-1,22
 756 -512 756 -512 497.368 -362.348 c 8,23,12
 -20 -64 -20 -64 -20 532 c 152,-1,13
EndSplineSet
EndChar
StartChar: uni25F0
Encoding: 9712 9712 9712
Width: 1575
Flags: W
TeX: 0 0 0 0
Fore
120 -138.5 m 1,0,-1
 1455 -138.5 l 1,1,-1
 1455 1202.5 l 1,2,-1
 844 1202.5 l 1,3,-1
 844 475 l 1,4,-1
 120 475 l 1,5,-1
 120 -138.5 l 1,0,-1
6 -252.5 m 1,6,-1
 6 1316.5 l 1,7,-1
 1569 1316.5 l 1,8,-1
 1569 -252.5 l 1,9,-1
 6 -252.5 l 1,6,-1
120 589 m 1,10,-1
 730 589 l 1,11,-1
 730 1202.5 l 1,12,-1
 120 1202.5 l 1,13,-1
 120 589 l 1,10,-1
EndSplineSet
EndChar
StartChar: uni25F1
Encoding: 9713 9713 9713
Width: 1575
Flags: W
TeX: 0 0 0 0
Fore
120 589 m 1,0,-1
 844 589 l 1,1,-1
 844 -138.5 l 1,2,-1
 1455 -138.5 l 1,3,-1
 1455 1202.5 l 1,4,-1
 120 1202.5 l 1,5,-1
 120 589 l 1,0,-1
6 -252.5 m 1,6,-1
 6 1316.5 l 1,7,-1
 1569 1316.5 l 1,8,-1
 1569 -252.5 l 1,9,-1
 6 -252.5 l 1,6,-1
120 -138.5 m 1,10,-1
 730 -138.5 l 1,11,-1
 730 475 l 1,12,-1
 120 475 l 1,13,-1
 120 -138.5 l 1,10,-1
EndSplineSet
EndChar
StartChar: uni25F2
Encoding: 9714 9714 9714
Width: 1575
Flags: W
TeX: 0 0 0 0
Fore
120 -138.5 m 1,0,-1
 730 -138.5 l 1,1,-1
 730 589 l 1,2,-1
 1455 589 l 1,3,-1
 1455 1202.5 l 1,4,-1
 120 1202.5 l 1,5,-1
 120 -138.5 l 1,0,-1
6 -252.5 m 1,6,-1
 6 1316.5 l 1,7,-1
 1569 1316.5 l 1,8,-1
 1569 -252.5 l 1,9,-1
 6 -252.5 l 1,6,-1
844 -138.5 m 1,10,-1
 1455 -138.5 l 1,11,-1
 1455 475 l 1,12,-1
 844 475 l 1,13,-1
 844 -138.5 l 1,10,-1
EndSplineSet
EndChar
StartChar: uni25F3
Encoding: 9715 9715 9715
Width: 1575
Flags: W
TeX: 0 0 0 0
Fore
120 -138.5 m 1,0,-1
 1455 -138.5 l 1,1,-1
 1455 475 l 1,2,-1
 730 475 l 1,3,-1
 730 1202.5 l 1,4,-1
 120 1202.5 l 1,5,-1
 120 -138.5 l 1,0,-1
6 -252.5 m 1,6,-1
 6 1316.5 l 1,7,-1
 1569 1316.5 l 1,8,-1
 1569 -252.5 l 1,9,-1
 6 -252.5 l 1,6,-1
844 589 m 1,10,-1
 1455 589 l 1,11,-1
 1455 1202.5 l 1,12,-1
 844 1202.5 l 1,13,-1
 844 589 l 1,10,-1
EndSplineSet
EndChar
StartChar: uni25F4
Encoding: 9716 9716 9716
Width: 1575
Flags: W
TeX: 0 0 0 0
Fore
6 532 m 0,0,1
 6 981.947 6 981.947 397 1208 c 0,2,3
 592.455 1321 592.455 1321 787 1321 c 0,4,5
 982.545 1321 982.545 1321 1178 1208 c 0,6,7
 1569 981.947 1569 981.947 1569 532 c 0,8,9
 1569 82.0522 1569 82.0522 1178 -144 c 0,10,11
 982.545 -257 982.545 -257 787 -257 c 0,12,13
 592.455 -257 592.455 -257 397 -144 c 0,14,15
 6 82.0522 6 82.0522 6 532 c 0,0,1
730 1199.79 m 1,16,17
 593.076 1186.09 593.076 1186.09 455.575 1106.6 c 0,18,19
 148.443 929.035 148.443 929.035 125.14 589 c 1,20,-1
 730 589 l 1,21,-1
 730 1199.79 l 1,16,17
125.14 475 m 1,22,23
 148.442 134.966 148.442 134.966 455.575 -42.5996 c 0,24,25
 621.712 -138.65 621.712 -138.65 787.075 -138.65 c 0,26,27
 953.283 -138.65 953.283 -138.65 1119.42 -42.5996 c 0,28,29
 1451.78 149.551 1451.78 149.551 1451.78 532 c 0,30,31
 1451.78 914.45 1451.78 914.45 1119.42 1106.6 c 0,32,33
 981.712 1186.21 981.712 1186.21 844 1199.84 c 1,34,-1
 844 475 l 1,35,-1
 125.14 475 l 1,22,23
EndSplineSet
EndChar
StartChar: uni25F5
Encoding: 9717 9717 9717
Width: 1575
Flags: W
TeX: 0 0 0 0
Fore
6 532 m 0,0,1
 6 981.947 6 981.947 397 1208 c 0,2,3
 592.455 1321 592.455 1321 787 1321 c 0,4,5
 982.545 1321 982.545 1321 1178 1208 c 0,6,7
 1569 981.947 1569 981.947 1569 532 c 0,8,9
 1569 82.0522 1569 82.0522 1178 -144 c 0,10,11
 982.545 -257 982.545 -257 787 -257 c 0,12,13
 592.455 -257 592.455 -257 397 -144 c 0,14,15
 6 82.0522 6 82.0522 6 532 c 0,0,1
844 -135.835 m 1,16,17
 981.711 -122.214 981.711 -122.214 1119.42 -42.5996 c 0,18,19
 1451.78 149.551 1451.78 149.551 1451.78 532 c 0,20,21
 1451.78 914.45 1451.78 914.45 1119.42 1106.6 c 0,22,23
 953.284 1202.65 953.284 1202.65 787.075 1202.65 c 0,24,25
 621.712 1202.65 621.712 1202.65 455.575 1106.6 c 0,26,27
 148.442 929.035 148.442 929.035 125.14 589 c 1,28,-1
 844 589 l 1,29,-1
 844 -135.835 l 1,16,17
125.14 475 m 1,30,31
 148.442 134.966 148.442 134.966 455.575 -42.5996 c 0,32,33
 593.076 -122.094 593.076 -122.094 730 -135.794 c 1,34,-1
 730 475 l 1,35,-1
 125.14 475 l 1,30,31
EndSplineSet
EndChar
StartChar: uni25F6
Encoding: 9718 9718 9718
Width: 1575
Flags: W
TeX: 0 0 0 0
Fore
6 532 m 0,0,1
 6 981.947 6 981.947 397 1208 c 0,2,3
 592.455 1321 592.455 1321 787 1321 c 0,4,5
 982.545 1321 982.545 1321 1178 1208 c 0,6,7
 1569 981.947 1569 981.947 1569 532 c 0,8,9
 1569 82.0522 1569 82.0522 1178 -144 c 0,10,11
 982.545 -257 982.545 -257 787 -257 c 0,12,13
 592.455 -257 592.455 -257 397 -144 c 0,14,15
 6 82.0522 6 82.0522 6 532 c 0,0,1
123.225 532 m 0,16,17
 123.225 149.545 123.225 149.545 455.575 -42.5996 c 0,18,19
 593.076 -122.094 593.076 -122.094 730 -135.794 c 1,20,-1
 730 589 l 1,21,-1
 1449.86 589 l 1,22,23
 1426.56 929.029 1426.56 929.029 1119.42 1106.6 c 0,24,25
 953.284 1202.65 953.284 1202.65 787.075 1202.65 c 0,26,27
 621.712 1202.65 621.712 1202.65 455.575 1106.6 c 0,28,29
 123.225 914.456 123.225 914.456 123.225 532 c 0,16,17
844 -135.835 m 1,30,31
 981.711 -122.214 981.711 -122.214 1119.42 -42.5996 c 0,32,33
 1426.56 134.971 1426.56 134.971 1449.86 475 c 1,34,-1
 844 475 l 1,35,-1
 844 -135.835 l 1,30,31
EndSplineSet
EndChar
StartChar: uni25F7
Encoding: 9719 9719 9719
Width: 1575
Flags: W
TeX: 0 0 0 0
Fore
6 532 m 0,0,1
 6 981.947 6 981.947 397 1208 c 0,2,3
 592.455 1321 592.455 1321 787 1321 c 0,4,5
 982.545 1321 982.545 1321 1178 1208 c 0,6,7
 1569 981.947 1569 981.947 1569 532 c 0,8,9
 1569 82.0522 1569 82.0522 1178 -144 c 0,10,11
 982.545 -257 982.545 -257 787 -257 c 0,12,13
 592.455 -257 592.455 -257 397 -144 c 0,14,15
 6 82.0522 6 82.0522 6 532 c 0,0,1
123.225 532 m 0,16,17
 123.225 149.545 123.225 149.545 455.575 -42.5996 c 0,18,19
 621.712 -138.65 621.712 -138.65 787.075 -138.65 c 0,20,21
 953.283 -138.65 953.283 -138.65 1119.42 -42.5996 c 0,22,23
 1426.56 134.971 1426.56 134.971 1449.86 475 c 1,24,-1
 730 475 l 1,25,-1
 730 1199.79 l 1,26,27
 593.076 1186.09 593.076 1186.09 455.575 1106.6 c 0,28,29
 123.225 914.456 123.225 914.456 123.225 532 c 0,16,17
1449.86 589 m 1,30,31
 1426.56 929.029 1426.56 929.029 1119.42 1106.6 c 0,32,33
 981.712 1186.21 981.712 1186.21 844 1199.84 c 1,34,-1
 844 589 l 1,35,-1
 1449.86 589 l 1,30,31
EndSplineSet
EndChar
